<svg width="13" height="8" viewBox="0 0 13 8" fill="none" xmlns="http://www.w3.org/2000/svg">
<path fill-rule="evenodd" clip-rule="evenodd" d="M0.146877 0.983221C0.193317 0.93667 0.248486 0.899736 0.309224 0.874536C0.369962 0.849336 0.435075 0.836365 0.500835 0.836365C0.566595 0.836365 0.631708 0.849336 0.692446 0.874536C0.753184 0.899736 0.808353 0.93667 0.854794 0.983221L6.50013 6.62878L12.1455 0.983221C12.192 0.936745 12.2471 0.899878 12.3079 0.874726C12.3686 0.849573 12.4337 0.836627 12.4994 0.836627C12.5652 0.836627 12.6303 0.849573 12.691 0.874726C12.7517 0.899878 12.8069 0.936745 12.8534 0.983221C12.8999 1.0297 12.9367 1.08487 12.9619 1.1456C12.9871 1.20632 13 1.2714 13 1.33713C13 1.40286 12.9871 1.46794 12.9619 1.52867C12.9367 1.58939 12.8999 1.64456 12.8534 1.69104L6.85409 7.68951C6.80765 7.73606 6.75248 7.77299 6.69174 7.79819C6.631 7.82339 6.56589 7.83636 6.50013 7.83636C6.43437 7.83636 6.36926 7.82339 6.30852 7.79819C6.24778 7.77299 6.19261 7.73606 6.14617 7.68951L0.146877 1.69104C0.100319 1.64461 0.0633803 1.58945 0.0381768 1.52872C0.0129733 1.46799 0 1.40288 0 1.33713C0 1.27138 0.0129733 1.20628 0.0381768 1.14555C0.0633803 1.08482 0.100319 1.02965 0.146877 0.983221Z" fill="white"/>
</svg>
