<?xml version="1.0" encoding="utf-8"?>
<!-- Generator: Adobe Illustrator 24.3.0, SVG Export Plug-In . SVG Version: 6.00 Build 0)  -->
<svg version="1.1" id="Layer_1" xmlns="http://www.w3.org/2000/svg" xmlns:xlink="http://www.w3.org/1999/xlink" x="0px" y="0px"
	 viewBox="0 0 67 74" style="enable-background:new 0 0 67 74;" xml:space="preserve">
<style type="text/css">
	.st0{fill:#FFFFFF;}
</style>
<path class="st0" d="M1.7,1.5h7.1c1.3,0,2.4,0.3,3.5,0.8c1.1,0.5,2.1,1.2,2.9,2c0.8,0.8,1.5,1.8,1.9,3c0.5,1.1,0.7,2.3,0.7,3.5
	c0,1.2-0.2,2.4-0.7,3.5c-0.5,1.1-1.1,2.1-1.9,3c-0.8,0.9-1.8,1.5-2.9,2.1c-1.1,0.5-2.3,0.8-3.6,0.8H1.7V1.5z M6.5,16.1h1.1
	c0.8,0,1.6-0.1,2.2-0.4c0.7-0.3,1.2-0.6,1.6-1.1c0.4-0.5,0.8-1,1-1.6c0.2-0.6,0.4-1.3,0.4-2.1c0-0.7-0.1-1.4-0.4-2.1
	c-0.2-0.6-0.6-1.2-1-1.7C11,6.7,10.4,6.3,9.8,6C9.1,5.8,8.4,5.6,7.6,5.6H6.5V16.1z"/>
<path class="st0" d="M30.4,16.9h-6.8l-1.1,3.2h-5.1l7-18.6h5.2l7,18.6h-5.1L30.4,16.9z M29.1,13.2L27,7l-2.1,6.2H29.1z"/>
<path class="st0" d="M43.9,5.6v14.5h-4.8V5.6h-3.9V1.5h12.6v4.1H43.9z"/>
<path class="st0" d="M59.4,16.9h-6.8l-1.1,3.2h-5.1l7-18.6h5.2l7,18.6h-5.1L59.4,16.9z M58.2,13.2L56,7l-2.1,6.2H58.2z"/>
<path class="st0" d="M12.2,30.3H6.5v3.1h5.2v4.1H6.5v7.3H1.7V26.2h10.5V30.3z"/>
<path class="st0" d="M24.6,30.3h-5.7v3.1h5.4v4.1h-5.4v3.2h5.7v4.1H14.1V26.2h10.5V30.3z"/>
<path class="st0" d="M37.2,31c-0.5-0.4-1-0.7-1.6-1c-0.5-0.2-1-0.3-1.5-0.3c-0.6,0-1.1,0.1-1.5,0.4c-0.4,0.3-0.6,0.7-0.6,1.2
	c0,0.3,0.1,0.6,0.3,0.8c0.2,0.2,0.5,0.4,0.8,0.6c0.3,0.2,0.7,0.3,1.1,0.4c0.4,0.1,0.8,0.2,1.2,0.4c1.6,0.5,2.7,1.2,3.4,2.1
	c0.7,0.9,1.1,2,1.1,3.4c0,1-0.2,1.8-0.5,2.6c-0.3,0.8-0.8,1.4-1.4,2c-0.6,0.6-1.4,1-2.2,1.3c-0.9,0.3-1.9,0.5-3,0.5
	c-2.3,0-4.5-0.7-6.5-2.1l2.1-3.9c0.7,0.6,1.4,1.1,2.1,1.4c0.7,0.3,1.4,0.5,2.1,0.5c0.8,0,1.4-0.2,1.7-0.5c0.4-0.4,0.6-0.8,0.6-1.2
	c0-0.3,0-0.5-0.1-0.7c-0.1-0.2-0.3-0.4-0.5-0.6c-0.2-0.2-0.5-0.3-0.9-0.5c-0.4-0.1-0.8-0.3-1.3-0.5c-0.6-0.2-1.2-0.4-1.8-0.7
	s-1.1-0.6-1.6-1c-0.5-0.4-0.8-0.9-1.1-1.5c-0.3-0.6-0.4-1.4-0.4-2.3c0-0.9,0.2-1.8,0.5-2.5c0.3-0.7,0.7-1.4,1.3-1.9
	c0.5-0.5,1.2-1,2-1.2c0.8-0.3,1.7-0.4,2.6-0.4c0.9,0,1.9,0.1,2.9,0.4c1,0.3,1.9,0.6,2.9,1.1L37.2,31z"/>
<path class="st0" d="M49,30.3v14.5h-4.8V30.3h-3.9v-4.1h12.6v4.1H49z"/>
<path class="st0" d="M3.7,59.3v-4l-2.9-4.7h1.2l2.2,3.8l2.2-3.8h1.2l-2.9,4.7v4H3.7z"/>
<path class="st0" d="M8.4,59.3v-8.7h4.5v0.9H9.4v2.5h3.5v1H9.4v3.3h3.5v1L8.4,59.3L8.4,59.3z"/>
<path class="st0" d="M14.4,59.3v-8.7h2c0.6,0,1,0,1.3,0.1c0.3,0.1,0.5,0.2,0.7,0.3c0.3,0.2,0.5,0.5,0.6,0.8c0.1,0.3,0.2,0.7,0.2,1.1
	c0,0.7-0.2,1.3-0.6,1.6c-0.4,0.4-1,0.6-1.7,0.6h-0.2l3.3,4.1h-1.3l-3.1-4.1h-0.1v4.1H14.4z M15.4,51.5v2.9h0.8
	c0.8,0,1.3-0.1,1.6-0.3c0.3-0.2,0.4-0.6,0.4-1.1c0-0.6-0.1-0.9-0.4-1.2c-0.3-0.2-0.8-0.3-1.6-0.3H15.4z"/>
<path class="st0" d="M20.6,59.3v-8.7h4.5v0.9h-3.5v2.5h3.5v1h-3.5v3.3h3.5v1L20.6,59.3L20.6,59.3z"/>
<path class="st0" d="M29,59.7l-3.6-9h1.1l2.5,6.6l2.5-6.6h1.1L29,59.7z"/>
<path class="st0" d="M35.8,50.3l3.9,9h-1.1l-1.1-2.7h-3.3L33,59.3h-1.1L35.8,50.3z M35.8,52.6l-1.4,3.2h2.7L35.8,52.6z"/>
<path class="st0" d="M40.3,59.3v-9l6.3,6.9v-6.6h1v9l-6.3-6.9v6.5H40.3z"/>
</svg>
