<svg width="67" height="74" viewBox="0 0 67 74" fill="none" xmlns="http://www.w3.org/2000/svg">
<path d="M1.70044 1.53613H8.78066C10.0344 1.53613 11.2107 1.79241 12.3096 2.30258C13.4086 2.81275 14.3691 3.49259 15.19 4.33971C16.011 5.18802 16.6596 6.17633 17.1322 7.30465C17.6037 8.43296 17.8394 9.61466 17.8394 10.8486C17.8394 12.0671 17.6084 13.2405 17.1451 14.3688C16.6807 15.4959 16.0368 16.4889 15.2158 17.3444C14.3925 18.201 13.4332 18.8844 12.3354 19.3946C11.2353 19.9059 10.052 20.161 8.78184 20.161H1.70044V1.53613ZM6.48548 16.0618H7.5844C8.41475 16.0618 9.15596 15.9301 9.80687 15.6656C10.4578 15.4033 11.009 15.0403 11.4558 14.5776C11.9038 14.1172 12.244 13.5691 12.4809 12.9355C12.7166 12.3008 12.8351 11.6055 12.8351 10.8474C12.8351 10.107 12.7131 9.41534 12.4691 8.77228C12.2252 8.1316 11.8792 7.57872 11.4312 7.11837C10.9832 6.65803 10.4343 6.29498 9.78341 6.0304C9.13251 5.7682 8.40067 5.6365 7.5844 5.6365H6.48548V16.0618Z" fill="white"/>
<path d="M30.4155 16.9267H23.5792L22.4803 20.1622H17.3762L24.3849 1.53613H29.6097L36.6184 20.1622H31.5144L30.4155 16.9267ZM29.1465 13.2464L26.9967 7.046L24.8482 13.2464H29.1465Z" fill="white"/>
<path d="M43.9191 5.63769V20.1622H39.1329V5.63769H35.2017V1.53613H47.8504V5.63769H43.9191Z" fill="white"/>
<path d="M59.4247 16.9267H52.5884L51.4895 20.1622H46.3843L53.393 1.53613H58.6178L65.6265 20.1622H60.5224L59.4247 16.9267ZM58.1557 13.2464L56.006 7.046L53.8574 13.2464H58.1557Z" fill="white"/>
<path d="M12.2486 30.2837H6.48548V33.3957H11.735V37.4961H6.48548V44.8082H1.70044V26.1821H12.2486V30.2837Z" fill="white"/>
<path d="M24.6042 30.2837H18.9149V33.3957H24.2864V37.4961H18.9149V40.7078H24.6042V44.8082H14.1299V26.1821H24.6042V30.2837Z" fill="white"/>
<path d="M37.1789 30.9508C36.6582 30.5213 36.1363 30.2057 35.6156 29.9993C35.0949 29.7928 34.5906 29.6908 34.1027 29.6908C33.4834 29.6908 32.9791 29.8391 32.5874 30.1357C32.198 30.4323 32.0022 30.8191 32.0022 31.2961C32.0022 31.6271 32.0995 31.8976 32.2954 32.1112C32.4912 32.3259 32.7481 32.5122 33.0647 32.6664C33.3826 32.823 33.7391 32.9595 34.1379 33.0746C34.5366 33.1896 34.9307 33.313 35.3224 33.4447C36.8857 33.9715 38.0292 34.6763 38.754 35.5566C39.4765 36.4381 39.84 37.5866 39.84 39.0032C39.84 39.9583 39.6817 40.8233 39.3639 41.5968C39.046 42.3728 38.5816 43.0348 37.9718 43.5865C37.3619 44.137 36.6125 44.5665 35.7258 44.8702C34.8368 45.174 33.8329 45.3282 32.7094 45.3282C30.3825 45.3282 28.2246 44.6282 26.239 43.227L28.2902 39.3248C29.0068 39.9678 29.714 40.4436 30.4154 40.7568C31.1144 41.07 31.8063 41.2255 32.4901 41.2255C33.2712 41.2255 33.8529 41.0451 34.2364 40.6821C34.6187 40.319 34.8087 39.9085 34.8087 39.447C34.8087 39.167 34.7606 38.9249 34.6633 38.7173C34.5648 38.5132 34.4017 38.3234 34.1754 38.1502C33.9467 37.9758 33.65 37.8156 33.2829 37.6673C32.917 37.5202 32.4725 37.3553 31.9529 37.1737C31.3337 36.9756 30.7273 36.7585 30.1327 36.52C29.5381 36.2815 29.0092 35.9647 28.5459 35.5685C28.0815 35.1722 27.7074 34.6751 27.4224 34.0735C27.1374 33.472 26.9955 32.7103 26.9955 31.7873C26.9955 30.8654 27.1456 30.0301 27.4482 29.2815C27.7484 28.5316 28.1706 27.8898 28.7172 27.3535C29.2613 26.8184 29.9298 26.4032 30.7203 26.1065C31.5084 25.8099 32.3927 25.6616 33.3697 25.6616C34.2809 25.6616 35.2333 25.7898 36.2254 26.0448C37.2188 26.3011 38.17 26.6749 39.0824 27.1684L37.1789 30.9508Z" fill="white"/>
<path d="M48.9726 30.2837V44.8082H44.1864V30.2837H40.2551V26.1821H52.9038V30.2837H48.9726Z" fill="white"/>
<path d="M3.67315 59.3403V55.3728L0.769287 50.6709H1.94561L4.18801 54.4308L6.41752 50.6709H7.58798L4.69115 55.3728V59.3403H3.67315Z" fill="white"/>
<path d="M8.40186 59.3406V50.6724H12.9207V51.6132H9.42102V54.1H12.9218V55.0599H9.42102V58.3831H12.9218V59.3429H8.40186V59.3406Z" fill="white"/>
<path d="M14.4077 59.3406V50.6724H16.4214C16.9961 50.6724 17.4148 50.7044 17.6822 50.7685C17.9496 50.8337 18.1841 50.9452 18.3882 51.1042C18.6415 51.3047 18.8386 51.5741 18.9793 51.911C19.12 52.2503 19.1904 52.6229 19.1904 53.0334C19.1904 53.7441 18.9934 54.2839 18.6017 54.6529C18.2088 55.0219 17.6341 55.207 16.8776 55.207H16.6959L19.968 59.3406H18.6744L15.5489 55.207H15.4023V59.3406H14.4077ZM15.4034 51.5408V54.4429H16.1822C16.9785 54.4429 17.511 54.3397 17.7795 54.132C18.0481 53.9244 18.183 53.5626 18.183 53.0464C18.183 52.4888 18.0458 52.0997 17.7678 51.8766C17.4898 51.6536 16.9621 51.5408 16.181 51.5408H15.4034Z" fill="white"/>
<path d="M20.5837 59.3406V50.6724H25.1026V51.6132H21.6029V54.1H25.1037V55.0599H21.6029V58.3831H25.1037V59.3429H20.5837V59.3406Z" fill="white"/>
<path d="M29.0373 59.6772L25.4133 50.6709H26.5193L29.0373 57.302L31.5424 50.6709H32.6425L29.0373 59.6772Z" fill="white"/>
<path d="M35.8034 50.3281L39.703 59.3404H38.597L37.4841 56.6804H34.1357L33.0227 59.3404H31.9167L35.8034 50.3281ZM35.8034 52.6073L34.4406 55.7988H37.1686L35.8034 52.6073Z" fill="white"/>
<path d="M40.3467 59.3404V50.3281L46.6165 57.2558V50.6722H47.5887V59.6785L41.3189 52.8268V59.3404H40.3467Z" fill="white"/>
</svg>
