<svg width="550" height="273" viewBox="0 0 550 273" fill="none" xmlns="http://www.w3.org/2000/svg">
<path fill-rule="evenodd" clip-rule="evenodd" d="M311.688 70.7453H346.133L550 264.982H476.818L441.662 220.37H441.584H429.655L410.81 195.85H410.732H395.778L363.788 149.948H344.349H344.323L336.31 134.247H350.372H352.569H352.647L337.551 110.527H337.473H324.212L319.947 102.173H329.123H331.295H331.372L311.688 70.7453Z" fill="#4596A7"/>
<path fill-rule="evenodd" clip-rule="evenodd" d="M547.544 262.645L550 264.982H476.818L474.97 262.645H547.544Z" fill="#163442"/>
<path fill-rule="evenodd" clip-rule="evenodd" d="M543.369 258.668L545.864 261.043H473.716L471.842 258.668H543.369Z" fill="#163442"/>
<path fill-rule="evenodd" clip-rule="evenodd" d="M539.194 254.691L541.663 257.041H470.562L468.701 254.691H539.194Z" fill="#163442"/>
<path fill-rule="evenodd" clip-rule="evenodd" d="M535.02 250.714L537.462 253.038H467.409L465.573 250.714H535.02Z" fill="#163442"/>
<path fill-rule="evenodd" clip-rule="evenodd" d="M530.845 246.737L533.262 249.035H464.242L462.445 246.737H530.845Z" fill="#163442"/>
<path fill-rule="evenodd" clip-rule="evenodd" d="M526.67 242.76L529.061 245.032H461.088L459.305 242.76H526.67Z" fill="#163442"/>
<path fill-rule="evenodd" clip-rule="evenodd" d="M522.495 238.783L524.861 241.03H457.935L456.177 238.783H522.495Z" fill="#163442"/>
<path fill-rule="evenodd" clip-rule="evenodd" d="M518.334 234.806L520.66 237.027H454.781L453.036 234.806H518.334Z" fill="#163442"/>
<path fill-rule="evenodd" clip-rule="evenodd" d="M514.159 230.829L516.446 233.024H451.627L449.908 230.829H514.159Z" fill="#163442"/>
<path fill-rule="evenodd" clip-rule="evenodd" d="M509.984 226.852L512.245 229.021H448.473L446.767 226.852H509.984Z" fill="#163442"/>
<path fill-rule="evenodd" clip-rule="evenodd" d="M505.809 222.875L508.045 225.019H445.32L443.64 222.875H505.809Z" fill="#163442"/>
<path fill-rule="evenodd" clip-rule="evenodd" d="M501.634 218.898L503.844 221.016H442.166L441.662 220.37H441.584H429.655L428.517 218.898H501.634Z" fill="#163442"/>
<path fill-rule="evenodd" clip-rule="evenodd" d="M497.459 214.921L499.644 217.013H427.07L425.467 214.921H497.459Z" fill="#163442"/>
<path fill-rule="evenodd" clip-rule="evenodd" d="M493.284 210.945L495.443 213.011H423.993L422.403 210.945H493.284Z" fill="#163442"/>
<path fill-rule="evenodd" clip-rule="evenodd" d="M489.11 206.968L491.242 208.995H420.917L419.353 206.968H489.11Z" fill="#163442"/>
<path fill-rule="evenodd" clip-rule="evenodd" d="M484.935 202.991L487.042 204.992H417.841L416.303 202.991H484.935Z" fill="#163442"/>
<path fill-rule="evenodd" clip-rule="evenodd" d="M480.76 199.014L482.841 200.989H414.765L413.24 199.014H480.76Z" fill="#163442"/>
<path fill-rule="evenodd" clip-rule="evenodd" d="M476.585 195.037L478.64 196.987H411.688L410.81 195.85H410.732H395.778L395.209 195.037H476.585Z" fill="#163442"/>
<path fill-rule="evenodd" clip-rule="evenodd" d="M472.411 191.06L474.44 192.984H393.788L392.443 191.06H472.411Z" fill="#163442"/>
<path fill-rule="evenodd" clip-rule="evenodd" d="M468.235 187.083L470.239 188.981H390.995L389.664 187.083H468.235Z" fill="#163442"/>
<path fill-rule="evenodd" clip-rule="evenodd" d="M464.061 183.106L466.026 184.978H388.204L386.898 183.106H464.061Z" fill="#163442"/>
<path fill-rule="evenodd" clip-rule="evenodd" d="M459.886 179.129L461.825 180.976H385.412L384.12 179.129H459.886Z" fill="#163442"/>
<path fill-rule="evenodd" clip-rule="evenodd" d="M455.711 175.152L457.624 176.973H382.62L381.354 175.152H455.711Z" fill="#163442"/>
<path fill-rule="evenodd" clip-rule="evenodd" d="M451.537 171.175L453.424 172.97H379.828L378.575 171.175H451.537Z" fill="#163442"/>
<path fill-rule="evenodd" clip-rule="evenodd" d="M447.362 167.198L449.223 168.967H377.036L375.809 167.198H447.362Z" fill="#163442"/>
<path fill-rule="evenodd" clip-rule="evenodd" d="M443.2 163.222L445.022 164.965H374.245L373.03 163.222H443.2Z" fill="#163442"/>
<path fill-rule="evenodd" clip-rule="evenodd" d="M439.025 159.245L440.822 160.962H371.466L370.264 159.245H439.025Z" fill="#163442"/>
<path fill-rule="evenodd" clip-rule="evenodd" d="M434.851 155.268L436.621 156.959H368.674L367.498 155.268H434.851Z" fill="#163442"/>
<path fill-rule="evenodd" clip-rule="evenodd" d="M430.675 151.291L432.42 152.956H365.882L364.719 151.291H430.675Z" fill="#163442"/>
<path fill-rule="evenodd" clip-rule="evenodd" d="M426.501 147.314L428.22 148.954H343.819L342.979 147.314H426.501Z" fill="#163442"/>
<path fill-rule="evenodd" clip-rule="evenodd" d="M422.326 143.337L424.019 144.951H341.777L340.95 143.337H422.326Z" fill="#163442"/>
<path fill-rule="evenodd" clip-rule="evenodd" d="M418.151 139.36L419.805 140.948H339.735L338.92 139.36H418.151Z" fill="#163442"/>
<path fill-rule="evenodd" clip-rule="evenodd" d="M413.976 135.383L415.605 136.945H337.692L336.891 135.383H413.976Z" fill="#163442"/>
<path fill-rule="evenodd" clip-rule="evenodd" d="M409.802 131.406L411.404 132.943H351.82L350.851 131.406H409.802Z" fill="#163442"/>
<path fill-rule="evenodd" clip-rule="evenodd" d="M405.627 127.429L407.203 128.94H349.273L348.317 127.429H405.627Z" fill="#163442"/>
<path fill-rule="evenodd" clip-rule="evenodd" d="M401.452 123.452L403.003 124.937H346.727L345.784 123.452H401.452Z" fill="#163442"/>
<path fill-rule="evenodd" clip-rule="evenodd" d="M397.277 119.475L398.802 120.922H344.181L343.25 119.475H397.277Z" fill="#163442"/>
<path fill-rule="evenodd" clip-rule="evenodd" d="M393.103 115.499L394.602 116.919H341.635L340.717 115.499H393.103Z" fill="#163442"/>
<path fill-rule="evenodd" clip-rule="evenodd" d="M388.928 111.522L390.401 112.916H339.089L338.197 111.522H388.928Z" fill="#163442"/>
<path fill-rule="evenodd" clip-rule="evenodd" d="M384.753 107.545L386.2 108.913H323.384L322.687 107.545H384.753Z" fill="#163442"/>
<path fill-rule="evenodd" clip-rule="evenodd" d="M380.578 103.568L382 104.911H321.343L320.658 103.568H380.578Z" fill="#163442"/>
<path fill-rule="evenodd" clip-rule="evenodd" d="M376.403 99.5908L377.799 100.908H330.584L329.757 99.5908H376.403Z" fill="#163442"/>
<path fill-rule="evenodd" clip-rule="evenodd" d="M372.228 95.6139L373.599 96.9051H328.076L327.262 95.6139H372.228Z" fill="#163442"/>
<path fill-rule="evenodd" clip-rule="evenodd" d="M368.067 91.637L369.385 92.9024H325.569L324.781 91.637H368.067Z" fill="#163442"/>
<path fill-rule="evenodd" clip-rule="evenodd" d="M363.892 87.6601L365.184 88.8996H323.062L322.286 87.6601H363.892Z" fill="#163442"/>
<path fill-rule="evenodd" clip-rule="evenodd" d="M359.717 83.6832L360.984 84.8969H320.554L319.792 83.6832H359.717Z" fill="#163442"/>
<path fill-rule="evenodd" clip-rule="evenodd" d="M355.542 79.7062L356.783 80.8942H318.047L317.31 79.7062H355.542Z" fill="#163442"/>
<path fill-rule="evenodd" clip-rule="evenodd" d="M351.368 75.7293L352.582 76.8914H315.539L314.815 75.7293H351.368Z" fill="#163442"/>
<path fill-rule="evenodd" clip-rule="evenodd" d="M347.193 71.7524L348.382 72.8887H313.032L312.321 71.7524H347.193Z" fill="#163442"/>
<path fill-rule="evenodd" clip-rule="evenodd" d="M146.867 264.982L246.028 70.8227L274.98 70.8357L303.945 70.8227L403.094 264.982H146.867Z" fill="url(#paint0_linear)"/>
<path d="M318.306 55.5219H231.643V62.1846H318.306V55.5219Z" fill="#4494A7"/>
<path fill-rule="evenodd" clip-rule="evenodd" d="M233.22 70.8356H316.742L318.318 62.1846H231.643L233.22 70.8356Z" fill="url(#paint1_linear)"/>
<path fill-rule="evenodd" clip-rule="evenodd" d="M213.147 135.306L211.583 138.082H258.463C258.385 137.423 258.346 136.765 258.346 136.08V136.067V136.055V135.732V135.719V135.706V135.693V135.68V135.628V135.616V135.603V135.59V135.577V135.564V135.551V135.499V135.486V135.473V135.461V135.383V135.37V135.331V135.319V135.306V135.293V135.28H213.147V135.306ZM230.661 100.908L229.95 102.289H261.616L261.707 102.135L261.72 102.109L261.733 102.083L261.746 102.07V102.057L261.81 101.941L261.823 101.915L261.836 101.889L261.849 101.863L261.862 101.838V101.825L261.875 101.812L261.888 101.786L261.901 101.76L261.914 101.734L261.94 101.695L261.952 101.67L261.965 101.644L261.978 101.618L262.004 101.579L262.017 101.553L262.03 101.528L262.043 101.502L262.056 101.476L262.069 101.45L262.082 101.424L262.095 101.399L262.133 101.334L262.146 101.308L262.159 101.282L262.172 101.256L262.185 101.231L262.198 101.205L262.211 101.179L262.224 101.153L262.263 101.089L262.276 101.063L262.288 101.037L262.301 101.011L262.314 100.985L262.327 100.96L262.405 100.856L262.418 100.83L262.431 100.805L262.444 100.779L262.457 100.753H230.661V100.908ZM240.083 82.4823L239.54 83.3345H263.891L263.904 83.3216L263.917 83.3087L263.93 83.2958L263.943 83.2829L263.956 83.27L263.969 83.2571L263.982 83.2441L263.995 83.2312L264.008 83.2183L264.02 83.2054L264.033 83.1925V83.1796L264.046 83.1667L264.059 83.1538L264.072 83.1408L264.085 83.1279L264.098 83.115L264.111 83.1021L264.124 83.0892L264.137 83.0763L264.15 83.0634L264.163 83.0505L264.176 83.0375L264.201 83.0117L264.214 82.9988L264.227 82.9859L264.24 82.973L264.253 82.9601L264.266 82.9472L264.279 82.9343L264.292 82.9213L264.305 82.9084L264.318 82.8955L264.331 82.8826L264.344 82.8697L264.357 82.8568L264.369 82.8439L264.382 82.831L264.395 82.818L264.408 82.8051L264.421 82.7922L264.434 82.7793L264.447 82.7664L264.46 82.7535L264.473 82.7406L264.525 82.676L264.537 82.6631L264.447 82.6373L264.46 82.6244L264.486 82.5985L264.499 82.5856L264.512 82.5598L264.525 82.5469L264.537 82.534L264.55 82.5211L264.563 82.5082L264.576 82.4952H240.083V82.4823ZM309.788 82.4823L310.331 83.3345H285.864L285.851 83.3216L285.838 83.3087L285.825 83.2958L285.812 83.2829L285.799 83.27L285.786 83.2571L285.773 83.2441L285.76 83.2312L285.747 83.2183L285.735 83.2054L285.722 83.1925V83.1796L285.709 83.1667L285.696 83.1538L285.683 83.1408L285.67 83.1279L285.657 83.115L285.644 83.1021L285.631 83.0892L285.618 83.0763L285.644 83.0634V83.0505L285.631 83.0375L285.605 83.0117L285.592 82.9988L285.579 82.9859L285.567 82.973L285.554 82.9601L285.541 82.9472L285.528 82.9343L285.515 82.9213L285.502 82.9084L285.489 82.8955L285.476 82.8826L285.463 82.8697L285.45 82.8568L285.437 82.8439L285.424 82.831L285.411 82.818L285.398 82.8051L285.386 82.7922L285.373 82.7793L285.36 82.7664L285.347 82.7535L285.334 82.7406L285.282 82.676L285.269 82.6631L285.308 82.6373L285.295 82.6244L285.269 82.5985L285.256 82.5856L285.243 82.5598L285.23 82.5469L285.218 82.534L285.205 82.5211L285.192 82.5082L285.179 82.4952H309.788V82.4823ZM319.327 100.908L320.025 102.289H288.126L288.035 102.135L288.022 102.109L288.009 102.083L287.996 102.07V102.057L287.893 101.876L287.88 101.85V101.838L287.867 101.825L287.854 101.799L287.777 101.67L287.764 101.644L287.751 101.618L287.738 101.605L287.725 101.579L287.712 101.553L287.699 101.528L287.686 101.502L287.673 101.476L287.66 101.45L287.647 101.424L287.635 101.399L287.622 101.386L287.609 101.36L287.596 101.334L287.583 101.308L287.57 101.282L287.557 101.256L287.544 101.231L287.531 101.205L287.518 101.179L287.505 101.153L287.492 101.14L287.479 101.127L287.467 101.102L287.454 101.076L287.441 101.05L287.428 101.024L287.415 100.998L287.402 100.972L287.389 100.947L287.376 100.921L287.363 100.895L287.35 100.882L287.337 100.856L287.324 100.83L287.311 100.805L287.298 100.779L287.286 100.753H319.327V100.908ZM336.931 135.293L338.288 138.082H291.292C291.37 137.423 291.409 136.765 291.409 136.08V136.067V136.055C291.409 135.938 291.409 135.822 291.409 135.719V135.706V135.693V135.68V135.667V135.654V135.641V135.628V135.616V135.603L291.396 135.344V135.331V135.319V135.306H336.931V135.293Z" fill="#1C272C"/>
<path fill-rule="evenodd" clip-rule="evenodd" d="M274.877 155.681C290.038 155.681 302.317 167.96 302.317 183.093C302.317 187.703 301.18 192.028 299.177 195.837H250.578C248.575 192.028 247.438 187.69 247.438 183.093C247.438 167.96 259.716 155.681 274.877 155.681Z" fill="url(#paint2_linear)"/>
<path fill-rule="evenodd" clip-rule="evenodd" d="M272.098 183.623L247.709 186.954L247.67 186.67L272.059 183.351C272.059 183.442 272.072 183.532 272.098 183.623ZM272.047 183.248H247.424V182.964H272.047C272.047 183.016 272.047 183.054 272.047 183.106C272.047 183.145 272.047 183.197 272.047 183.248ZM277.708 182.951H302.33V183.235H277.708C277.708 183.184 277.708 183.145 277.708 183.093C277.708 183.054 277.708 183.003 277.708 182.951ZM277.708 183.313L302.136 186.36L302.097 186.644L277.669 183.597C277.682 183.506 277.695 183.403 277.708 183.313ZM277.63 183.778C277.604 183.868 277.578 183.958 277.553 184.049L301.115 191.176L301.193 190.905L277.63 183.778ZM277.475 184.242C277.436 184.333 277.398 184.41 277.346 184.501L299.37 195.489L299.499 195.231L277.475 184.242ZM277.242 184.656C277.191 184.733 277.139 184.811 277.074 184.888L292.184 195.967L292.352 195.734L277.242 184.656ZM276.945 185.03C276.881 185.095 276.816 185.159 276.738 185.224L287.104 195.941L287.311 195.747L276.945 185.03ZM276.583 185.353C276.506 185.404 276.428 185.469 276.351 185.508L283.459 195.928L283.692 195.773L276.583 185.353ZM276.183 185.611C276.105 185.65 276.015 185.689 275.924 185.727L280.59 195.902L280.849 195.786L276.183 185.611ZM275.743 185.792C275.653 185.818 275.562 185.843 275.472 185.869L278.134 195.889L278.406 195.812L275.743 185.792ZM275.278 185.908L276.183 195.837L275.898 195.863L274.993 185.934C275.084 185.921 275.187 185.921 275.278 185.908ZM274.8 185.934L274.011 195.863L273.727 195.837L274.515 185.908C274.606 185.921 274.696 185.921 274.8 185.934ZM274.321 185.869C274.231 185.856 274.14 185.831 274.05 185.805L271.504 195.812L271.775 195.876L274.321 185.869ZM273.856 185.74C273.766 185.701 273.675 185.663 273.598 185.624L269.074 195.786L269.332 195.902L273.856 185.74ZM273.43 185.534C273.352 185.482 273.274 185.43 273.197 185.379L266.269 195.773L266.502 195.928L273.43 185.534ZM273.042 185.25C272.964 185.185 272.9 185.12 272.835 185.056L262.715 195.747L262.921 195.941L273.042 185.25ZM272.706 184.914C272.641 184.836 272.589 184.759 272.538 184.681L257.803 195.734L257.971 195.967L272.706 184.914ZM272.421 184.514C272.37 184.436 272.331 184.346 272.292 184.255L250.397 195.489L250.526 195.747L272.421 184.514ZM272.228 184.087C272.189 183.997 272.163 183.907 272.137 183.816L248.652 191.202L248.743 191.473L272.228 184.087Z" fill="#1C272C"/>
<path fill-rule="evenodd" clip-rule="evenodd" d="M274.877 159.529C287.906 159.529 298.466 170.078 298.466 183.093H282.658V160.846C281.805 160.549 280.939 160.303 280.06 160.097V183.093H277.708C277.708 182.448 277.488 181.841 277.113 181.363V159.632C276.377 159.567 275.64 159.529 274.877 159.529C261.849 159.529 251.289 170.078 251.289 183.093H267.096V160.846C267.949 160.549 268.815 160.303 269.694 160.097V183.093H272.047C272.047 182.448 272.266 181.841 272.641 181.363V159.632C273.378 159.567 274.115 159.529 274.877 159.529Z" fill="#202020"/>
<path fill-rule="evenodd" clip-rule="evenodd" d="M274.877 185.934C276.441 185.934 277.708 184.669 277.708 183.106C277.708 181.544 276.441 180.278 274.877 180.278C273.314 180.278 272.047 181.544 272.047 183.106C272.047 184.669 273.314 185.934 274.877 185.934Z" fill="#57A1CB"/>
<path fill-rule="evenodd" clip-rule="evenodd" d="M274.877 180.123C275.704 180.123 276.441 180.459 276.984 180.989C277.527 181.531 277.85 182.267 277.85 183.093C277.85 183.92 277.514 184.656 276.984 185.198C276.441 185.74 275.704 186.063 274.877 186.063C274.063 186.063 273.313 185.727 272.77 185.198C272.227 184.656 271.904 183.92 271.904 183.093C271.904 182.267 272.24 181.531 272.77 180.989C273.313 180.459 274.05 180.123 274.877 180.123ZM276.777 181.195C276.286 180.704 275.614 180.408 274.877 180.408C274.14 180.408 273.455 180.704 272.977 181.195C272.486 181.686 272.189 182.357 272.189 183.093C272.189 183.829 272.486 184.514 272.977 184.991C273.468 185.482 274.14 185.779 274.877 185.779C275.614 185.779 276.299 185.482 276.777 184.991C277.268 184.501 277.565 183.829 277.565 183.093C277.565 182.357 277.268 181.686 276.777 181.195Z" fill="#1C272C"/>
<path fill-rule="evenodd" clip-rule="evenodd" d="M274.877 184.94C275.898 184.94 276.725 184.113 276.725 183.093C276.725 182.073 275.898 181.247 274.877 181.247C273.856 181.247 273.029 182.073 273.029 183.093C273.029 184.113 273.856 184.94 274.877 184.94Z" fill="#202020"/>
<path fill-rule="evenodd" clip-rule="evenodd" d="M271.375 14.1516H273.456V7.86345H271.336V0L274.981 3.69285L278.626 0V7.86345H276.506V14.1516H278.587V55.5219H271.375V14.1516Z" fill="#434242"/>
<path fill-rule="evenodd" clip-rule="evenodd" d="M274.877 79.2672C278.483 79.2672 281.714 80.8425 283.925 83.3345H265.83C268.04 80.8425 271.271 79.2672 274.877 79.2672Z" fill="#1C272C"/>
<path fill-rule="evenodd" clip-rule="evenodd" d="M274.877 121.89C282.723 121.89 289.082 128.243 289.082 136.08C289.082 136.765 289.03 137.423 288.94 138.082H260.802C260.711 137.423 260.66 136.765 260.66 136.08C260.673 128.243 267.032 121.89 274.877 121.89Z" fill="#1C272C"/>
<path fill-rule="evenodd" clip-rule="evenodd" d="M326.577 115.318H322.209V115.124V115.292L321.123 112.929H325.35L324.665 111.599H309.478V111.664L308.857 109.055H308.405L306.918 135.306H309.478V112.942H320.49L319.21 135.306H322.196V116.661H327.237L326.577 115.318ZM305.083 88.8609L304.45 87.7505H304.204L303.183 100.908H305.083V89.4161H313.174L312.282 100.908H314.493V91.6499L313.071 88.8609H305.083ZM305.083 88.8609V88.8222V88.8609ZM309.503 111.677V112.942V111.677ZM317.814 151.872L317 146.823H316.431L312.166 195.85H317.814V153.395H334.681L331.14 195.85H337.809V159.826H349.313L348.537 158.302H337.809L335.25 153.395H346.043L345.267 151.872H317.814ZM317.814 151.872V151.743V151.872Z" fill="#1C272C"/>
<path fill-rule="evenodd" clip-rule="evenodd" d="M372.41 210.751L365.702 195.85H201.941L195.22 210.751H372.41Z" fill="#0A5E7D"/>
<path fill-rule="evenodd" clip-rule="evenodd" d="M399.384 235.503L402.047 235.736C402.047 223.676 393.413 213.889 382.75 213.889C376.158 213.889 370.174 217.685 366.671 223.65C363.168 217.672 357.184 213.889 350.592 213.889C344 213.889 338.016 217.685 334.513 223.65C331.011 217.672 325.026 213.889 318.435 213.889C311.843 213.889 305.859 217.685 302.356 223.65C298.853 217.672 292.869 213.889 286.277 213.889C279.685 213.889 273.701 217.685 270.198 223.65C266.696 217.672 260.711 213.889 254.12 213.889C247.528 213.889 241.543 217.685 238.041 223.65C234.538 217.672 228.554 213.889 221.962 213.889C215.37 213.889 209.386 217.685 205.883 223.65C202.381 217.672 196.396 213.889 189.804 213.889C179.154 213.889 170.507 223.676 170.507 235.736C170.507 247.796 179.154 257.583 189.804 257.583L189.249 254.562C180.317 254.239 173.17 245.936 173.17 235.736C173.17 225.329 180.615 216.897 189.804 216.897C197.521 216.897 204.009 222.85 205.883 230.907C207.77 222.837 214.246 216.897 221.962 216.897C229.678 216.897 236.167 222.85 238.041 230.907C239.928 222.837 246.403 216.897 254.12 216.897C261.836 216.897 268.324 222.85 270.198 230.907C272.085 222.837 278.561 216.897 286.277 216.897C293.993 216.897 300.482 222.85 302.356 230.907C304.243 222.837 310.718 216.897 318.435 216.897C326.151 216.897 332.639 222.85 334.513 230.907C336.4 222.837 342.889 216.897 350.592 216.897C358.308 216.897 364.797 222.85 366.671 230.907C368.558 222.837 375.033 216.897 382.75 216.897C391.875 216.897 399.281 225.2 399.384 235.503Z" fill="#57A1CB"/>
<path fill-rule="evenodd" clip-rule="evenodd" d="M394.951 222.914C391.914 219.208 387.571 216.884 382.763 216.884C377.942 216.884 373.612 219.208 370.574 222.914L375.874 233.502H382.763H389.652L394.951 222.914Z" fill="#29566E"/>
<path fill-rule="evenodd" clip-rule="evenodd" d="M362.78 222.914C359.743 219.208 355.4 216.884 350.592 216.884C345.771 216.884 341.441 219.208 338.404 222.914L343.703 233.502H350.592H357.481L362.78 222.914Z" fill="#29566E"/>
<path fill-rule="evenodd" clip-rule="evenodd" d="M330.623 222.914C327.585 219.208 323.243 216.884 318.434 216.884C313.613 216.884 309.283 219.208 306.246 222.914L311.545 233.502H318.434H325.323L330.623 222.914Z" fill="#29566E"/>
<path fill-rule="evenodd" clip-rule="evenodd" d="M298.452 222.914C295.415 219.208 291.072 216.884 286.264 216.884C281.443 216.884 277.113 219.208 274.076 222.914L279.375 233.502H286.264H293.153L298.452 222.914Z" fill="#29566E"/>
<path fill-rule="evenodd" clip-rule="evenodd" d="M266.282 222.914C263.245 219.208 258.902 216.884 254.094 216.884C249.273 216.884 244.943 219.208 241.905 222.914L247.205 233.502H254.094H260.983L266.282 222.914Z" fill="#29566E"/>
<path fill-rule="evenodd" clip-rule="evenodd" d="M234.124 222.914C231.087 219.208 226.744 216.884 221.936 216.884C217.115 216.884 212.785 219.208 209.748 222.914L215.047 233.502H221.936H228.825L234.124 222.914Z" fill="#29566E"/>
<path fill-rule="evenodd" clip-rule="evenodd" d="M201.954 222.914C198.917 219.208 194.574 216.884 189.766 216.884C184.945 216.884 180.615 219.208 177.578 222.914L182.877 233.502H189.766H196.655L201.954 222.914Z" fill="#29566E"/>
<path fill-rule="evenodd" clip-rule="evenodd" d="M205.844 273L205.289 269.979C196.357 269.656 189.21 261.353 189.21 251.153C189.21 240.746 196.655 232.314 205.844 232.314C213.561 232.314 220.049 238.267 221.923 246.324C223.81 238.254 230.286 232.314 238.002 232.314C245.718 232.314 252.207 238.267 254.081 246.324C255.968 238.254 262.456 232.314 270.16 232.314C277.876 232.314 284.364 238.267 286.238 246.324C288.125 238.254 294.601 232.314 302.317 232.314C310.033 232.314 316.522 238.267 318.396 246.324C320.283 238.254 326.758 232.314 334.475 232.314C342.191 232.314 348.679 238.267 350.553 246.324C352.44 238.254 358.916 232.314 366.632 232.314C374.348 232.314 380.837 238.267 382.711 246.324C384.598 238.254 391.074 232.314 398.79 232.314C407.902 232.314 415.308 240.617 415.424 250.92L418.087 251.153C418.087 239.093 409.453 229.306 398.79 229.306C392.198 229.306 386.214 233.102 382.711 239.067C379.208 233.089 373.224 229.306 366.632 229.306C360.04 229.306 354.056 233.102 350.553 239.067C347.051 233.089 341.066 229.306 334.475 229.306C327.883 229.306 321.899 233.102 318.396 239.067C314.893 233.089 308.909 229.306 302.317 229.306C295.725 229.306 289.741 233.102 286.238 239.067C282.736 233.089 276.751 229.306 270.16 229.306C263.568 229.306 257.583 233.102 254.081 239.067C250.578 233.089 244.594 229.306 238.002 229.306C231.41 229.306 225.426 233.102 221.923 239.067C218.421 233.089 212.436 229.306 205.844 229.306C195.194 229.306 186.547 239.093 186.547 251.153C186.547 263.213 195.194 273 205.844 273Z" fill="#57A1CB"/>
<path fill-rule="evenodd" clip-rule="evenodd" d="M314.531 238.344C311.494 234.638 307.151 232.314 302.343 232.314C297.522 232.314 293.192 234.638 290.155 238.344L295.157 248.932H302.343H309.529L314.531 238.344Z" fill="#29566E"/>
<path fill-rule="evenodd" clip-rule="evenodd" d="M282.374 238.344C279.336 234.638 274.994 232.314 270.185 232.314C265.364 232.314 261.034 234.638 257.997 238.344L262.999 248.932H270.185H277.372L282.374 238.344Z" fill="#29566E"/>
<path fill-rule="evenodd" clip-rule="evenodd" d="M250.203 238.344C247.166 234.638 242.823 232.314 238.015 232.314C233.194 232.314 228.864 234.638 225.827 238.344L230.829 248.932H238.015H245.201L250.203 238.344Z" fill="#29566E"/>
<path fill-rule="evenodd" clip-rule="evenodd" d="M218.033 238.344C214.996 234.638 210.653 232.314 205.845 232.314C201.024 232.314 196.694 234.638 193.656 238.344L198.658 248.932H205.845H213.031L218.033 238.344Z" fill="#29566E"/>
<path fill-rule="evenodd" clip-rule="evenodd" d="M411.03 238.344C407.992 234.638 403.649 232.314 398.841 232.314C394.02 232.314 389.69 234.638 386.653 238.344L391.655 248.932H398.841H406.028L411.03 238.344Z" fill="#29566E"/>
<path fill-rule="evenodd" clip-rule="evenodd" d="M378.872 238.344C375.835 234.638 371.492 232.314 366.684 232.314C361.863 232.314 357.533 234.638 354.496 238.344L359.498 248.932H366.684H373.87L378.872 238.344Z" fill="#29566E"/>
<path fill-rule="evenodd" clip-rule="evenodd" d="M346.702 238.344C343.664 234.638 339.322 232.314 334.514 232.314C329.692 232.314 325.363 234.638 322.325 238.344L327.327 248.932H334.514H341.7L346.702 238.344Z" fill="#29566E"/>
<path fill-rule="evenodd" clip-rule="evenodd" d="M398.841 252.018C400.534 252.018 401.917 250.456 401.917 248.532C401.917 246.608 400.534 245.045 398.841 245.045C397.148 245.045 395.765 246.608 395.765 248.532C395.765 250.456 397.148 252.018 398.841 252.018Z" fill="#57A1CB"/>
<path fill-rule="evenodd" clip-rule="evenodd" d="M366.671 252.018C368.364 252.018 369.747 250.456 369.747 248.532C369.747 246.608 368.364 245.045 366.671 245.045C364.978 245.045 363.595 246.608 363.595 248.532C363.595 250.456 364.978 252.018 366.671 252.018Z" fill="#57A1CB"/>
<path fill-rule="evenodd" clip-rule="evenodd" d="M334.513 252.018C336.206 252.018 337.589 250.456 337.589 248.532C337.589 246.608 336.206 245.045 334.513 245.045C332.82 245.045 331.437 246.608 331.437 248.532C331.437 250.456 332.82 252.018 334.513 252.018Z" fill="#57A1CB"/>
<path fill-rule="evenodd" clip-rule="evenodd" d="M302.343 252.018C304.036 252.018 305.419 250.456 305.419 248.532C305.419 246.608 304.036 245.045 302.343 245.045C300.65 245.045 299.267 246.608 299.267 248.532C299.267 250.456 300.65 252.018 302.343 252.018Z" fill="#57A1CB"/>
<path fill-rule="evenodd" clip-rule="evenodd" d="M270.172 252.018C271.866 252.018 273.249 250.456 273.249 248.532C273.249 246.608 271.866 245.045 270.172 245.045C268.479 245.045 267.096 246.608 267.096 248.532C267.096 250.456 268.479 252.018 270.172 252.018Z" fill="#57A1CB"/>
<path fill-rule="evenodd" clip-rule="evenodd" d="M238.015 252.018C239.708 252.018 241.091 250.456 241.091 248.532C241.091 246.608 239.708 245.045 238.015 245.045C236.321 245.045 234.938 246.608 234.938 248.532C234.938 250.456 236.321 252.018 238.015 252.018Z" fill="#57A1CB"/>
<path fill-rule="evenodd" clip-rule="evenodd" d="M205.844 252.018C207.537 252.018 208.92 250.456 208.92 248.532C208.92 246.608 207.537 245.045 205.844 245.045C204.151 245.045 202.768 246.608 202.768 248.532C202.768 250.456 204.151 252.018 205.844 252.018Z" fill="#57A1CB"/>
<path fill-rule="evenodd" clip-rule="evenodd" d="M189.766 235.026C191.459 235.026 192.842 233.463 192.842 231.539C192.842 229.615 191.459 228.053 189.766 228.053C188.073 228.053 186.69 229.615 186.69 231.539C186.69 233.463 188.073 235.026 189.766 235.026Z" fill="#57A1CB"/>
<path fill-rule="evenodd" clip-rule="evenodd" d="M382.763 235.026C384.456 235.026 385.839 233.463 385.839 231.539C385.839 229.615 384.456 228.053 382.763 228.053C381.07 228.053 379.687 229.615 379.687 231.539C379.687 233.463 381.07 235.026 382.763 235.026Z" fill="#57A1CB"/>
<path fill-rule="evenodd" clip-rule="evenodd" d="M350.592 235.026C352.285 235.026 353.668 233.463 353.668 231.539C353.668 229.615 352.285 228.053 350.592 228.053C348.899 228.053 347.516 229.615 347.516 231.539C347.516 233.463 348.899 235.026 350.592 235.026Z" fill="#57A1CB"/>
<path fill-rule="evenodd" clip-rule="evenodd" d="M318.421 235.026C320.115 235.026 321.498 233.463 321.498 231.539C321.498 229.615 320.115 228.053 318.421 228.053C316.728 228.053 315.345 229.615 315.345 231.539C315.345 233.463 316.728 235.026 318.421 235.026Z" fill="#57A1CB"/>
<path fill-rule="evenodd" clip-rule="evenodd" d="M286.264 235.026C287.957 235.026 289.34 233.463 289.34 231.539C289.34 229.615 287.957 228.053 286.264 228.053C284.571 228.053 283.188 229.615 283.188 231.539C283.188 233.463 284.571 235.026 286.264 235.026Z" fill="#57A1CB"/>
<path fill-rule="evenodd" clip-rule="evenodd" d="M254.094 235.026C255.787 235.026 257.17 233.463 257.17 231.539C257.17 229.615 255.787 228.053 254.094 228.053C252.401 228.053 251.018 229.615 251.018 231.539C251.018 233.463 252.401 235.026 254.094 235.026Z" fill="#57A1CB"/>
<path fill-rule="evenodd" clip-rule="evenodd" d="M221.923 235.026C223.616 235.026 224.999 233.463 224.999 231.539C224.999 229.615 223.616 228.053 221.923 228.053C220.23 228.053 218.847 229.615 218.847 231.539C218.847 233.463 220.23 235.026 221.923 235.026Z" fill="#57A1CB"/>
<path d="M398.841 250.753C399.919 250.753 400.793 249.758 400.793 248.532C400.793 247.305 399.919 246.311 398.841 246.311C397.763 246.311 396.89 247.305 396.89 248.532C396.89 249.758 397.763 250.753 398.841 250.753Z" fill="#202020"/>
<path fill-rule="evenodd" clip-rule="evenodd" d="M366.671 250.753C367.744 250.753 368.623 249.758 368.623 248.532C368.623 247.305 367.744 246.311 366.671 246.311C365.598 246.311 364.719 247.305 364.719 248.532C364.719 249.758 365.598 250.753 366.671 250.753Z" fill="#202020"/>
<path d="M334.513 250.753C335.591 250.753 336.465 249.758 336.465 248.532C336.465 247.305 335.591 246.311 334.513 246.311C333.435 246.311 332.562 247.305 332.562 248.532C332.562 249.758 333.435 250.753 334.513 250.753Z" fill="#202020"/>
<path fill-rule="evenodd" clip-rule="evenodd" d="M302.343 250.753C303.416 250.753 304.294 249.758 304.294 248.532C304.294 247.305 303.416 246.311 302.343 246.311C301.27 246.311 300.391 247.305 300.391 248.532C300.391 249.758 301.27 250.753 302.343 250.753Z" fill="#202020"/>
<path d="M270.172 250.753C271.25 250.753 272.124 249.758 272.124 248.532C272.124 247.305 271.25 246.311 270.172 246.311C269.094 246.311 268.221 247.305 268.221 248.532C268.221 249.758 269.094 250.753 270.172 250.753Z" fill="#202020"/>
<path fill-rule="evenodd" clip-rule="evenodd" d="M238.015 250.753C239.088 250.753 239.966 249.758 239.966 248.532C239.966 247.305 239.088 246.311 238.015 246.311C236.942 246.311 236.063 247.305 236.063 248.532C236.05 249.758 236.929 250.753 238.015 250.753Z" fill="#202020"/>
<path fill-rule="evenodd" clip-rule="evenodd" d="M205.844 250.753C206.917 250.753 207.796 249.758 207.796 248.532C207.796 247.305 206.917 246.311 205.844 246.311C204.771 246.311 203.893 247.305 203.893 248.532C203.893 249.758 204.771 250.753 205.844 250.753Z" fill="#202020"/>
<path fill-rule="evenodd" clip-rule="evenodd" d="M382.763 233.76C383.836 233.76 384.715 232.766 384.715 231.539C384.715 230.313 383.836 229.318 382.763 229.318C381.69 229.318 380.811 230.313 380.811 231.539C380.798 232.766 381.677 233.76 382.763 233.76Z" fill="#202020"/>
<path fill-rule="evenodd" clip-rule="evenodd" d="M350.592 233.76C351.665 233.76 352.544 232.766 352.544 231.539C352.544 230.313 351.665 229.318 350.592 229.318C349.52 229.318 348.641 230.313 348.641 231.539C348.641 232.766 349.52 233.76 350.592 233.76Z" fill="#202020"/>
<path fill-rule="evenodd" clip-rule="evenodd" d="M318.422 233.76C319.495 233.76 320.374 232.766 320.374 231.539C320.374 230.313 319.495 229.318 318.422 229.318C317.349 229.318 316.47 230.313 316.47 231.539C316.47 232.766 317.349 233.76 318.422 233.76Z" fill="#202020"/>
<path fill-rule="evenodd" clip-rule="evenodd" d="M286.264 233.76C287.337 233.76 288.216 232.766 288.216 231.539C288.216 230.313 287.337 229.318 286.264 229.318C285.192 229.318 284.313 230.313 284.313 231.539C284.3 232.766 285.179 233.76 286.264 233.76Z" fill="#202020"/>
<path fill-rule="evenodd" clip-rule="evenodd" d="M254.094 233.76C255.167 233.76 256.045 232.766 256.045 231.539C256.045 230.313 255.167 229.318 254.094 229.318C253.021 229.318 252.142 230.313 252.142 231.539C252.142 232.766 253.021 233.76 254.094 233.76Z" fill="#202020"/>
<path fill-rule="evenodd" clip-rule="evenodd" d="M221.923 233.76C222.996 233.76 223.875 232.766 223.875 231.539C223.875 230.313 222.996 229.318 221.923 229.318C220.851 229.318 219.972 230.313 219.972 231.539C219.972 232.766 220.851 233.76 221.923 233.76Z" fill="#202020"/>
<path fill-rule="evenodd" clip-rule="evenodd" d="M189.766 233.76C190.839 233.76 191.717 232.766 191.717 231.539C191.717 230.313 190.839 229.318 189.766 229.318C188.693 229.318 187.814 230.313 187.814 231.539C187.801 232.766 188.68 233.76 189.766 233.76Z" fill="#202020"/>
<path fill-rule="evenodd" clip-rule="evenodd" d="M174.605 235.736C174.605 226.258 181.39 218.576 189.753 218.576C196.021 218.576 201.592 222.94 203.841 229.422C204.345 229.357 204.862 229.331 205.392 229.318C203.078 222.075 196.952 216.91 189.753 216.91C180.563 216.91 173.118 225.342 173.118 235.749H174.605V235.736ZM207.835 229.422C210.097 222.94 215.667 218.576 221.923 218.576C228.192 218.576 233.763 222.94 236.012 229.422C236.529 229.357 237.033 229.331 237.563 229.318C235.249 222.075 229.122 216.91 221.923 216.91C214.724 216.91 208.597 222.088 206.284 229.318C206.801 229.318 207.318 229.357 207.835 229.422ZM240.005 229.422C242.267 222.94 247.838 218.576 254.094 218.576C260.362 218.576 265.933 222.94 268.182 229.422C268.686 229.357 269.203 229.331 269.733 229.318C267.419 222.075 261.293 216.91 254.094 216.91C246.894 216.91 240.768 222.088 238.454 229.318C238.971 229.318 239.488 229.357 240.005 229.422ZM272.163 229.422C274.425 222.94 279.995 218.576 286.251 218.576C292.52 218.576 298.091 222.94 300.34 229.422C300.857 229.357 301.361 229.331 301.891 229.318C299.577 222.075 293.45 216.91 286.251 216.91C279.052 216.91 272.925 222.088 270.612 229.318C271.142 229.318 271.659 229.357 272.163 229.422ZM304.333 229.422C306.595 222.94 312.153 218.576 318.422 218.576C324.69 218.576 330.261 222.94 332.51 229.422C333.014 229.357 333.531 229.331 334.061 229.318C331.747 222.075 325.621 216.91 318.422 216.91C311.222 216.91 305.096 222.088 302.782 229.318C303.299 229.318 303.816 229.357 304.333 229.422ZM336.504 229.422C338.766 222.94 344.336 218.576 350.592 218.576C356.861 218.576 362.431 222.94 364.68 229.422C365.197 229.357 365.702 229.331 366.231 229.318C363.918 222.075 357.791 216.91 350.592 216.91C343.393 216.91 337.266 222.088 334.953 229.318C335.47 229.318 335.987 229.357 336.504 229.422ZM368.661 229.422C370.923 222.94 376.494 218.576 382.75 218.576C389.148 218.576 394.615 223.069 396.838 229.422C397.342 229.357 397.859 229.331 398.389 229.306C396.075 222.062 389.949 216.897 382.75 216.897C375.55 216.897 369.424 222.075 367.11 229.306C367.64 229.318 368.157 229.357 368.661 229.422Z" fill="#2B2A29"/>
<path fill-rule="evenodd" clip-rule="evenodd" d="M158.526 251.153C158.526 241.675 165.312 233.993 173.674 233.993C180.537 233.993 186.573 239.235 188.331 246.75L188.822 248.867H190.696L191.188 246.75C192.945 239.235 198.969 233.993 205.845 233.993C212.708 233.993 218.744 239.235 220.502 246.75L220.993 248.867H222.867L223.358 246.75C225.116 239.235 231.139 233.993 238.015 233.993C244.878 233.993 250.914 239.235 252.672 246.75L253.163 248.867H255.037L255.529 246.75C257.286 239.235 263.309 233.993 270.186 233.993C277.049 233.993 283.085 239.235 284.843 246.75L285.334 248.867H287.208L287.699 246.75C289.457 239.235 295.48 233.993 302.356 233.993C309.219 233.993 315.255 239.235 317.013 246.75L317.504 248.867H319.378L319.87 246.75C321.627 239.235 327.65 233.993 334.527 233.993C341.39 233.993 347.426 239.235 349.184 246.75L349.675 248.867H351.549L352.04 246.75C353.798 239.235 359.821 233.993 366.697 233.993C374.375 233.993 380.734 240.462 381.716 248.88H383.202C382.207 239.545 375.202 232.314 366.697 232.314C358.981 232.314 352.492 238.267 350.618 246.324C348.731 238.254 342.256 232.314 334.539 232.314C326.823 232.314 320.335 238.267 318.461 246.324C316.574 238.254 310.098 232.314 302.382 232.314C294.666 232.314 288.177 238.267 286.303 246.324C284.416 238.254 277.941 232.314 270.224 232.314C262.508 232.314 256.02 238.267 254.146 246.324C252.259 238.254 245.783 232.314 238.067 232.314C230.351 232.314 223.862 238.267 221.988 246.324C220.101 238.254 213.626 232.314 205.909 232.314C198.193 232.314 191.705 238.267 189.831 246.324C187.943 238.254 181.455 232.314 173.752 232.314C164.562 232.314 157.117 240.746 157.117 251.153H158.526Z" fill="#2B2A29"/>
<path fill-rule="evenodd" clip-rule="evenodd" d="M223.319 115.318H227.894V115.124V115.292L228.98 112.929H224.534L225.219 111.599H240.613V111.664L241.233 109.055H241.686L243.172 135.306H240.613V112.942H229.601L230.88 135.306H227.894V116.661H222.634L223.319 115.318ZM245.033 88.8609L245.666 87.7505H245.912L246.933 100.908H245.033V89.4161H236.942L237.834 100.908H235.624V91.6241H235.43L236.839 88.8609H245.033ZM245.033 88.8609V88.8222V88.8609ZM240.613 111.677V112.942V111.677ZM232.302 151.872L233.116 146.823H233.685L237.95 195.85H232.302V153.395H215.435L218.976 195.85H212.307V159.826H200.648L201.062 158.909L201.372 158.302H212.307L214.866 153.395H203.867L204.642 151.872H232.302ZM232.302 151.872V151.743V151.872Z" fill="#1C272C"/>
<path fill-rule="evenodd" clip-rule="evenodd" d="M177.707 210.751L184.415 195.85H348.188L354.896 210.751H177.707Z" fill="#0A5E7D"/>
<path fill-rule="evenodd" clip-rule="evenodd" d="M150.732 235.503L148.069 235.736C148.069 223.676 156.703 213.889 167.366 213.889C173.958 213.889 179.943 217.685 183.445 223.65C186.948 217.672 192.932 213.889 199.524 213.889C206.116 213.889 212.1 217.685 215.603 223.65C219.105 217.672 225.09 213.889 231.682 213.889C238.273 213.889 244.258 217.685 247.76 223.65C251.263 217.672 257.247 213.889 263.839 213.889C270.431 213.889 276.415 217.685 279.918 223.65C283.421 217.672 289.405 213.889 295.997 213.889C302.588 213.889 308.573 217.685 312.075 223.65C315.578 217.672 321.562 213.889 328.154 213.889C334.746 213.889 340.73 217.685 344.233 223.65C347.736 217.672 353.72 213.889 360.312 213.889C370.962 213.889 379.609 223.676 379.609 235.736C379.609 247.796 370.975 257.583 360.312 257.583L360.868 254.562C369.799 254.239 376.946 245.936 376.946 235.736C376.946 225.329 369.501 216.897 360.312 216.897C352.595 216.897 346.107 222.85 344.233 230.907C342.346 222.837 335.87 216.897 328.154 216.897C320.438 216.897 313.95 222.85 312.075 230.907C310.188 222.837 303.713 216.897 295.997 216.897C288.28 216.897 281.792 222.85 279.918 230.907C278.031 222.837 271.555 216.897 263.839 216.897C256.123 216.897 249.634 222.85 247.76 230.907C245.873 222.837 239.398 216.897 231.682 216.897C223.965 216.897 217.477 222.85 215.603 230.907C213.716 222.837 207.24 216.897 199.524 216.897C191.808 216.897 185.319 222.85 183.445 230.907C181.558 222.837 175.083 216.897 167.366 216.897C158.241 216.897 150.835 225.2 150.732 235.503Z" fill="#57A1CB"/>
<path fill-rule="evenodd" clip-rule="evenodd" d="M155.165 222.914C158.202 219.208 162.545 216.884 167.353 216.884C172.174 216.884 176.504 219.208 179.542 222.914L174.242 233.502H167.353H160.464L155.165 222.914Z" fill="#29566E"/>
<path fill-rule="evenodd" clip-rule="evenodd" d="M187.335 222.914C190.373 219.208 194.716 216.884 199.524 216.884C204.345 216.884 208.675 219.208 211.712 222.914L206.413 233.502H199.524H192.635L187.335 222.914Z" fill="#29566E"/>
<path fill-rule="evenodd" clip-rule="evenodd" d="M219.493 222.914C222.531 219.208 226.873 216.884 231.681 216.884C236.503 216.884 240.832 219.208 243.87 222.914L238.571 233.502H231.681H224.792L219.493 222.914Z" fill="#29566E"/>
<path fill-rule="evenodd" clip-rule="evenodd" d="M251.664 222.914C254.701 219.208 259.044 216.884 263.852 216.884C268.673 216.884 273.003 219.208 276.04 222.914L270.741 233.502H263.852H256.963L251.664 222.914Z" fill="#29566E"/>
<path fill-rule="evenodd" clip-rule="evenodd" d="M283.834 222.914C286.871 219.208 291.214 216.884 296.022 216.884C300.843 216.884 305.173 219.208 308.211 222.914L302.911 233.502H296.022H289.133L283.834 222.914Z" fill="#29566E"/>
<path fill-rule="evenodd" clip-rule="evenodd" d="M315.992 222.914C319.029 219.208 323.372 216.884 328.18 216.884C333.001 216.884 337.331 219.208 340.368 222.914L335.069 233.502H328.18H321.291L315.992 222.914Z" fill="#29566E"/>
<path fill-rule="evenodd" clip-rule="evenodd" d="M348.162 222.914C351.199 219.208 355.542 216.884 360.35 216.884C365.171 216.884 369.501 219.208 372.539 222.914L367.24 233.502H360.35H353.461L348.162 222.914Z" fill="#29566E"/>
<path fill-rule="evenodd" clip-rule="evenodd" d="M344.272 273L344.827 269.979C353.759 269.656 360.906 261.353 360.906 251.153C360.906 240.746 353.461 232.314 344.272 232.314C336.555 232.314 330.067 238.267 328.193 246.324C326.306 238.254 319.817 232.314 312.114 232.314C304.398 232.314 297.909 238.267 296.035 246.324C294.148 238.254 287.673 232.314 279.957 232.314C272.24 232.314 265.752 238.267 263.878 246.324C261.991 238.254 255.515 232.314 247.799 232.314C240.083 232.314 233.594 238.267 231.72 246.324C229.833 238.254 223.358 232.314 215.641 232.314C207.925 232.314 201.437 238.267 199.563 246.324C197.676 238.254 191.2 232.314 183.484 232.314C175.768 232.314 169.279 238.267 167.405 246.324C165.518 238.254 159.043 232.314 151.326 232.314C142.214 232.314 134.808 240.617 134.692 250.92L132.029 251.153C132.029 239.093 140.676 229.306 151.326 229.306C157.918 229.306 163.902 233.102 167.405 239.067C170.908 233.089 176.892 229.306 183.484 229.306C190.076 229.306 196.06 233.102 199.563 239.067C203.065 233.089 209.05 229.306 215.641 229.306C222.233 229.306 228.218 233.102 231.72 239.067C235.223 233.089 241.207 229.306 247.799 229.306C254.391 229.306 260.375 233.102 263.878 239.067C267.381 233.089 273.365 229.306 279.957 229.306C286.548 229.306 292.533 233.102 296.035 239.067C299.538 233.089 305.522 229.306 312.114 229.306C318.706 229.306 324.69 233.102 328.193 239.067C331.696 233.089 337.68 229.306 344.272 229.306C354.922 229.306 363.569 239.093 363.569 251.153C363.569 263.213 354.935 273 344.272 273Z" fill="#57A1CB"/>
<path fill-rule="evenodd" clip-rule="evenodd" d="M235.585 238.344C238.622 234.638 242.965 232.314 247.773 232.314C252.594 232.314 256.924 234.638 259.962 238.344L254.96 248.932H247.773H240.587L235.585 238.344Z" fill="#29566E"/>
<path fill-rule="evenodd" clip-rule="evenodd" d="M267.742 238.344C270.78 234.638 275.122 232.314 279.931 232.314C284.752 232.314 289.081 234.638 292.119 238.344L287.117 248.932H279.931H272.744L267.742 238.344Z" fill="#29566E"/>
<path fill-rule="evenodd" clip-rule="evenodd" d="M299.913 238.344C302.95 234.638 307.293 232.314 312.101 232.314C316.922 232.314 321.252 234.638 324.29 238.344L319.288 248.932H312.101H304.915L299.913 238.344Z" fill="#29566E"/>
<path fill-rule="evenodd" clip-rule="evenodd" d="M332.083 238.344C335.121 234.638 339.464 232.314 344.272 232.314C349.093 232.314 353.423 234.638 356.46 238.344L351.458 248.932H344.272H337.085L332.083 238.344Z" fill="#29566E"/>
<path fill-rule="evenodd" clip-rule="evenodd" d="M139.086 238.344C142.124 234.638 146.467 232.314 151.275 232.314C156.096 232.314 160.426 234.638 163.463 238.344L158.461 248.932H151.275H144.088L139.086 238.344Z" fill="#29566E"/>
<path fill-rule="evenodd" clip-rule="evenodd" d="M171.244 238.344C174.281 234.638 178.624 232.314 183.432 232.314C188.253 232.314 192.583 234.638 195.62 238.344L190.618 248.932H183.432H176.246L171.244 238.344Z" fill="#29566E"/>
<path fill-rule="evenodd" clip-rule="evenodd" d="M203.415 238.344C206.452 234.638 210.795 232.314 215.603 232.314C220.424 232.314 224.754 234.638 227.791 238.344L222.789 248.932H215.603H208.417L203.415 238.344Z" fill="#29566E"/>
<path fill-rule="evenodd" clip-rule="evenodd" d="M151.274 252.018C152.968 252.018 154.351 250.456 154.351 248.532C154.351 246.608 152.968 245.045 151.274 245.045C149.581 245.045 148.198 246.608 148.198 248.532C148.198 250.456 149.581 252.018 151.274 252.018Z" fill="#57A1CB"/>
<path fill-rule="evenodd" clip-rule="evenodd" d="M183.445 252.018C185.138 252.018 186.521 250.456 186.521 248.532C186.521 246.608 185.138 245.045 183.445 245.045C181.752 245.045 180.369 246.608 180.369 248.532C180.369 250.456 181.752 252.018 183.445 252.018Z" fill="#57A1CB"/>
<path fill-rule="evenodd" clip-rule="evenodd" d="M215.603 252.018C217.296 252.018 218.679 250.456 218.679 248.532C218.679 246.608 217.296 245.045 215.603 245.045C213.909 245.045 212.526 246.608 212.526 248.532C212.526 250.456 213.909 252.018 215.603 252.018Z" fill="#57A1CB"/>
<path fill-rule="evenodd" clip-rule="evenodd" d="M247.773 252.018C249.466 252.018 250.849 250.456 250.849 248.532C250.849 246.608 249.466 245.045 247.773 245.045C246.08 245.045 244.697 246.608 244.697 248.532C244.697 250.456 246.08 252.018 247.773 252.018Z" fill="#57A1CB"/>
<path fill-rule="evenodd" clip-rule="evenodd" d="M279.943 252.018C281.636 252.018 283.019 250.456 283.019 248.532C283.019 246.608 281.636 245.045 279.943 245.045C278.25 245.045 276.867 246.608 276.867 248.532C276.867 250.456 278.25 252.018 279.943 252.018Z" fill="#57A1CB"/>
<path fill-rule="evenodd" clip-rule="evenodd" d="M312.101 252.018C313.794 252.018 315.177 250.456 315.177 248.532C315.177 246.608 313.794 245.045 312.101 245.045C310.408 245.045 309.025 246.608 309.025 248.532C309.025 250.456 310.408 252.018 312.101 252.018Z" fill="#57A1CB"/>
<path fill-rule="evenodd" clip-rule="evenodd" d="M344.271 252.018C345.965 252.018 347.348 250.456 347.348 248.532C347.348 246.608 345.965 245.045 344.271 245.045C342.578 245.045 341.195 246.608 341.195 248.532C341.195 250.456 342.578 252.018 344.271 252.018Z" fill="#57A1CB"/>
<path fill-rule="evenodd" clip-rule="evenodd" d="M360.351 235.026C362.044 235.026 363.427 233.463 363.427 231.539C363.427 229.615 362.044 228.053 360.351 228.053C358.657 228.053 357.274 229.615 357.274 231.539C357.274 233.463 358.657 235.026 360.351 235.026Z" fill="#57A1CB"/>
<path fill-rule="evenodd" clip-rule="evenodd" d="M167.354 235.026C169.047 235.026 170.43 233.463 170.43 231.539C170.43 229.615 169.047 228.053 167.354 228.053C165.66 228.053 164.277 229.615 164.277 231.539C164.277 233.463 165.66 235.026 167.354 235.026Z" fill="#57A1CB"/>
<path fill-rule="evenodd" clip-rule="evenodd" d="M199.524 235.026C201.217 235.026 202.6 233.463 202.6 231.539C202.6 229.615 201.217 228.053 199.524 228.053C197.831 228.053 196.448 229.615 196.448 231.539C196.448 233.463 197.831 235.026 199.524 235.026Z" fill="#57A1CB"/>
<path fill-rule="evenodd" clip-rule="evenodd" d="M231.694 235.026C233.388 235.026 234.77 233.463 234.77 231.539C234.77 229.615 233.388 228.053 231.694 228.053C230.001 228.053 228.618 229.615 228.618 231.539C228.618 233.463 230.001 235.026 231.694 235.026Z" fill="#57A1CB"/>
<path fill-rule="evenodd" clip-rule="evenodd" d="M263.852 235.026C265.545 235.026 266.928 233.463 266.928 231.539C266.928 229.615 265.545 228.053 263.852 228.053C262.159 228.053 260.776 229.615 260.776 231.539C260.776 233.463 262.159 235.026 263.852 235.026Z" fill="#57A1CB"/>
<path fill-rule="evenodd" clip-rule="evenodd" d="M296.022 235.026C297.716 235.026 299.099 233.463 299.099 231.539C299.099 229.615 297.716 228.053 296.022 228.053C294.329 228.053 292.946 229.615 292.946 231.539C292.946 233.463 294.329 235.026 296.022 235.026Z" fill="#57A1CB"/>
<path fill-rule="evenodd" clip-rule="evenodd" d="M328.193 235.026C329.886 235.026 331.269 233.463 331.269 231.539C331.269 229.615 329.886 228.053 328.193 228.053C326.5 228.053 325.117 229.615 325.117 231.539C325.117 233.463 326.5 235.026 328.193 235.026Z" fill="#57A1CB"/>
<path fill-rule="evenodd" clip-rule="evenodd" d="M151.274 250.753C152.347 250.753 153.226 249.758 153.226 248.532C153.226 247.305 152.347 246.311 151.274 246.311C150.202 246.311 149.323 247.305 149.323 248.532C149.323 249.758 150.202 250.753 151.274 250.753Z" fill="#202020"/>
<path d="M183.445 250.753C184.523 250.753 185.397 249.758 185.397 248.532C185.397 247.305 184.523 246.311 183.445 246.311C182.367 246.311 181.493 247.305 181.493 248.532C181.493 249.758 182.367 250.753 183.445 250.753Z" fill="#202020"/>
<path d="M215.603 250.753C216.68 250.753 217.554 249.758 217.554 248.532C217.554 247.305 216.68 246.311 215.603 246.311C214.525 246.311 213.651 247.305 213.651 248.532C213.651 249.758 214.525 250.753 215.603 250.753Z" fill="#202020"/>
<path d="M247.773 250.753C248.851 250.753 249.725 249.758 249.725 248.532C249.725 247.305 248.851 246.311 247.773 246.311C246.695 246.311 245.821 247.305 245.821 248.532C245.821 249.758 246.695 250.753 247.773 250.753Z" fill="#202020"/>
<path fill-rule="evenodd" clip-rule="evenodd" d="M279.944 250.753C281.016 250.753 281.895 249.758 281.895 248.532C281.895 247.305 281.016 246.311 279.944 246.311C278.871 246.311 277.992 247.305 277.992 248.532C277.979 249.758 278.858 250.753 279.944 250.753Z" fill="#202020"/>
<path fill-rule="evenodd" clip-rule="evenodd" d="M312.101 250.753C313.174 250.753 314.053 249.758 314.053 248.532C314.053 247.305 313.174 246.311 312.101 246.311C311.028 246.311 310.149 247.305 310.149 248.532C310.149 249.758 311.028 250.753 312.101 250.753Z" fill="#202020"/>
<path d="M344.271 250.753C345.349 250.753 346.223 249.758 346.223 248.532C346.223 247.305 345.349 246.311 344.271 246.311C343.194 246.311 342.32 247.305 342.32 248.532C342.32 249.758 343.194 250.753 344.271 250.753Z" fill="#202020"/>
<path fill-rule="evenodd" clip-rule="evenodd" d="M167.354 233.76C168.426 233.76 169.305 232.766 169.305 231.539C169.305 230.313 168.426 229.318 167.354 229.318C166.281 229.318 165.402 230.313 165.402 231.539C165.402 232.766 166.281 233.76 167.354 233.76Z" fill="#202020"/>
<path fill-rule="evenodd" clip-rule="evenodd" d="M199.524 233.76C200.597 233.76 201.476 232.766 201.476 231.539C201.476 230.313 200.597 229.318 199.524 229.318C198.451 229.318 197.572 230.313 197.572 231.539C197.572 232.766 198.451 233.76 199.524 233.76Z" fill="#202020"/>
<path fill-rule="evenodd" clip-rule="evenodd" d="M231.694 233.76C232.767 233.76 233.646 232.766 233.646 231.539C233.646 230.313 232.767 229.318 231.694 229.318C230.622 229.318 229.743 230.313 229.743 231.539C229.73 232.766 230.609 233.76 231.694 233.76Z" fill="#202020"/>
<path fill-rule="evenodd" clip-rule="evenodd" d="M263.852 233.76C264.925 233.76 265.804 232.766 265.804 231.539C265.804 230.313 264.925 229.318 263.852 229.318C262.779 229.318 261.9 230.313 261.9 231.539C261.9 232.766 262.779 233.76 263.852 233.76Z" fill="#202020"/>
<path fill-rule="evenodd" clip-rule="evenodd" d="M296.022 233.76C297.095 233.76 297.974 232.766 297.974 231.539C297.974 230.313 297.095 229.318 296.022 229.318C294.95 229.318 294.071 230.313 294.071 231.539C294.071 232.766 294.95 233.76 296.022 233.76Z" fill="#202020"/>
<path fill-rule="evenodd" clip-rule="evenodd" d="M328.193 233.76C329.266 233.76 330.145 232.766 330.145 231.539C330.145 230.313 329.266 229.318 328.193 229.318C327.12 229.318 326.241 230.313 326.241 231.539C326.228 232.766 327.107 233.76 328.193 233.76Z" fill="#202020"/>
<path fill-rule="evenodd" clip-rule="evenodd" d="M360.351 233.76C361.423 233.76 362.302 232.766 362.302 231.539C362.302 230.313 361.423 229.318 360.351 229.318C359.278 229.318 358.399 230.313 358.399 231.539C358.399 232.766 359.278 233.76 360.351 233.76Z" fill="#202020"/>
<path fill-rule="evenodd" clip-rule="evenodd" d="M375.512 235.736C375.512 226.258 368.726 218.576 360.363 218.576C354.095 218.576 348.524 222.94 346.275 229.422C345.771 229.357 345.254 229.331 344.724 229.318C347.038 222.075 353.164 216.91 360.363 216.91C369.553 216.91 376.998 225.342 376.998 235.749H375.512V235.736ZM342.281 229.422C340.019 222.94 334.449 218.576 328.193 218.576C321.924 218.576 316.354 222.94 314.105 229.422C313.588 229.357 313.083 229.331 312.554 229.318C314.867 222.075 320.994 216.91 328.193 216.91C335.392 216.91 341.519 222.088 343.832 229.318C343.315 229.318 342.798 229.357 342.281 229.422ZM310.124 229.422C307.862 222.94 302.291 218.576 296.035 218.576C289.767 218.576 284.196 222.94 281.947 229.422C281.43 229.357 280.926 229.331 280.396 229.318C282.71 222.075 288.836 216.91 296.035 216.91C303.235 216.91 309.361 222.088 311.675 229.318C311.145 229.318 310.628 229.357 310.124 229.422ZM277.953 229.422C275.691 222.94 270.121 218.576 263.865 218.576C257.596 218.576 252.026 222.94 249.777 229.422C249.26 229.357 248.755 229.331 248.226 229.318C250.539 222.075 256.666 216.91 263.865 216.91C271.064 216.91 277.191 222.088 279.504 229.318C278.974 229.318 278.457 229.357 277.953 229.422ZM245.783 229.422C243.521 222.94 237.95 218.576 231.694 218.576C225.426 218.576 219.855 222.94 217.606 229.422C217.089 229.357 216.585 229.331 216.055 229.318C218.369 222.075 224.495 216.91 231.694 216.91C238.894 216.91 245.02 222.088 247.334 229.318C246.817 229.318 246.3 229.357 245.783 229.422ZM213.625 229.422C211.363 222.94 205.793 218.576 199.537 218.576C193.268 218.576 187.697 222.94 185.449 229.422C184.944 229.357 184.427 229.331 183.898 229.318C186.211 222.075 192.338 216.91 199.537 216.91C206.736 216.91 212.863 222.088 215.176 229.318C214.646 229.318 214.129 229.357 213.625 229.422ZM181.455 229.422C179.193 222.94 173.622 218.576 167.366 218.576C160.968 218.576 155.501 223.069 153.278 229.422C152.761 229.357 152.257 229.331 151.727 229.306C154.041 222.062 160.167 216.897 167.366 216.897C174.566 216.897 180.692 222.075 183.006 229.306C182.476 229.318 181.959 229.357 181.455 229.422Z" fill="#2B2A29"/>
<path fill-rule="evenodd" clip-rule="evenodd" d="M391.59 251.153C391.59 241.675 384.805 233.993 376.442 233.993C369.579 233.993 363.543 239.235 361.785 246.75L361.294 248.867H359.42L358.929 246.75C357.171 239.235 351.148 233.993 344.272 233.993C337.408 233.993 331.372 239.235 329.615 246.75L329.124 248.867H327.249L326.758 246.75C325 239.235 318.977 233.993 312.101 233.993C305.238 233.993 299.202 239.235 297.444 246.75L296.953 248.867H295.079L294.588 246.75C292.83 239.235 286.807 233.993 279.931 233.993C273.068 233.993 267.032 239.235 265.274 246.75L264.783 248.867H262.908L262.417 246.75C260.659 239.235 254.636 233.993 247.76 233.993C240.884 233.993 234.861 239.235 233.103 246.75L232.612 248.867H230.738L230.247 246.75C228.489 239.235 222.466 233.993 215.59 233.993C208.727 233.993 202.691 239.235 200.933 246.75L200.442 248.867H198.568L198.076 246.75C196.319 239.235 190.295 233.993 183.419 233.993C175.742 233.993 169.383 240.462 168.4 248.88H166.914C167.909 239.545 174.915 232.314 183.419 232.314C191.136 232.314 197.624 238.267 199.498 246.324C201.385 238.254 207.861 232.314 215.577 232.314C223.293 232.314 229.782 238.267 231.656 246.324C233.543 238.254 240.018 232.314 247.734 232.314C255.451 232.314 261.939 238.267 263.813 246.324C265.7 238.254 272.176 232.314 279.892 232.314C287.608 232.314 294.097 238.267 295.971 246.324C297.858 238.254 304.333 232.314 312.05 232.314C319.766 232.314 326.254 238.267 328.128 246.324C330.015 238.254 336.491 232.314 344.207 232.314C351.923 232.314 358.412 238.267 360.286 246.324C362.173 238.254 368.661 232.314 376.365 232.314C385.554 232.314 392.999 240.746 392.999 251.153H391.59Z" fill="#2B2A29"/>
<path fill-rule="evenodd" clip-rule="evenodd" d="M344.259 149.948L367.705 195.85L380.229 220.37L403.029 264.982H476.741L441.584 220.37H429.564L410.732 195.85H395.7L363.711 149.948H344.259ZM303.855 70.8357L319.869 102.186H331.295L311.61 70.7582L303.855 70.8357ZM324.134 110.527L336.245 134.247H352.57L337.473 110.527H324.134Z" fill="url(#paint3_linear)"/>
<path fill-rule="evenodd" clip-rule="evenodd" d="M344.349 149.948L345.202 151.614H362.574L393.413 195.85L367.808 195.863L368.648 197.516H409.608L427.173 220.37H380.32L381.121 222.036H440.447L474.285 264.982H476.818L441.662 220.37H429.655L410.823 195.85H395.791L363.802 149.948H344.349ZM303.984 70.7453L304.837 72.4109H310.473L329.111 102.173H331.36L311.675 70.7453H303.984ZM324.212 110.527L325.078 112.193H336.336L350.372 134.247H352.647L337.551 110.527H324.212Z" fill="#1C272C"/>
<path fill-rule="evenodd" clip-rule="evenodd" d="M174.527 210.751H375.395L367.795 195.863L182.14 195.85L174.527 210.751Z" fill="url(#paint4_linear)"/>
<path fill-rule="evenodd" clip-rule="evenodd" d="M207.214 146.823H342.747L338.184 137.914L211.699 138.043L207.214 146.823Z" fill="url(#paint5_linear)"/>
<path fill-rule="evenodd" clip-rule="evenodd" d="M226.499 109.068H323.463L320.038 102.289L229.924 102.315L226.499 109.068Z" fill="url(#paint6_linear)"/>
<path fill-rule="evenodd" clip-rule="evenodd" d="M237.408 87.7505L312.502 87.7634L310.253 83.3474H239.657L237.408 87.7505Z" fill="url(#paint7_linear)"/>
<path fill-rule="evenodd" clip-rule="evenodd" d="M274.877 96.6727C279.323 96.6727 283.253 98.8936 285.618 102.277H264.149C266.502 98.8936 270.431 96.6727 274.877 96.6727Z" fill="#1C272C"/>
<path fill-rule="evenodd" clip-rule="evenodd" d="M274.877 77.7565C279.388 77.7565 283.395 79.9516 285.864 83.3474H283.925C282.232 81.4365 279.931 80.0549 277.333 79.5255V83.3474H272.422V79.5255C269.824 80.0678 267.523 81.4365 265.83 83.3474H263.891C266.36 79.9645 270.367 77.7565 274.877 77.7565ZM274.877 119.566C284.003 119.566 291.409 126.964 291.409 136.08C291.409 136.752 291.37 137.423 291.292 138.082H288.953C289.043 137.423 289.095 136.765 289.095 136.08C289.095 129.289 284.313 123.607 277.928 122.213V138.082H271.853V122.213C265.468 123.607 260.686 129.289 260.686 136.08C260.686 136.765 260.737 137.423 260.828 138.082H258.488C258.411 137.423 258.372 136.765 258.372 136.08C258.346 126.964 265.752 119.566 274.877 119.566ZM274.877 94.5422C280.564 94.5422 285.528 97.6669 288.139 102.289H285.618C283.253 98.8936 279.324 96.6856 274.877 96.6856C270.431 96.6856 266.502 98.9065 264.137 102.289H261.616C264.227 97.6669 269.19 94.5422 274.877 94.5422Z" fill="url(#paint8_linear)"/>
<path fill-rule="evenodd" clip-rule="evenodd" d="M205.638 149.948L182.192 195.85L169.667 220.37L146.868 264.982H73.1689L108.325 220.37H120.332L139.164 195.85H154.196L186.186 149.948H205.638ZM246.042 70.8357L230.027 102.186H218.602L238.287 70.7582L246.042 70.8357ZM225.775 110.527L213.664 134.247H197.34L212.436 110.527H225.775Z" fill="url(#paint9_linear)"/>
<path fill-rule="evenodd" clip-rule="evenodd" d="M205.56 149.948L204.707 151.614H187.336L156.509 195.85L182.114 195.863L181.274 197.516H140.314L122.749 220.37H169.602L168.801 222.036H109.475L75.6114 264.982H73.0781L108.234 220.37H120.242L139.073 195.85H154.105L186.121 149.948H205.56ZM245.912 70.7453L245.059 72.4109H239.424L220.786 102.173H218.537L238.222 70.7453H245.912ZM225.697 110.527L224.831 112.193H213.574L199.537 134.247H197.262L212.359 110.527H225.697Z" fill="#1C272C"/>
<path fill-rule="evenodd" clip-rule="evenodd" d="M151.029 256.705H398.854L382.065 223.908H167.858L151.029 256.705Z" fill="#285B80"/>
<path fill-rule="evenodd" clip-rule="evenodd" d="M170.973 217.827C173.803 218.873 176.311 220.564 178.327 222.733L172.265 233.424H164.381H163.011L170.973 217.827Z" fill="url(#paint10_linear)"/>
<path fill-rule="evenodd" clip-rule="evenodd" d="M187.219 222.733C190.696 218.989 195.659 216.652 201.165 216.652C206.671 216.652 211.635 218.989 215.111 222.733L209.05 233.424H201.165H193.281L187.219 222.733Z" fill="url(#paint11_linear)"/>
<path fill-rule="evenodd" clip-rule="evenodd" d="M224.004 222.733C227.481 218.989 232.444 216.652 237.95 216.652C243.456 216.652 248.419 218.989 251.896 222.733L245.834 233.424H237.95H230.066L224.004 222.733Z" fill="url(#paint12_linear)"/>
<path fill-rule="evenodd" clip-rule="evenodd" d="M260.802 222.733C264.279 218.989 269.242 216.652 274.748 216.652C280.254 216.652 285.217 218.989 288.694 222.733L282.632 233.424H274.748H266.864L260.802 222.733Z" fill="url(#paint13_linear)"/>
<path fill-rule="evenodd" clip-rule="evenodd" d="M297.586 222.733C301.063 218.989 306.026 216.652 311.533 216.652C317.039 216.652 322.002 218.989 325.479 222.733L319.417 233.424H311.533H303.648L297.586 222.733Z" fill="url(#paint14_linear)"/>
<path fill-rule="evenodd" clip-rule="evenodd" d="M334.384 222.733C337.861 218.989 342.824 216.652 348.33 216.652C353.836 216.652 358.799 218.989 362.276 222.733L356.214 233.424H348.33H340.446L334.384 222.733Z" fill="url(#paint15_linear)"/>
<path fill-rule="evenodd" clip-rule="evenodd" d="M371.169 222.733C373.263 220.474 375.9 218.731 378.885 217.698L386.938 233.424H385.128H377.244L371.169 222.733Z" fill="url(#paint16_linear)"/>
<path fill-rule="evenodd" clip-rule="evenodd" d="M242.41 238.292C245.887 234.548 250.85 232.211 256.356 232.211C261.862 232.211 266.825 234.548 270.302 238.292L264.576 248.984H256.356H248.135L242.41 238.292Z" fill="url(#paint17_linear)"/>
<path fill-rule="evenodd" clip-rule="evenodd" d="M279.194 238.292C282.671 234.548 287.634 232.211 293.14 232.211C298.647 232.211 303.61 234.548 307.087 238.292L301.361 248.984H293.14H284.92L279.194 238.292Z" fill="url(#paint18_linear)"/>
<path fill-rule="evenodd" clip-rule="evenodd" d="M315.992 238.292C319.469 234.548 324.432 232.211 329.938 232.211C335.444 232.211 340.407 234.548 343.884 238.292L338.158 248.984H329.938H321.718L315.992 238.292Z" fill="url(#paint19_linear)"/>
<path fill-rule="evenodd" clip-rule="evenodd" d="M352.776 238.292C356.253 234.548 361.216 232.211 366.723 232.211C372.229 232.211 377.192 234.548 380.669 238.292L374.943 248.984H366.723H358.502L352.776 238.292Z" fill="url(#paint20_linear)"/>
<path fill-rule="evenodd" clip-rule="evenodd" d="M168.827 238.292C172.304 234.548 177.267 232.211 182.773 232.211C188.279 232.211 193.243 234.548 196.719 238.292L190.994 248.984H182.773H174.553L168.827 238.292Z" fill="url(#paint21_linear)"/>
<path fill-rule="evenodd" clip-rule="evenodd" d="M205.612 238.292C209.089 234.548 214.052 232.211 219.558 232.211C225.064 232.211 230.027 234.548 233.504 238.292L227.778 248.984H219.558H211.338L205.612 238.292Z" fill="url(#paint22_linear)"/>
<path fill-rule="evenodd" clip-rule="evenodd" d="M182.773 245.058C184.712 245.058 186.289 246.634 186.289 248.57C186.289 250.507 184.712 252.082 182.773 252.082C180.834 252.082 179.257 250.507 179.257 248.57C179.244 246.634 180.821 245.058 182.773 245.058Z" fill="#57A1CB"/>
<path fill-rule="evenodd" clip-rule="evenodd" d="M219.558 245.058C221.496 245.058 223.073 246.634 223.073 248.57C223.073 250.507 221.496 252.082 219.558 252.082C217.619 252.082 216.042 250.507 216.042 248.57C216.042 246.634 217.619 245.058 219.558 245.058Z" fill="#57A1CB"/>
<path fill-rule="evenodd" clip-rule="evenodd" d="M256.356 245.058C258.294 245.058 259.871 246.634 259.871 248.57C259.871 250.507 258.294 252.082 256.356 252.082C254.417 252.082 252.84 250.507 252.84 248.57C252.827 246.634 254.404 245.058 256.356 245.058Z" fill="#57A1CB"/>
<path fill-rule="evenodd" clip-rule="evenodd" d="M293.14 245.058C295.079 245.058 296.656 246.634 296.656 248.57C296.656 250.507 295.079 252.082 293.14 252.082C291.201 252.082 289.625 250.507 289.625 248.57C289.625 246.634 291.201 245.058 293.14 245.058Z" fill="#57A1CB"/>
<path fill-rule="evenodd" clip-rule="evenodd" d="M329.938 245.058C331.876 245.058 333.453 246.634 333.453 248.57C333.453 250.507 331.876 252.082 329.938 252.082C327.999 252.082 326.422 250.507 326.422 248.57C326.409 246.634 327.986 245.058 329.938 245.058Z" fill="#57A1CB"/>
<path fill-rule="evenodd" clip-rule="evenodd" d="M366.722 245.058C368.661 245.058 370.251 246.634 370.251 248.57C370.251 250.507 368.674 252.082 366.722 252.082C364.783 252.082 363.207 250.507 363.207 248.57C363.207 246.634 364.783 245.058 366.722 245.058Z" fill="#57A1CB"/>
<path fill-rule="evenodd" clip-rule="evenodd" d="M172.355 215.102C176.595 216.742 180.24 219.673 182.76 223.469C186.767 217.439 193.617 213.617 201.152 213.617C208.701 213.617 215.538 217.452 219.545 223.469C223.552 217.439 230.402 213.617 237.937 213.617C245.485 213.617 252.323 217.452 256.329 223.469C260.336 217.439 267.187 213.617 274.722 213.617C282.27 213.617 289.107 217.452 293.114 223.469C297.121 217.439 303.971 213.617 311.507 213.617C319.055 213.617 325.892 217.452 329.899 223.469C333.906 217.439 340.756 213.617 348.291 213.617C355.84 213.617 362.677 217.452 366.684 223.469C369.282 219.57 373.056 216.587 377.45 214.973L378.846 217.698C372.913 219.751 368.312 224.67 366.684 230.79C364.525 222.656 357.106 216.652 348.291 216.652C339.463 216.652 332.044 222.656 329.899 230.79C327.74 222.656 320.321 216.652 311.507 216.652C302.679 216.652 295.26 222.656 293.114 230.79C290.956 222.656 283.537 216.652 274.722 216.652C265.894 216.652 258.475 222.656 256.329 230.79C254.171 222.656 246.752 216.652 237.937 216.652C229.109 216.652 221.69 222.656 219.545 230.79C217.386 222.656 209.967 216.652 201.152 216.652C192.325 216.652 184.906 222.656 182.76 230.79C181.17 224.786 176.724 219.957 170.959 217.827L172.355 215.102Z" fill="#CCACAA"/>
<path fill-rule="evenodd" clip-rule="evenodd" d="M385.128 246.349C382.969 238.215 375.55 232.211 366.735 232.211C357.921 232.211 350.489 238.215 348.343 246.349C346.198 238.215 338.766 232.211 329.951 232.211C321.123 232.211 313.704 238.215 311.558 246.349C309.4 238.215 301.981 232.211 293.166 232.211C284.338 232.211 276.919 238.215 274.774 246.349C272.628 238.215 265.196 232.211 256.381 232.211C247.554 232.211 240.135 238.215 237.989 246.349C235.843 238.215 228.411 232.211 219.597 232.211C210.769 232.211 203.35 238.215 201.204 246.349C199.046 238.215 191.627 232.211 182.812 232.211C173.984 232.211 166.565 238.215 164.42 246.349C163.657 243.483 162.248 240.875 160.348 238.706L161.822 235.813C162.778 236.795 163.657 237.866 164.42 239.015C168.426 232.985 175.277 229.163 182.812 229.163C190.36 229.163 197.197 232.998 201.204 239.015C205.211 232.985 212.061 229.163 219.597 229.163C227.145 229.163 233.982 232.998 237.989 239.015C241.996 232.985 248.846 229.163 256.381 229.163C263.93 229.163 270.767 232.998 274.774 239.015C278.78 232.985 285.631 229.163 293.166 229.163C300.714 229.163 307.552 232.998 311.558 239.015C315.565 232.985 322.415 229.163 329.951 229.163C337.499 229.163 344.336 232.998 348.343 239.015C352.35 232.985 359.2 229.163 366.735 229.163C374.413 229.163 381.173 233.089 385.128 239.028V239.015C385.968 237.75 386.937 236.575 388.023 235.516L389.484 238.383C387.441 240.617 385.916 243.341 385.128 246.349Z" fill="#CCACAA"/>
<path fill-rule="evenodd" clip-rule="evenodd" d="M387.325 234.186C386.718 234.664 385.955 234.961 385.128 234.961C383.176 234.961 381.612 233.386 381.612 231.449C381.612 229.835 382.711 228.466 384.197 228.053L387.325 234.186Z" fill="#57A1CB"/>
<path fill-rule="evenodd" clip-rule="evenodd" d="M165.686 228.17C166.979 228.687 167.897 229.952 167.897 231.437C167.897 233.374 166.32 234.949 164.381 234.949C163.696 234.949 163.05 234.755 162.507 234.407L165.686 228.17Z" fill="#57A1CB"/>
<path fill-rule="evenodd" clip-rule="evenodd" d="M201.166 227.911C203.104 227.911 204.681 229.486 204.681 231.423C204.681 233.36 203.104 234.935 201.166 234.935C199.214 234.935 197.65 233.36 197.65 231.423C197.637 229.486 199.214 227.911 201.166 227.911Z" fill="#57A1CB"/>
<path fill-rule="evenodd" clip-rule="evenodd" d="M237.95 227.911C239.902 227.911 241.466 229.486 241.466 231.423C241.466 233.36 239.889 234.935 237.95 234.935C236.011 234.935 234.435 233.36 234.435 231.423C234.435 229.486 236.011 227.911 237.95 227.911Z" fill="#57A1CB"/>
<path fill-rule="evenodd" clip-rule="evenodd" d="M274.748 227.911C276.687 227.911 278.264 229.486 278.264 231.423C278.264 233.36 276.687 234.935 274.748 234.935C272.809 234.935 271.232 233.36 271.232 231.423C271.232 229.486 272.796 227.911 274.748 227.911Z" fill="#57A1CB"/>
<path fill-rule="evenodd" clip-rule="evenodd" d="M311.533 227.911C313.471 227.911 315.048 229.486 315.048 231.423C315.048 233.36 313.471 234.935 311.533 234.935C309.594 234.935 308.017 233.36 308.017 231.423C308.017 229.486 309.594 227.911 311.533 227.911Z" fill="#57A1CB"/>
<path fill-rule="evenodd" clip-rule="evenodd" d="M348.33 227.911C350.269 227.911 351.846 229.486 351.846 231.423C351.846 233.36 350.269 234.935 348.33 234.935C346.391 234.935 344.815 233.36 344.815 231.423C344.802 229.486 346.391 227.911 348.33 227.911Z" fill="#57A1CB"/>
<path fill-rule="evenodd" clip-rule="evenodd" d="M182.773 246.349C184.014 246.349 185.009 247.344 185.009 248.583C185.009 249.823 184.001 250.817 182.773 250.817C181.532 250.817 180.537 249.823 180.537 248.583C180.537 247.344 181.532 246.349 182.773 246.349Z" fill="#202020"/>
<path fill-rule="evenodd" clip-rule="evenodd" d="M219.558 246.349C220.799 246.349 221.794 247.344 221.794 248.583C221.794 249.823 220.786 250.817 219.558 250.817C218.317 250.817 217.322 249.823 217.322 248.583C217.322 247.344 218.33 246.349 219.558 246.349Z" fill="#202020"/>
<path fill-rule="evenodd" clip-rule="evenodd" d="M256.356 246.349C257.596 246.349 258.592 247.344 258.592 248.583C258.592 249.823 257.584 250.817 256.356 250.817C255.115 250.817 254.12 249.823 254.12 248.583C254.12 247.344 255.115 246.349 256.356 246.349Z" fill="#202020"/>
<path fill-rule="evenodd" clip-rule="evenodd" d="M293.14 246.349C294.381 246.349 295.376 247.344 295.376 248.583C295.376 249.823 294.368 250.817 293.14 250.817C291.9 250.817 290.904 249.823 290.904 248.583C290.904 247.344 291.912 246.349 293.14 246.349Z" fill="#202020"/>
<path fill-rule="evenodd" clip-rule="evenodd" d="M329.938 246.349C331.179 246.349 332.174 247.344 332.174 248.583C332.174 249.823 331.166 250.817 329.938 250.817C328.697 250.817 327.702 249.823 327.702 248.583C327.702 247.344 328.697 246.349 329.938 246.349Z" fill="#202020"/>
<path fill-rule="evenodd" clip-rule="evenodd" d="M366.722 246.349C367.963 246.349 368.958 247.344 368.958 248.583C368.958 249.823 367.95 250.817 366.722 250.817C365.482 250.817 364.486 249.823 364.486 248.583C364.486 247.344 365.495 246.349 366.722 246.349Z" fill="#202020"/>
<path fill-rule="evenodd" clip-rule="evenodd" d="M165.092 229.319C165.97 229.616 166.604 230.455 166.604 231.436C166.604 232.676 165.596 233.67 164.368 233.67C163.889 233.67 163.437 233.515 163.075 233.257L165.092 229.319Z" fill="#202020"/>
<path fill-rule="evenodd" clip-rule="evenodd" d="M201.165 229.202C202.406 229.202 203.401 230.209 203.401 231.436C203.401 232.676 202.393 233.67 201.165 233.67C199.924 233.67 198.929 232.676 198.929 231.436C198.929 230.196 199.924 229.202 201.165 229.202Z" fill="#202020"/>
<path fill-rule="evenodd" clip-rule="evenodd" d="M237.95 229.202C239.191 229.202 240.186 230.209 240.186 231.436C240.186 232.676 239.178 233.67 237.95 233.67C236.709 233.67 235.714 232.676 235.714 231.436C235.714 230.196 236.722 229.202 237.95 229.202Z" fill="#202020"/>
<path fill-rule="evenodd" clip-rule="evenodd" d="M274.748 229.202C275.989 229.202 276.984 230.209 276.984 231.436C276.984 232.676 275.976 233.67 274.748 233.67C273.507 233.67 272.512 232.676 272.512 231.436C272.512 230.196 273.507 229.202 274.748 229.202Z" fill="#202020"/>
<path fill-rule="evenodd" clip-rule="evenodd" d="M311.532 229.202C312.773 229.202 313.768 230.209 313.768 231.436C313.768 232.676 312.76 233.67 311.532 233.67C310.292 233.67 309.296 232.676 309.296 231.436C309.296 230.196 310.305 229.202 311.532 229.202Z" fill="#202020"/>
<path fill-rule="evenodd" clip-rule="evenodd" d="M348.33 229.202C349.571 229.202 350.566 230.209 350.566 231.436C350.566 232.676 349.558 233.67 348.33 233.67C347.089 233.67 346.094 232.676 346.094 231.436C346.094 230.196 347.089 229.202 348.33 229.202Z" fill="#202020"/>
<path fill-rule="evenodd" clip-rule="evenodd" d="M386.718 232.998C386.317 233.412 385.748 233.67 385.115 233.67C383.874 233.67 382.879 232.676 382.879 231.436C382.879 230.313 383.706 229.383 384.779 229.228L386.718 232.998Z" fill="#202020"/>
<path fill-rule="evenodd" clip-rule="evenodd" d="M379.661 219.221C374.853 220.822 370.898 224.476 368.998 229.28C368.416 229.215 367.821 229.189 367.227 229.176C369.179 223.805 373.47 219.57 378.885 217.698L379.661 219.221ZM364.448 229.293C361.863 222.759 355.491 218.343 348.33 218.343C341.157 218.343 334.798 222.746 332.213 229.293C331.631 229.228 331.037 229.189 330.442 229.176C333.092 221.868 340.097 216.652 348.33 216.652C356.564 216.652 363.569 221.868 366.219 229.176C365.624 229.189 365.03 229.228 364.448 229.293ZM327.663 229.293C325.078 222.759 318.706 218.343 311.546 218.343C304.372 218.343 298.013 222.746 295.428 229.293C294.847 229.228 294.252 229.189 293.657 229.176C296.307 221.868 303.312 216.652 311.546 216.652C319.779 216.652 326.784 221.868 329.434 229.176C328.839 229.189 328.245 229.228 327.663 229.293ZM290.866 229.293C288.281 222.759 281.909 218.343 274.748 218.343C267.575 218.343 261.216 222.746 258.631 229.293C258.049 229.228 257.454 229.189 256.86 229.176C259.509 221.868 266.515 216.652 274.748 216.652C282.981 216.652 289.987 221.868 292.636 229.176C292.042 229.189 291.447 229.228 290.866 229.293ZM254.081 229.293C251.496 222.759 245.124 218.343 237.963 218.343C230.79 218.343 224.431 222.746 221.846 229.293C221.264 229.228 220.67 229.189 220.075 229.176C222.725 221.868 229.73 216.652 237.963 216.652C246.197 216.652 253.202 221.868 255.852 229.176C255.257 229.189 254.663 229.228 254.081 229.293ZM217.283 229.293C214.698 222.759 208.326 218.343 201.166 218.343C193.992 218.343 187.633 222.746 185.048 229.293C184.467 229.228 183.872 229.189 183.277 229.176C185.927 221.868 192.932 216.652 201.166 216.652C209.399 216.652 216.404 221.868 219.054 229.176C218.459 229.189 217.865 229.228 217.283 229.293ZM180.499 229.293C178.65 224.606 174.837 221.003 170.197 219.35L170.973 217.827C176.207 219.764 180.356 223.934 182.269 229.176C181.662 229.189 181.08 229.228 180.499 229.293Z" fill="#1C272C"/>
<path fill-rule="evenodd" clip-rule="evenodd" d="M390.311 240.01C388.669 241.934 387.441 244.232 386.769 246.788L386.201 248.932H384.055L383.486 246.788C381.483 239.196 374.581 233.915 366.722 233.915C358.864 233.915 351.975 239.209 349.959 246.788L349.39 248.932H347.244L346.676 246.788C344.672 239.196 337.77 233.915 329.912 233.915C322.053 233.915 315.164 239.209 313.148 246.788L312.579 248.932H310.434L309.865 246.788C307.862 239.196 300.96 233.915 293.101 233.915C285.243 233.915 278.354 239.209 276.338 246.788L275.769 248.932H273.623L273.055 246.788C271.051 239.196 264.149 233.915 256.291 233.915C248.432 233.915 241.543 239.209 239.527 246.788L238.958 248.932H236.813L236.244 246.788C234.241 239.196 227.339 233.915 219.48 233.915C211.622 233.915 204.733 239.209 202.716 246.788L202.148 248.932H200.002L199.433 246.788C197.43 239.196 190.528 233.915 182.67 233.915C173.881 233.915 166.617 240.449 165.492 248.932H163.786C164.924 239.519 172.937 232.224 182.67 232.224C191.497 232.224 198.916 238.228 201.062 246.362C203.22 238.228 210.639 232.224 219.454 232.224C228.282 232.224 235.701 238.228 237.847 246.362C240.005 238.228 247.424 232.224 256.239 232.224C265.067 232.224 272.486 238.228 274.631 246.362C276.79 238.228 284.209 232.224 293.024 232.224C301.852 232.224 309.271 238.228 311.416 246.362C313.575 238.228 320.994 232.224 329.808 232.224C338.636 232.224 346.055 238.228 348.201 246.362C350.359 238.228 357.778 232.224 366.593 232.224C375.408 232.224 382.84 238.228 384.986 246.362C385.787 243.354 387.299 240.629 389.341 238.409L390.311 240.01Z" fill="#1C272C"/>
<path fill-rule="evenodd" clip-rule="evenodd" d="M146.867 264.982H403.029L394.796 248.88H155.1L146.867 264.982Z" fill="url(#paint23_linear)"/>
<path fill-rule="evenodd" clip-rule="evenodd" d="M238.312 70.7453H203.867L0 264.982H73.1817L108.338 220.37H108.415H120.358L139.19 195.85H139.267H154.222L186.211 149.948H205.664H205.676L213.69 134.247H199.628H197.43H197.353L212.449 110.527H212.527H225.788H225.801L230.053 102.173H220.876H218.705H218.627L238.312 70.7453Z" fill="#4596A7"/>
<path fill-rule="evenodd" clip-rule="evenodd" d="M2.45576 262.645L0 264.982H73.1817L75.03 262.645H2.45576Z" fill="#163442"/>
<path fill-rule="evenodd" clip-rule="evenodd" d="M6.63077 258.668L4.13623 261.043H76.2839L78.158 258.668H6.63077Z" fill="#163442"/>
<path fill-rule="evenodd" clip-rule="evenodd" d="M10.8056 254.691L8.33691 257.041H79.4506L81.2989 254.691H10.8056Z" fill="#163442"/>
<path fill-rule="evenodd" clip-rule="evenodd" d="M14.9804 250.714L12.5376 253.038H82.6043L84.4268 250.714H14.9804Z" fill="#163442"/>
<path fill-rule="evenodd" clip-rule="evenodd" d="M19.1548 246.737L16.7378 249.035H85.7576L87.5671 246.737H19.1548Z" fill="#163442"/>
<path fill-rule="evenodd" clip-rule="evenodd" d="M23.3296 242.76L20.9385 245.032H88.9114L90.695 242.76H23.3296Z" fill="#163442"/>
<path fill-rule="evenodd" clip-rule="evenodd" d="M27.5044 238.783L25.1392 241.03H92.0651L93.8229 238.783H27.5044Z" fill="#163442"/>
<path fill-rule="evenodd" clip-rule="evenodd" d="M31.6795 234.806L29.353 237.027H95.2191L96.964 234.806H31.6795Z" fill="#163442"/>
<path fill-rule="evenodd" clip-rule="evenodd" d="M35.8539 230.829L33.5532 233.024H98.3724L100.091 230.829H35.8539Z" fill="#163442"/>
<path fill-rule="evenodd" clip-rule="evenodd" d="M40.0158 226.852L37.7539 229.021H101.526L103.232 226.852H40.0158Z" fill="#163442"/>
<path fill-rule="evenodd" clip-rule="evenodd" d="M44.1906 222.875L41.9546 225.019H104.68L106.36 222.875H44.1906Z" fill="#163442"/>
<path fill-rule="evenodd" clip-rule="evenodd" d="M48.3655 218.898L46.1553 221.016H107.834L108.338 220.37H108.415H120.358L121.483 218.898H48.3655Z" fill="#163442"/>
<path fill-rule="evenodd" clip-rule="evenodd" d="M52.5403 214.921L50.356 217.013H122.93L124.533 214.921H52.5403Z" fill="#163442"/>
<path fill-rule="evenodd" clip-rule="evenodd" d="M56.7151 210.945L54.5566 213.011H126.006L127.596 210.945H56.7151Z" fill="#163442"/>
<path fill-rule="evenodd" clip-rule="evenodd" d="M60.89 206.968L58.7573 208.995H129.083L130.647 206.968H60.89Z" fill="#163442"/>
<path fill-rule="evenodd" clip-rule="evenodd" d="M65.0648 202.991L62.958 204.992H132.159L133.697 202.991H65.0648Z" fill="#163442"/>
<path fill-rule="evenodd" clip-rule="evenodd" d="M69.2396 199.014L67.1587 200.989H135.235L136.76 199.014H69.2396Z" fill="#163442"/>
<path fill-rule="evenodd" clip-rule="evenodd" d="M73.4145 195.037L71.3594 196.987H138.311L139.19 195.85H139.268H154.222L154.791 195.037H73.4145Z" fill="#163442"/>
<path fill-rule="evenodd" clip-rule="evenodd" d="M77.5891 191.06L75.5728 192.984H156.212L157.556 191.06H77.5891Z" fill="#163442"/>
<path fill-rule="evenodd" clip-rule="evenodd" d="M81.7639 187.083L79.7734 188.981H159.004L160.335 187.083H81.7639Z" fill="#163442"/>
<path fill-rule="evenodd" clip-rule="evenodd" d="M85.9387 183.106L83.9741 184.978H161.796L163.101 183.106H85.9387Z" fill="#163442"/>
<path fill-rule="evenodd" clip-rule="evenodd" d="M90.1136 179.129L88.1748 180.976H164.588L165.88 179.129H90.1136Z" fill="#163442"/>
<path fill-rule="evenodd" clip-rule="evenodd" d="M94.2884 175.152L92.3755 176.973H167.38L168.646 175.152H94.2884Z" fill="#163442"/>
<path fill-rule="evenodd" clip-rule="evenodd" d="M98.4632 171.175L96.5762 172.97H170.171L171.425 171.175H98.4632Z" fill="#163442"/>
<path fill-rule="evenodd" clip-rule="evenodd" d="M102.638 167.198L100.777 168.967H172.963L174.191 167.198H102.638Z" fill="#163442"/>
<path fill-rule="evenodd" clip-rule="evenodd" d="M106.813 163.222L104.978 164.965H175.755L176.97 163.222H106.813Z" fill="#163442"/>
<path fill-rule="evenodd" clip-rule="evenodd" d="M110.988 159.245L109.178 160.962H178.547L179.736 159.245H110.988Z" fill="#163442"/>
<path fill-rule="evenodd" clip-rule="evenodd" d="M115.163 155.268L113.379 156.959H181.339L182.515 155.268H115.163Z" fill="#163442"/>
<path fill-rule="evenodd" clip-rule="evenodd" d="M119.324 151.291L117.579 152.956H184.117L185.281 151.291H119.324Z" fill="#163442"/>
<path fill-rule="evenodd" clip-rule="evenodd" d="M123.499 147.314L121.78 148.954H206.18L207.021 147.314H123.499Z" fill="#163442"/>
<path fill-rule="evenodd" clip-rule="evenodd" d="M127.674 143.337L125.994 144.951H208.223L209.05 143.337H127.674Z" fill="#163442"/>
<path fill-rule="evenodd" clip-rule="evenodd" d="M131.849 139.36L130.194 140.948H210.265L211.079 139.36H131.849Z" fill="#163442"/>
<path fill-rule="evenodd" clip-rule="evenodd" d="M136.023 135.383L134.395 136.945H212.32L213.108 135.383H136.023Z" fill="#163442"/>
<path fill-rule="evenodd" clip-rule="evenodd" d="M140.198 131.406L138.595 132.943H198.18L199.162 131.406H140.198Z" fill="#163442"/>
<path fill-rule="evenodd" clip-rule="evenodd" d="M144.373 127.429L142.796 128.94H200.726L201.682 127.429H144.373Z" fill="#163442"/>
<path fill-rule="evenodd" clip-rule="evenodd" d="M148.548 123.452L146.997 124.937H203.272L204.216 123.452H148.548Z" fill="#163442"/>
<path fill-rule="evenodd" clip-rule="evenodd" d="M152.722 119.475L151.197 120.922H205.819L206.749 119.475H152.722Z" fill="#163442"/>
<path fill-rule="evenodd" clip-rule="evenodd" d="M156.897 115.499L155.398 116.919H208.378L209.283 115.499H156.897Z" fill="#163442"/>
<path fill-rule="evenodd" clip-rule="evenodd" d="M161.072 111.522L159.599 112.916H210.924L211.816 111.522H161.072Z" fill="#163442"/>
<path fill-rule="evenodd" clip-rule="evenodd" d="M165.247 107.545L163.799 108.913H226.615L227.313 107.545H165.247Z" fill="#163442"/>
<path fill-rule="evenodd" clip-rule="evenodd" d="M169.422 103.568L168 104.911H228.657L229.342 103.568H169.422Z" fill="#163442"/>
<path fill-rule="evenodd" clip-rule="evenodd" d="M173.596 99.5908L172.213 100.908H219.416L220.243 99.5908H173.596Z" fill="#163442"/>
<path fill-rule="evenodd" clip-rule="evenodd" d="M177.771 95.6139L176.414 96.9051H221.923L222.737 95.6139H177.771Z" fill="#163442"/>
<path fill-rule="evenodd" clip-rule="evenodd" d="M181.946 91.637L180.615 92.9024H224.431L225.219 91.637H181.946Z" fill="#163442"/>
<path fill-rule="evenodd" clip-rule="evenodd" d="M186.121 87.6601L184.815 88.8996H226.938L227.714 87.6601H186.121Z" fill="#163442"/>
<path fill-rule="evenodd" clip-rule="evenodd" d="M190.283 83.6832L189.016 84.8969H229.446L230.208 83.6832H190.283Z" fill="#163442"/>
<path fill-rule="evenodd" clip-rule="evenodd" d="M194.458 79.7062L193.217 80.8942H231.953L232.69 79.7062H194.458Z" fill="#163442"/>
<path fill-rule="evenodd" clip-rule="evenodd" d="M198.632 75.7293L197.417 76.8914H234.461L235.184 75.7293H198.632Z" fill="#163442"/>
<path fill-rule="evenodd" clip-rule="evenodd" d="M202.807 71.7524L201.618 72.8887H236.968L237.679 71.7524H202.807Z" fill="#163442"/>
<defs>
<linearGradient id="paint0_linear" x1="274.981" y1="264.991" x2="277.59" y2="72.1607" gradientUnits="userSpaceOnUse">
<stop stop-color="#B7589A"/>
<stop offset="0.2127" stop-color="#B85D9A"/>
<stop offset="0.4551" stop-color="#BA6A9C"/>
<stop offset="0.7122" stop-color="#BF819E"/>
<stop offset="0.9778" stop-color="#C4A1A2"/>
<stop offset="1" stop-color="#C5A4A2"/>
</linearGradient>
<linearGradient id="paint1_linear" x1="232.726" y1="66.3475" x2="317.501" y2="66.6588" gradientUnits="userSpaceOnUse">
<stop stop-color="#00283B"/>
<stop offset="0.0362" stop-color="#043044"/>
<stop offset="0.1205" stop-color="#0A3E54"/>
<stop offset="0.2296" stop-color="#0F485F"/>
<stop offset="0.3927" stop-color="#114E65"/>
<stop offset="1" stop-color="#124F67"/>
</linearGradient>
<linearGradient id="paint2_linear" x1="274.931" y1="195.732" x2="274.761" y2="155.799" gradientUnits="userSpaceOnUse">
<stop stop-color="#226CA2"/>
<stop offset="1" stop-color="#4A9DC6"/>
</linearGradient>
<linearGradient id="paint3_linear" x1="393.924" y1="261.322" x2="386.385" y2="66.6101" gradientUnits="userSpaceOnUse">
<stop stop-color="#226CA2"/>
<stop offset="0.3003" stop-color="#2672A2"/>
<stop offset="0.6923" stop-color="#3082A3"/>
<stop offset="1" stop-color="#3C94A4"/>
</linearGradient>
<linearGradient id="paint4_linear" x1="178.867" y1="203.876" x2="370.35" y2="202.771" gradientUnits="userSpaceOnUse">
<stop stop-color="#00283B"/>
<stop offset="0.0465" stop-color="#012A3E"/>
<stop offset="0.6559" stop-color="#0D455C"/>
<stop offset="1" stop-color="#124F67"/>
</linearGradient>
<linearGradient id="paint5_linear" x1="210.142" y1="142.869" x2="339.344" y2="142.028" gradientUnits="userSpaceOnUse">
<stop stop-color="#00283B"/>
<stop offset="0.0361" stop-color="#012A3E"/>
<stop offset="0.3832" stop-color="#0A3F55"/>
<stop offset="0.7117" stop-color="#104B62"/>
<stop offset="1" stop-color="#124F67"/>
</linearGradient>
<linearGradient id="paint6_linear" x1="228.593" y1="105.984" x2="321.029" y2="105.418" gradientUnits="userSpaceOnUse">
<stop stop-color="#00283B"/>
<stop offset="0.1582" stop-color="#07364B"/>
<stop offset="0.3837" stop-color="#0D445B"/>
<stop offset="0.6415" stop-color="#114C64"/>
<stop offset="1" stop-color="#124F67"/>
</linearGradient>
<linearGradient id="paint7_linear" x1="239.026" y1="85.8228" x2="310.62" y2="85.3013" gradientUnits="userSpaceOnUse">
<stop stop-color="#00283B"/>
<stop offset="0.000786304" stop-color="#00283B"/>
<stop offset="0.1646" stop-color="#08394F"/>
<stop offset="0.3525" stop-color="#0E465C"/>
<stop offset="0.5861" stop-color="#114D65"/>
<stop offset="1" stop-color="#124F67"/>
</linearGradient>
<linearGradient id="paint8_linear" x1="274.844" y1="139.829" x2="275.508" y2="65.2534" gradientUnits="userSpaceOnUse">
<stop stop-color="#276CA2"/>
<stop offset="1" stop-color="#4B9BC6"/>
</linearGradient>
<linearGradient id="paint9_linear" x1="155.982" y1="261.322" x2="163.521" y2="66.6101" gradientUnits="userSpaceOnUse">
<stop stop-color="#226CA2"/>
<stop offset="0.3003" stop-color="#2672A2"/>
<stop offset="0.6923" stop-color="#3082A3"/>
<stop offset="1" stop-color="#3C94A4"/>
</linearGradient>
<linearGradient id="paint10_linear" x1="170.922" y1="215.043" x2="170.091" y2="256.493" gradientUnits="userSpaceOnUse">
<stop stop-color="#124F67"/>
<stop offset="1" stop-color="#000B19"/>
</linearGradient>
<linearGradient id="paint11_linear" x1="201.304" y1="215.776" x2="200.484" y2="256.654" gradientUnits="userSpaceOnUse">
<stop stop-color="#124F67"/>
<stop offset="1" stop-color="#000B19"/>
</linearGradient>
<linearGradient id="paint12_linear" x1="238.081" y1="216.497" x2="237.261" y2="257.375" gradientUnits="userSpaceOnUse">
<stop stop-color="#124F67"/>
<stop offset="1" stop-color="#000B19"/>
</linearGradient>
<linearGradient id="paint13_linear" x1="274.857" y1="217.218" x2="274.038" y2="258.096" gradientUnits="userSpaceOnUse">
<stop stop-color="#124F67"/>
<stop offset="1" stop-color="#000B19"/>
</linearGradient>
<linearGradient id="paint14_linear" x1="311.634" y1="217.939" x2="310.814" y2="258.817" gradientUnits="userSpaceOnUse">
<stop stop-color="#124F67"/>
<stop offset="1" stop-color="#000B19"/>
</linearGradient>
<linearGradient id="paint15_linear" x1="348.411" y1="218.66" x2="347.591" y2="259.538" gradientUnits="userSpaceOnUse">
<stop stop-color="#124F67"/>
<stop offset="1" stop-color="#000B19"/>
</linearGradient>
<linearGradient id="paint16_linear" x1="379.233" y1="219.184" x2="378.409" y2="260.283" gradientUnits="userSpaceOnUse">
<stop stop-color="#124F67"/>
<stop offset="1" stop-color="#000B19"/>
</linearGradient>
<linearGradient id="paint17_linear" x1="256.776" y1="217.214" x2="255.955" y2="258.109" gradientUnits="userSpaceOnUse">
<stop stop-color="#124F67"/>
<stop offset="1" stop-color="#000B19"/>
</linearGradient>
<linearGradient id="paint18_linear" x1="293.553" y1="217.936" x2="292.732" y2="258.83" gradientUnits="userSpaceOnUse">
<stop stop-color="#124F67"/>
<stop offset="1" stop-color="#000B19"/>
</linearGradient>
<linearGradient id="paint19_linear" x1="330.329" y1="218.655" x2="329.509" y2="259.549" gradientUnits="userSpaceOnUse">
<stop stop-color="#124F67"/>
<stop offset="1" stop-color="#000B19"/>
</linearGradient>
<linearGradient id="paint20_linear" x1="367.106" y1="219.377" x2="366.286" y2="260.271" gradientUnits="userSpaceOnUse">
<stop stop-color="#124F67"/>
<stop offset="1" stop-color="#000B19"/>
</linearGradient>
<linearGradient id="paint21_linear" x1="183.222" y1="215.772" x2="182.401" y2="256.666" gradientUnits="userSpaceOnUse">
<stop stop-color="#124F67"/>
<stop offset="1" stop-color="#000B19"/>
</linearGradient>
<linearGradient id="paint22_linear" x1="219.999" y1="216.493" x2="219.178" y2="257.387" gradientUnits="userSpaceOnUse">
<stop stop-color="#124F67"/>
<stop offset="1" stop-color="#000B19"/>
</linearGradient>
<linearGradient id="paint23_linear" x1="150.511" y1="257.818" x2="398.515" y2="256.103" gradientUnits="userSpaceOnUse">
<stop stop-color="#00283B"/>
<stop offset="1" stop-color="#124F67"/>
</linearGradient>
</defs>
</svg>
