<svg width="117" height="152" viewBox="0 0 117 152" fill="none" xmlns="http://www.w3.org/2000/svg">
<path d="M41.8898 115.315C37.7524 110.778 35.617 105.306 35.617 98.9007C35.617 91.9611 37.7525 86.3562 42.1567 82.0857C46.4276 77.8152 52.1664 75.68 59.1065 75.68C66.0466 75.68 71.6521 77.8152 75.7894 82.2191C79.9268 86.623 82.0622 92.0946 82.0622 98.7672C82.0622 105.84 79.9268 111.579 75.6559 115.849C71.3851 120.12 65.7797 122.255 58.8396 122.255C51.6326 122.255 46.0272 119.853 41.8898 115.315ZM52.8338 0.145752L17.1991 53.1264C12.3945 60.4663 8.39059 67.6728 5.32094 74.8792C2.25129 82.0856 0.783203 89.9594 0.783203 98.6338C0.783203 106.641 2.25129 113.981 5.32094 120.52C8.39059 127.059 12.5279 132.531 17.733 137.202C22.938 141.739 29.0774 145.342 36.1509 147.744C43.091 150.146 50.6984 151.348 58.7062 151.348C66.5805 151.348 74.0544 150.146 81.1279 147.744C88.2015 145.342 94.3408 141.872 99.5459 137.202C104.751 132.664 109.022 127.059 111.958 120.387C115.028 113.714 116.496 106.241 116.496 97.9666C116.496 90.7601 115.161 84.2209 112.492 78.349C109.822 72.4771 106.352 67.4059 101.948 63.1354C97.5439 58.8649 92.4723 55.6621 86.5999 53.3934C80.7275 51.1247 74.5883 49.9236 68.182 49.9236C66.5805 49.9236 64.712 50.0571 62.8435 50.324C60.8416 50.5909 59.24 50.9912 57.9054 51.525L58.5727 50.4574L94.7412 0.145752H52.8338Z" fill="url(#paint0_linear)"/>
<defs>
<linearGradient id="paint0_linear" x1="0.823242" y1="75.7033" x2="154.509" y2="75.7033" gradientUnits="userSpaceOnUse">
<stop stop-color="#B93189"/>
<stop offset="0.14" stop-color="#BA3789"/>
<stop offset="0.3258" stop-color="#BC488C"/>
<stop offset="0.5374" stop-color="#BF5F92"/>
<stop offset="0.7681" stop-color="#C47A99"/>
<stop offset="1" stop-color="#CA989F"/>
</linearGradient>
</defs>
</svg>
