<svg width="112" height="152" viewBox="0 0 112 152" fill="none" xmlns="http://www.w3.org/2000/svg">
<path d="M40.3058 2.3469C34.5669 3.94833 29.3619 6.21704 24.5572 9.28645C19.7525 12.3559 15.6152 16.0925 12.1451 20.6299C8.6751 25.1673 6.00584 30.5054 4.27082 36.5107L35.9016 43.8506C36.9693 39.0463 39.3716 35.0428 42.8416 32.2403C46.4451 29.3044 50.716 27.8363 55.5206 27.8363C60.1918 27.8363 64.4627 29.1709 68.0662 31.9734C71.6697 34.6424 73.5382 38.646 73.5382 43.8506C73.5382 47.4538 72.8708 50.2564 71.4027 52.3916C69.9346 54.5269 68.0662 56.2618 65.6638 57.5963C63.2615 58.9308 60.5922 59.7315 57.656 60.2654C54.7199 60.7992 51.5167 60.9326 48.3136 60.9326H38.4374V85.6213H47.5129C50.9829 85.6213 54.5864 85.8882 58.0564 86.5554C61.5265 87.2227 64.7296 88.1569 67.5323 89.6249C70.335 91.0929 72.4704 92.9612 74.2055 95.3634C75.9405 97.7655 76.7413 100.835 76.7413 104.438C76.7413 107.774 76.074 110.71 74.8728 112.979C73.5382 115.248 71.9366 117.116 70.0681 118.584C68.0662 120.052 65.9308 121.12 63.395 121.787C60.8592 122.454 58.4568 122.855 56.0545 122.855C49.5148 122.855 44.1763 121.12 40.0389 117.516C35.9016 113.913 33.0988 109.776 31.7642 105.105L0 113.113C1.86848 119.919 4.67121 125.657 8.54164 130.461C12.2786 135.266 16.8163 139.136 21.8879 142.205C26.9595 145.275 32.565 147.543 38.7043 149.011C44.8436 150.479 51.1164 151.28 57.656 151.28C64.3292 151.28 70.8689 150.346 77.2751 148.611C83.6814 146.743 89.4203 144.074 94.6253 140.337C99.6969 136.6 103.968 131.929 107.037 126.191C110.24 120.452 111.842 113.646 111.842 105.773C111.842 101.769 111.175 97.899 109.84 94.2958C108.505 90.6925 106.637 87.4896 104.101 84.5537C101.699 81.6177 98.7627 79.2156 95.4261 77.0803C92.0895 74.9451 88.3526 73.4771 84.2152 72.5429V71.8757C91.2887 70.0073 97.0276 66.2707 101.565 60.7991C106.103 55.3276 108.372 48.5215 108.372 40.6478C108.372 33.7083 106.904 27.7029 103.968 22.6317C101.032 17.5605 97.2946 13.29 92.4899 9.95371C87.8187 6.6174 82.3467 4.08175 76.3409 2.48032C70.335 0.878889 64.1957 0.07819 57.7895 0.07819C51.9171 -0.0552626 46.0448 0.745469 40.3058 2.3469Z" fill="url(#paint0_linear)"/>
<defs>
<linearGradient id="paint0_linear" x1="0" y1="75.6482" x2="111.775" y2="75.6482" gradientUnits="userSpaceOnUse">
<stop stop-color="#B93189"/>
<stop offset="0.2905" stop-color="#B93489"/>
<stop offset="0.4568" stop-color="#BA3C8A"/>
<stop offset="0.5918" stop-color="#BC4A8D"/>
<stop offset="0.7099" stop-color="#BE5B91"/>
<stop offset="0.8171" stop-color="#C16E95"/>
<stop offset="0.9149" stop-color="#C5829A"/>
<stop offset="1" stop-color="#CA989F"/>
</linearGradient>
</defs>
</svg>
