<svg width="113" height="152" viewBox="0 0 113 152" fill="none" xmlns="http://www.w3.org/2000/svg">
<path d="M15.332 0.873901L11.8619 84.9491C17.067 82.9473 23.0728 81.4793 29.746 80.2782C36.4191 79.0772 42.425 78.5433 47.63 78.5433C51.2335 78.5433 54.837 78.9437 58.4405 79.611C62.044 80.2782 65.2472 81.4793 68.0499 83.2142C70.8526 84.9491 73.2549 87.2178 74.9899 90.1537C76.725 93.0897 77.6592 96.6929 77.6592 100.963C77.6592 108.036 75.5238 113.374 71.1195 116.978C66.7152 120.581 61.6436 122.316 55.6378 122.316C49.7654 122.316 44.8273 120.714 40.5565 117.378C36.2857 114.042 33.4829 109.905 31.8814 104.7L0.117188 114.442C1.71874 120.314 4.38799 125.519 7.85803 130.056C11.3281 134.727 15.5989 138.597 20.537 141.8C25.4752 145.003 30.9471 147.405 36.953 149.14C42.9588 150.875 49.2316 151.675 55.9047 151.675C63.1117 151.675 70.0518 150.608 76.8585 148.473C83.6651 146.337 89.6709 143.134 95.0094 138.864C100.348 134.593 104.619 129.122 107.822 122.583C111.025 116.044 112.627 108.17 112.627 99.2285C112.627 91.4882 111.292 84.6822 108.489 78.9437C105.686 73.0718 101.949 68.2675 97.1448 64.2639C92.3402 60.2603 86.7347 57.3244 80.195 55.456C73.6553 53.4542 66.7153 52.5201 59.5083 52.5201C57.2394 52.5201 54.8371 52.6535 52.1678 52.787C49.4985 53.0539 46.9627 53.3208 44.8273 53.988L46.0285 30.7673H105.153V0.873901H15.332Z" fill="url(#paint0_linear)"/>
<defs>
<linearGradient id="paint0_linear" x1="0.400129" y1="76.2939" x2="157.722" y2="76.2939" gradientUnits="userSpaceOnUse">
<stop stop-color="#B93189"/>
<stop offset="0.14" stop-color="#BA3789"/>
<stop offset="0.3258" stop-color="#BC488C"/>
<stop offset="0.5374" stop-color="#BF5F92"/>
<stop offset="0.7681" stop-color="#C47A99"/>
<stop offset="1" stop-color="#CA989F"/>
</linearGradient>
</defs>
</svg>
