<svg width="121" height="129" viewBox="0 0 121 129" fill="none" xmlns="http://www.w3.org/2000/svg">
<path d="M0.726125 99.4889C12.2808 112.914 27.7245 122.502 44.967 126.956C60.477 130.102 76.5929 128.376 91.0627 122.016C98.279 118.732 104.829 114.171 110.389 108.558C110.628 108.155 110.701 107.677 110.593 107.222C110.485 106.768 110.205 106.371 109.811 106.115C109.064 105.843 108.245 105.838 107.496 106.101C96.9046 111.546 85.5296 115.346 73.7703 117.366C61.4386 118.712 48.963 117.855 36.9372 114.837C24.6371 110.806 13.0195 104.966 2.47389 97.5159C2.20504 97.4296 1.91653 97.4231 1.64399 97.4972C1.37145 97.5713 1.12682 97.7229 0.940304 97.933C0.75379 98.1432 0.633563 98.4028 0.594472 98.6798C0.555381 98.9568 0.599137 99.2391 0.720338 99.4918L0.726125 99.4889Z" fill="white"/>
<path d="M98.7245 102.274C103.388 101.378 108.159 101.162 112.886 101.635L113.08 101.673C113.824 101.851 114.467 102.315 114.867 102.962C115.267 103.61 115.391 104.388 115.212 105.126C114.287 109.683 112.817 114.116 110.834 118.33C110.777 118.514 110.795 118.713 110.885 118.884C110.975 119.054 111.13 119.183 111.315 119.242C111.423 119.275 111.538 119.283 111.65 119.264C111.762 119.246 111.868 119.202 111.96 119.135C114.751 116.914 117.006 114.104 118.564 110.911C120.121 107.718 120.94 104.221 120.962 100.675C121.032 99.793 120.768 98.9164 120.221 98.2162C119.675 97.516 118.885 97.0422 118.005 96.887C111.075 95.7047 103.951 97.1757 98.0764 101.002C97.9187 101.116 97.8129 101.286 97.782 101.477C97.7511 101.668 97.7976 101.863 97.9114 102.019C98.0028 102.141 98.1305 102.231 98.2764 102.277C98.4223 102.323 98.5791 102.322 98.7245 102.274Z" fill="white"/>
<path d="M74.7281 84.0799C72.2355 86.811 69.427 89.2425 66.3607 91.3245C60.5102 94.7458 53.8598 96.5993 47.0651 96.7021C41.057 96.5723 35.2406 94.5848 30.4314 91.0181C26.5024 87.4632 23.673 82.878 22.2717 77.7952C20.8705 72.7124 20.955 67.3404 22.5153 62.3032C24.013 57.8408 26.4808 53.7576 29.745 50.341C33.0093 46.9244 36.9906 44.2575 41.4087 42.528C51.2365 39.6055 61.4399 38.1057 71.7017 38.0753V27.406C71.3677 25.0476 70.2575 22.8639 68.543 21.193C66.8285 19.5221 64.6053 18.457 62.2174 18.1627C59.1598 17.7506 56.0464 18.1539 53.199 19.331C51.1973 20.2631 49.4445 21.6468 48.0812 23.371C46.718 25.0951 45.7823 27.1117 45.3494 29.2587C45.0305 29.9225 44.5048 30.4677 43.8497 30.814C43.1946 31.1604 42.4445 31.2897 41.7096 31.1829L26.9826 29.8944C26.3236 29.718 25.7363 29.3433 25.3019 28.8221C24.8675 28.3009 24.6075 27.6589 24.558 26.9851C25.7369 19.8548 29.503 13.3949 35.1505 8.81631C42.6274 3.0884 51.8521 0.050611 61.306 0.202974C70.0662 0.282306 78.5855 3.05076 85.688 8.12621C88.6245 10.5817 90.9524 13.6714 92.4923 17.1574C94.0323 20.6434 94.7433 24.4328 94.5705 28.2335V65.1466C94.7529 68.2518 95.5388 71.293 96.8852 74.1036L101.477 80.7554C101.72 81.2574 101.846 81.8068 101.846 82.3633C101.846 82.9198 101.72 83.4692 101.477 83.9711L87.8812 95.342C87.3139 95.6469 86.6746 95.7961 86.0295 95.7739C85.3843 95.7518 84.757 95.5591 84.2124 95.216C80.6689 91.8399 77.4904 88.1078 74.7281 84.0799ZM71.6612 50.6259C67.4016 50.5413 63.1425 50.8181 58.9306 51.4535C56.3861 52.0192 53.9939 53.1187 51.9155 54.6777C49.8371 56.2367 48.1209 58.219 46.8829 60.4906C45.8615 62.9716 45.4113 65.6465 45.565 68.3211C45.7186 70.9958 46.4722 73.603 47.7711 75.9534C49.3571 77.9145 51.5422 79.3144 53.9994 79.9436C56.4565 80.5729 59.0535 80.3976 61.4015 79.444C64.174 77.6845 66.5273 75.3502 68.2987 72.6023C70.0701 69.8544 71.2174 66.7585 71.6612 63.5288V50.6259Z" fill="white"/>
</svg>
