<svg width="130" height="78" viewBox="0 0 130 78" fill="none" xmlns="http://www.w3.org/2000/svg">
<path d="M21.0368 0.270752V18.2309H0.29541V61.665H34.0002V0.270752H21.0368ZM21.0368 51.5853H13.2588V28.677H21.0368V51.5853Z" fill="white"/>
<path d="M39.1816 18.2305H52.145V61.8479H39.1816V18.2305Z" fill="white"/>
<path d="M39.1816 0.270508H52.145V13.0992H39.1816V0.270508Z" fill="white"/>
<path d="M57.334 18.2305V61.6646H78.0754V66.7961H57.334V77.2422H91.0388V18.2305H57.334ZM78.0754 51.5849H70.2974V28.6767H78.0754V51.5849Z" fill="white"/>
<path d="M96.2244 18.2305V61.6646H116.966V66.7961H96.2244V77.2422H129.929V18.2305H96.2244ZM116.966 51.5849H109.188V28.6767H116.966V51.5849Z" fill="white"/>
</svg>
