<svg width="103" height="83" viewBox="0 0 103 83" fill="none" xmlns="http://www.w3.org/2000/svg">
<path d="M32.2161 82.3042C40.0364 82.3529 47.7887 80.8645 55.0233 77.9253C62.2579 74.9862 68.8308 70.6547 74.3607 65.1823C79.8906 59.7098 84.2676 53.2053 87.2376 46.0459C90.2076 38.8865 91.7117 31.2148 91.6625 23.4757V20.7726C95.7163 17.8334 99.2251 14.2216 102.033 10.0973C98.216 11.7494 94.177 12.8451 90.0421 13.3503C94.4261 10.7652 97.7155 6.69618 99.3016 1.89612C95.216 4.32184 90.7357 6.02711 86.0605 6.93595C82.9119 3.61592 78.7454 1.4153 74.2057 0.674586C69.6661 -0.0661296 65.0062 0.69435 60.9473 2.83836C56.8884 4.98237 53.6566 8.39038 51.7519 12.5351C49.8473 16.6798 49.3761 21.3301 50.4111 25.7666C42.1054 25.3631 33.9787 23.233 26.5601 19.5149C19.1416 15.7968 12.5975 10.5742 7.35414 4.18695C4.71018 8.72818 3.90878 14.094 5.11222 19.1979C6.31565 24.3019 9.43398 28.7626 13.8358 31.6769C10.5886 31.553 7.41643 30.674 4.57627 29.1112V29.3403C4.54742 34.0861 6.163 38.6984 9.15376 42.4084C12.1445 46.1184 16.3298 48.702 21.012 49.7286C17.9917 50.5325 14.828 50.6578 11.7524 50.0952C13.108 54.1426 15.6955 57.6758 19.1603 60.2105C22.6251 62.7451 26.7973 64.157 31.1049 64.2525C23.7399 70.1194 14.5863 73.3488 5.13185 73.4158C3.47417 73.3683 1.82038 73.2307 0.177979 73.0035C9.74753 79.037 20.8694 82.2181 32.2161 82.1668" fill="white"/>
</svg>
