<svg width="131" height="129" viewBox="0 0 131 129" fill="none" xmlns="http://www.w3.org/2000/svg">
<path d="M65.44 0.202881C29.6547 0.202881 0.623047 28.9325 0.623047 64.3456C0.623047 99.7587 29.6547 128.488 65.44 128.488C101.225 128.488 130.257 99.7902 130.257 64.3456C130.257 28.901 101.225 0.202881 65.44 0.202881ZM106.593 29.7687C114.093 38.4933 118.557 49.3744 119.325 60.8034C107.643 60.2021 93.6672 60.2021 82.4603 61.2387C81.0424 57.6965 79.5898 54.2231 78.0041 50.8814C90.927 45.3376 100.887 38.0528 106.593 29.7687ZM65.44 10.8924C78.03 10.871 90.2283 15.2224 99.9088 23.1883C94.0347 30.5361 84.8186 36.9332 73.3396 41.7611C67.0604 30.2698 59.8351 20.3821 52.1294 12.5962C56.4779 11.4853 60.949 10.913 65.44 10.8924ZM40.9977 16.7397C48.796 24.4225 56.1226 34.2071 62.5377 45.6612C50.3498 49.3465 36.3737 51.4598 21.4571 51.4598C18.6213 51.4598 15.855 51.3596 13.1206 51.1906C15.0227 43.816 18.4934 36.928 23.3008 30.9869C28.1082 25.0459 34.1415 20.1886 40.9977 16.7397ZM11.5262 61.8057C14.5992 61.9403 17.7041 62.0061 20.8436 61.9746C37.8581 61.7742 53.692 59.134 67.2977 54.8158C68.5806 57.456 69.7959 60.162 70.9437 62.9339C69.2997 63.2901 67.6853 63.7687 66.1142 64.3657C47.5141 72.0971 32.8637 84.5563 24.9294 99.6241C16.2293 89.8889 11.4263 77.3417 11.4249 64.3456C11.4249 63.4866 11.4596 62.6418 11.5262 61.8057ZM65.44 117.799C53.4397 117.813 41.7802 113.849 32.3226 106.54C39.5132 92.4424 52.3406 80.7679 68.513 73.5318C70.0322 72.8302 72.0577 72.2632 74.3871 71.7621C76.3162 77.0386 78.0379 82.5175 79.5522 88.1987C81.8139 96.7733 83.4797 105.491 84.5379 114.291C78.4412 116.603 71.9688 117.791 65.44 117.799ZM94.6424 109.28C93.5861 100.389 91.9047 91.581 89.6104 82.9212C88.4529 78.5773 87.1479 74.3679 85.73 70.2588C96.3294 69.3997 109.024 69.5228 119.117 70.2588C118.227 78.155 115.569 85.7553 111.335 92.5058C107.101 99.2563 101.398 104.987 94.6424 109.28Z" fill="white"/>
</svg>
