<svg width="68" height="68" viewBox="0 0 68 68" fill="none" xmlns="http://www.w3.org/2000/svg">
<path d="M60.27 8.93241C58.9982 6.27531 56.9918 4.0382 54.4882 2.48585C51.9847 0.933503 49.0888 0.130918 46.1433 0.173089C43.1979 0.21526 40.3262 1.10042 37.8681 2.7238C35.41 4.34719 33.4685 6.64082 32.2733 9.33324H18.5833C16.13 9.33324 13.7773 10.3078 12.0425 12.0425C10.3078 13.7772 9.33328 16.13 9.33328 18.5832V30.9166C9.33328 31.7343 9.65813 32.5186 10.2364 33.0968C10.8146 33.6751 11.5989 33.9999 12.4166 33.9999C13.2344 33.9999 14.0186 33.6751 14.5969 33.0968C15.1751 32.5186 15.5 31.7343 15.5 30.9166V18.5832C15.5 17.7655 15.8248 16.9812 16.403 16.403C16.9813 15.8248 17.7655 15.4999 18.5833 15.4999H27.1549C25.6201 17.1885 24.7636 19.3847 24.75 21.6666C24.75 24.1198 25.7245 26.4726 27.4592 28.2073C29.1939 29.942 31.5467 30.9166 34 30.9166H56.6008C59.2856 30.9359 61.8893 29.9974 63.9444 28.2696C65.9994 26.5418 67.3711 24.1379 67.8131 21.4896C68.2551 18.8414 67.7384 16.1223 66.3559 13.8208C64.9734 11.5192 62.8155 9.78602 60.27 8.93241ZM56.6008 24.7499H34C33.1822 24.7499 32.3979 24.4251 31.8197 23.8468C31.2415 23.2686 30.9166 22.4843 30.9166 21.6666C30.9166 20.8488 31.2415 20.0646 31.8197 19.4863C32.3979 18.9081 33.1822 18.5832 34 18.5832C34.8177 18.5832 35.602 18.2584 36.1802 17.6802C36.7584 17.1019 37.0833 16.3177 37.0833 15.4999C37.0584 13.2995 37.8188 11.1623 39.2279 9.47211C40.637 7.7819 42.6025 6.64942 44.7715 6.27802C46.9405 5.90662 49.1708 6.32063 51.062 7.44572C52.9532 8.57081 54.3813 10.3333 55.09 12.4166C55.2662 12.9464 55.583 13.4184 56.0066 13.7823C56.4302 14.1461 56.9446 14.3881 57.495 14.4824C58.7007 14.6822 59.7943 15.3093 60.5756 16.2492C61.3569 17.189 61.7738 18.3788 61.75 19.6007C61.75 20.2769 61.6168 20.9465 61.358 21.5712C61.0992 22.196 60.7199 22.7636 60.2418 23.2418C59.7637 23.7199 59.196 24.0992 58.5713 24.358C57.9466 24.6167 57.277 24.7499 56.6008 24.7499ZM55.5833 37.0832C54.7655 37.0832 53.9813 37.4081 53.403 37.9863C52.8248 38.5646 52.5 39.3488 52.5 40.1666V49.4166C52.5 50.2343 52.1751 51.0186 51.5969 51.5968C51.0186 52.1751 50.2344 52.4999 49.4166 52.4999H42.4483C41.8524 50.974 40.9314 49.5961 39.7494 48.462C38.5673 47.3279 37.1525 46.4647 35.6033 45.9324C34.206 42.9672 31.9001 40.5245 29.0201 38.9591C26.1402 37.3936 22.8363 36.7868 19.5881 37.2267C16.3398 37.6667 13.3164 39.1306 10.9567 41.4058C8.59698 43.681 7.02388 46.649 6.46578 49.8791C4.3777 50.5654 2.60224 51.9728 1.45753 53.8491C0.312812 55.7255 -0.126346 57.9482 0.218741 60.1189C0.563829 62.2896 1.67061 64.2665 3.34077 65.6953C5.01093 67.1242 7.13532 67.9116 9.33328 67.9166H31.9341C34.5741 67.9166 37.1305 66.991 39.1586 65.3009C41.1867 63.6109 42.5581 61.2633 43.0341 58.6666H49.4166C51.8699 58.6666 54.2226 57.692 55.9574 55.9573C57.6921 54.2226 58.6666 51.8698 58.6666 49.4166V40.1666C58.6666 39.3488 58.3418 38.5646 57.7635 37.9863C57.1853 37.4081 56.401 37.0832 55.5833 37.0832ZM31.9341 61.7499H9.33328C8.51553 61.7499 7.73128 61.4251 7.15304 60.8468C6.5748 60.2686 6.24995 59.4843 6.24995 58.6666C6.24995 57.8488 6.5748 57.0646 7.15304 56.4863C7.73128 55.9081 8.51553 55.5832 9.33328 55.5832C10.151 55.5832 10.9353 55.2584 11.5135 54.6802C12.0918 54.1019 12.4166 53.3177 12.4166 52.4999C12.3917 50.2995 13.1521 48.1623 14.5612 46.4721C15.9703 44.7819 17.9359 43.6494 20.1048 43.278C22.2738 42.9066 24.5041 43.3206 26.3953 44.4457C28.2865 45.5708 29.7147 47.3333 30.4233 49.4166C30.5995 49.9464 30.9163 50.4184 31.3399 50.7823C31.7635 51.1461 32.2779 51.3881 32.8283 51.4824C34.0341 51.6822 35.1276 52.3093 35.9089 53.2492C36.6903 54.189 37.1071 55.3788 37.0833 56.6007C37.0833 57.2769 36.9501 57.9465 36.6913 58.5712C36.4326 59.196 36.0533 59.7636 35.5751 60.2417C35.097 60.7199 34.5293 61.0992 33.9046 61.3579C33.2799 61.6167 32.6103 61.7499 31.9341 61.7499Z" fill="url(#paint0_linear)"/>
<defs>
<linearGradient id="paint0_linear" x1="0.497033" y1="11.1572" x2="57.9751" y2="82.1018" gradientUnits="userSpaceOnUse">
<stop stop-color="#16C1DD"/>
<stop offset="1" stop-color="#16C6E0"/>
</linearGradient>
</defs>
</svg>
