<svg width="66" height="74" viewBox="0 0 66 74" fill="none" xmlns="http://www.w3.org/2000/svg">
<path fill-rule="evenodd" clip-rule="evenodd" d="M14.5 6.9375H9.875C7.42175 6.9375 5.06897 7.91205 3.33426 9.64676C1.59955 11.3815 0.625 13.7342 0.625 16.1875V64.75C0.625 67.2033 1.59955 69.556 3.33426 71.2907C5.06897 73.0254 7.42175 74 9.875 74H56.125C58.5783 74 60.931 73.0254 62.6657 71.2907C64.4004 69.556 65.375 67.2033 65.375 64.75V16.1875C65.375 13.7342 64.4004 11.3815 62.6657 9.64676C60.931 7.91205 58.5783 6.9375 56.125 6.9375H51.5V11.5625H56.125C57.3516 11.5625 58.528 12.0498 59.3954 12.9171C60.2627 13.7845 60.75 14.9609 60.75 16.1875V64.75C60.75 65.9766 60.2627 67.153 59.3954 68.0204C58.528 68.8877 57.3516 69.375 56.125 69.375H9.875C8.64837 69.375 7.47199 68.8877 6.60463 68.0204C5.73728 67.153 5.25 65.9766 5.25 64.75V16.1875C5.25 14.9609 5.73728 13.7845 6.60463 12.9171C7.47199 12.0498 8.64837 11.5625 9.875 11.5625H14.5V6.9375Z" fill="url(#paint0_linear)"/>
<path fill-rule="evenodd" clip-rule="evenodd" d="M39.9375 4.625H26.0625C25.4492 4.625 24.861 4.86864 24.4273 5.30232C23.9936 5.73599 23.75 6.32419 23.75 6.9375V11.5625C23.75 12.1758 23.9936 12.764 24.4273 13.1977C24.861 13.6314 25.4492 13.875 26.0625 13.875H39.9375C40.5508 13.875 41.139 13.6314 41.5727 13.1977C42.0064 12.764 42.25 12.1758 42.25 11.5625V6.9375C42.25 6.32419 42.0064 5.73599 41.5727 5.30232C41.139 4.86864 40.5508 4.625 39.9375 4.625ZM26.0625 0C24.2226 0 22.458 0.730913 21.1569 2.03195C19.8559 3.33298 19.125 5.09756 19.125 6.9375V11.5625C19.125 13.4024 19.8559 15.167 21.1569 16.4681C22.458 17.7691 24.2226 18.5 26.0625 18.5H39.9375C41.7774 18.5 43.542 17.7691 44.8431 16.4681C46.1441 15.167 46.875 13.4024 46.875 11.5625V6.9375C46.875 5.09756 46.1441 3.33298 44.8431 2.03195C43.542 0.730913 41.7774 0 39.9375 0H26.0625Z" fill="url(#paint1_linear)"/>
<path d="M14.5 50.875C14.5 49.6484 14.9873 48.472 15.8546 47.6046C16.722 46.7373 17.8984 46.25 19.125 46.25C20.3516 46.25 21.528 46.7373 22.3954 47.6046C23.2627 48.472 23.75 49.6484 23.75 50.875V55.5C23.75 56.7266 23.2627 57.903 22.3954 58.7704C21.528 59.6377 20.3516 60.125 19.125 60.125C17.8984 60.125 16.722 59.6377 15.8546 58.7704C14.9873 57.903 14.5 56.7266 14.5 55.5V50.875ZM42.25 32.375C42.25 31.1484 42.7373 29.972 43.6046 29.1046C44.472 28.2373 45.6484 27.75 46.875 27.75C48.1016 27.75 49.278 28.2373 50.1454 29.1046C51.0127 29.972 51.5 31.1484 51.5 32.375V55.5C51.5 56.7266 51.0127 57.903 50.1454 58.7704C49.278 59.6377 48.1016 60.125 46.875 60.125C45.6484 60.125 44.472 59.6377 43.6046 58.7704C42.7373 57.903 42.25 56.7266 42.25 55.5V32.375ZM28.375 41.625C28.375 40.3984 28.8623 39.222 29.7296 38.3546C30.597 37.4873 31.7734 37 33 37C34.2266 37 35.403 37.4873 36.2704 38.3546C37.1377 39.222 37.625 40.3984 37.625 41.625V55.5C37.625 56.7266 37.1377 57.903 36.2704 58.7704C35.403 59.6377 34.2266 60.125 33 60.125C31.7734 60.125 30.597 59.6377 29.7296 58.7704C28.8623 57.903 28.375 56.7266 28.375 55.5V41.625Z" fill="url(#paint2_linear)"/>
<defs>
<linearGradient id="paint0_linear" x1="0.999999" y1="12" x2="65" y2="81" gradientUnits="userSpaceOnUse">
<stop stop-color="#15B8D8"/>
<stop offset="1" stop-color="#16C6E0"/>
</linearGradient>
<linearGradient id="paint1_linear" x1="0.999999" y1="12" x2="65" y2="81" gradientUnits="userSpaceOnUse">
<stop stop-color="#15B8D8"/>
<stop offset="1" stop-color="#16C6E0"/>
</linearGradient>
<linearGradient id="paint2_linear" x1="0.999999" y1="12" x2="65" y2="81" gradientUnits="userSpaceOnUse">
<stop stop-color="#15B8D8"/>
<stop offset="1" stop-color="#16C6E0"/>
</linearGradient>
</defs>
</svg>
