<svg width="74" height="74" viewBox="0 0 74 74" fill="none" xmlns="http://www.w3.org/2000/svg">
<path d="M70.9648 46.25H67.4961L65.0391 17.9219C64.9427 15.513 64.0033 13.4655 62.2207 11.7793C60.4382 10.0931 58.3906 9.25 56.0781 9.25H40.0352V3.03516C40.0352 1.01172 39.0234 0 37 0C34.9766 0 33.9648 1.01172 33.9648 3.03516V9.25H17.9219C15.6094 9.25 13.5618 10.0931 11.7793 11.7793C9.99675 13.4655 9.05729 15.513 8.96094 17.9219L6.50391 46.25H3.03516C2.16797 46.25 1.44531 46.5391 0.867188 47.1172C0.289062 47.6953 0 48.418 0 49.2852C0 50.2487 0.289062 51.0195 0.867188 51.5977C1.44531 52.1758 2.16797 52.4648 3.03516 52.4648H14.4531L9.25 69.9531C8.96094 70.724 9.05729 71.4948 9.53906 72.2656C10.0208 73.0365 10.6471 73.5182 11.418 73.7109H12.2852C13.5378 73.7109 14.5977 72.9883 15.4648 71.543L20.957 52.4648H33.9648V64.75C33.9648 66.7734 34.9766 67.7852 37 67.7852C39.0234 67.7852 40.0352 66.7734 40.0352 64.75V52.4648H53.043L58.5352 71.832C58.8242 73.2773 59.8841 74 61.7148 74H62.582C64.4128 73.3255 65.1354 72.0729 64.75 70.2422L59.5469 52.4648H70.9648C71.832 52.4648 72.5547 52.1758 73.1328 51.5977C73.7109 51.0195 74 50.2487 74 49.2852C74 48.418 73.7109 47.6953 73.1328 47.1172C72.5547 46.5391 71.832 46.25 70.9648 46.25ZM12.5742 46.25L15.1758 18.2109C15.1758 17.4401 15.4889 16.7897 16.1152 16.2598C16.7415 15.7298 17.4401 15.4648 18.2109 15.4648H56.0781C56.9453 15.4648 57.6921 15.7298 58.3184 16.2598C58.9447 16.7897 59.2578 17.4401 59.2578 18.2109L61.7148 46.25H12.5742ZM46.8281 19.8008C42.1068 26.0638 39.5534 29.4362 39.168 29.918C35.7956 27.6055 33.5312 26.0638 32.375 25.293L30.207 23.4141L19.0781 38.3008C18.5964 38.8789 18.4277 39.6257 18.5723 40.541C18.7168 41.4564 19.1263 42.1068 19.8008 42.4922C20.4753 42.974 21.0534 43.2148 21.5352 43.2148C22.6914 43.2148 23.5104 42.7812 23.9922 41.9141L31.5078 32.0859C35.1693 34.5911 37.4577 36.0846 38.373 36.5664C39.2884 37.0482 40.0833 37.1927 40.7578 37L41.9141 36.7109L42.4922 35.6992C42.7812 35.3138 43.4316 34.4707 44.4434 33.1699C45.4551 31.8691 46.6836 30.207 48.1289 28.1836C49.5742 26.1602 50.6823 24.6667 51.4531 23.7031C51.9349 23.125 52.1276 22.3783 52.0312 21.4629C51.9349 20.5475 51.5495 19.849 50.875 19.3672C50.3932 18.7891 49.7188 18.5482 48.8516 18.6445C47.9844 18.7409 47.3099 19.1263 46.8281 19.8008Z" fill="url(#paint0_linear)"/>
<defs>
<linearGradient id="paint0_linear" x1="0.428571" y1="12" x2="63.2362" y2="89.388" gradientUnits="userSpaceOnUse">
<stop stop-color="#16C1DD"/>
<stop offset="1" stop-color="#16C6E0"/>
</linearGradient>
</defs>
</svg>
