<svg width="68" height="65" viewBox="0 0 68 65" fill="none" xmlns="http://www.w3.org/2000/svg">
<path d="M4.22244 36.4934V15.2595C4.22244 13.9234 8.51855 11.4773 15.528 11.4773C22.5374 11.4773 26.8336 13.944 26.8336 15.2595V18.939C28.1956 18.7285 29.5679 18.5913 30.9447 18.5279V15.2595C30.9447 10.0795 23.1952 7.36621 15.528 7.36621C7.86077 7.36621 0.111328 10.1001 0.111328 15.2595V36.4934C0.111328 40.9334 5.80522 43.544 12.2391 44.2223V40.1112C7.22355 39.4534 4.22244 37.6034 4.22244 36.4934Z" fill="url(#paint0_linear)"/>
<path d="M46.6697 37.0688C44.9225 39.1244 39.6397 41.18 33.0002 41.18C30.2231 41.2087 27.4555 40.849 24.778 40.1111V43.1122C27.4684 43.7723 30.2301 44.0968 33.0002 44.0783C37.7635 44.2715 42.4893 43.1629 46.6697 40.8716V47.285C44.9225 49.3405 39.6397 51.3961 33.0002 51.3961C30.2221 51.4182 27.4545 51.0515 24.778 50.3066V53.3077C27.4684 53.9678 30.2301 54.2923 33.0002 54.2738C37.7635 54.467 42.4893 53.3584 46.6697 51.0672V55.7744C46.6697 57.7272 41.2225 60.6666 33.0002 60.6666C24.778 60.6666 19.3308 57.7272 19.3308 55.7744V30.3061C19.3308 28.3533 24.778 25.4138 33.0002 25.4138H34.5419C34.1094 24.0848 34.0525 22.6621 34.3775 21.3027H33.0208C22.8869 21.3027 15.2402 25.1672 15.2402 30.3061V55.61C15.2402 60.7488 22.8869 64.6133 33.0208 64.6133C43.1547 64.6133 50.8013 60.7488 50.8013 55.61V30.6555H46.6902L46.6697 37.0688Z" fill="url(#paint1_linear)"/>
<path d="M41.2224 8.86658C37.6252 10.1616 35.0557 12.3199 35.0557 15.2799V18.5277H35.5696L41.2224 8.86658Z" fill="url(#paint2_linear)"/>
<path d="M65.2312 30.6557H61.7779V36.4935C61.7779 37.6035 58.7768 39.4535 53.7612 40.0496V44.1607C60.1951 43.503 65.889 40.8718 65.889 36.4524V30.6146L65.2312 30.6557Z" fill="url(#paint3_linear)"/>
<path d="M51.1918 1.34341L39.434 21.6112C39.1604 22.0127 39.0034 22.4821 38.9803 22.9674C38.9572 23.4527 39.0689 23.9349 39.303 24.3606C39.5371 24.7863 39.8846 25.1389 40.3068 25.3792C40.729 25.6196 41.2095 25.7383 41.6951 25.7223H65.2312C65.7168 25.7383 66.1973 25.6196 66.6195 25.3792C67.0418 25.1389 67.3892 24.7863 67.6233 24.3606C67.8575 23.9349 67.9691 23.4527 67.946 22.9674C67.9229 22.4821 67.7659 22.0127 67.4923 21.6112L55.7345 1.34341C55.5027 0.946803 55.171 0.617823 54.7725 0.389201C54.374 0.160578 53.9226 0.0402832 53.4632 0.0402832C53.0037 0.0402832 52.5523 0.160578 52.1538 0.389201C51.7553 0.617823 51.4236 0.946803 51.1918 1.34341Z" fill="url(#paint4_linear)"/>
<defs>
<linearGradient id="paint0_linear" x1="0.50421" y1="10.5116" x2="54.6945" y2="80.6576" gradientUnits="userSpaceOnUse">
<stop stop-color="#16C1DD"/>
<stop offset="1" stop-color="#16C6E0"/>
</linearGradient>
<linearGradient id="paint1_linear" x1="0.50421" y1="10.5116" x2="54.6945" y2="80.6576" gradientUnits="userSpaceOnUse">
<stop stop-color="#16C1DD"/>
<stop offset="1" stop-color="#16C6E0"/>
</linearGradient>
<linearGradient id="paint2_linear" x1="0.50421" y1="10.5116" x2="54.6945" y2="80.6576" gradientUnits="userSpaceOnUse">
<stop stop-color="#16C1DD"/>
<stop offset="1" stop-color="#16C6E0"/>
</linearGradient>
<linearGradient id="paint3_linear" x1="0.50421" y1="10.5116" x2="54.6945" y2="80.6576" gradientUnits="userSpaceOnUse">
<stop stop-color="#16C1DD"/>
<stop offset="1" stop-color="#16C6E0"/>
</linearGradient>
<linearGradient id="paint4_linear" x1="0.50421" y1="10.5116" x2="54.6945" y2="80.6576" gradientUnits="userSpaceOnUse">
<stop stop-color="#16C1DD"/>
<stop offset="1" stop-color="#16C6E0"/>
</linearGradient>
</defs>
</svg>
