<svg width="109" height="68" viewBox="0 0 109 68" fill="none" xmlns="http://www.w3.org/2000/svg">
<g clip-path="url(#clip0)">
<path d="M6.15532 25.2989L0 28.4036L0.124236 53.1401L6.27956 50.0354L6.15532 25.2989Z" fill="url(#paint0_linear)"/>
<path d="M6.27955 50.0804V50.0354L0.124229 53.1401V53.1739L20.0584 68L26.2138 64.9065L6.27955 50.0804Z" fill="url(#paint1_linear)"/>
<path d="M6.27955 50.0804L26.2138 64.9065L26.1008 40.1251L6.15532 25.2989L6.27955 50.0354V50.0804Z" fill="url(#paint2_linear)"/>
<path d="M18.8161 13.78L11.0457 17.6946L11.1925 48.9105L18.9742 45.0071L18.8161 13.78Z" fill="url(#paint3_linear)"/>
<path d="M18.9742 45.0634V45.0071L11.1925 48.9105V48.9667L36.3672 67.6738L44.1376 63.7591L18.9742 45.0634Z" fill="url(#paint4_linear)"/>
<path d="M18.9742 45.0633L44.1376 63.7591L43.9795 32.487L18.8161 13.78L18.9742 45.0071V45.0633Z" fill="url(#paint5_linear)"/>
<path d="M34.0519 0L24.3276 4.8933L24.5196 43.9947L34.2439 39.1014L34.0519 0Z" fill="url(#paint6_linear)"/>
<path d="M34.2439 39.1689V39.1014L24.5196 43.9947V44.0622L56.0417 67.4938L65.7772 62.6005L34.2439 39.1689Z" fill="url(#paint7_linear)"/>
<path d="M34.2439 39.1689L65.7772 62.6005L65.5852 23.4316L34.0519 0L34.2439 39.1014V39.1689Z" fill="url(#paint8_linear)"/>
<path d="M73.8079 22.318H77.7044C78.3934 22.318 79.0371 22.453 79.647 22.7342C80.2569 23.0154 80.7764 23.3754 81.2282 23.8366C81.68 24.2978 82.0414 24.8377 82.3011 25.4452C82.5609 26.0526 82.6964 26.6938 82.6964 27.3688C82.6964 28.0324 82.5722 28.6624 82.3124 29.2811C82.0527 29.8885 81.7025 30.4285 81.2508 30.8897C80.799 31.3509 80.2682 31.7221 79.6696 32.0033C79.0597 32.2845 78.4159 32.4195 77.7157 32.4195H73.8192V22.318H73.8079ZM76.4395 30.1922H77.0494C77.5011 30.1922 77.919 30.1247 78.2691 29.9785C78.6305 29.8323 78.9355 29.641 79.1727 29.3936C79.4211 29.1461 79.6018 28.8424 79.7374 28.5049C79.8729 28.1562 79.9294 27.785 79.9294 27.3688C79.9294 26.9638 79.8616 26.5926 79.7261 26.2439C79.5905 25.8951 79.3985 25.5914 79.1501 25.3439C78.9016 25.0965 78.5966 24.894 78.2465 24.759C77.8851 24.6128 77.4898 24.5453 77.0381 24.5453H76.4282L76.4395 30.1922Z" fill="white"/>
<path d="M89.6192 30.6647H85.8583L85.2484 32.4195H82.4361L86.2987 22.318H89.1787L93.0413 32.4195H90.2291L89.6192 30.6647ZM88.919 28.6624L87.7331 25.2989L86.5472 28.6624H88.919Z" fill="white"/>
<path d="M97.0508 24.5453V32.4195H94.4192V24.5453H92.2508V22.318H99.2193V24.5453H97.0508Z" fill="white"/>
<path d="M105.589 30.6647H101.828L101.218 32.4195H98.4061L102.269 22.318H105.149L109.011 32.4195H106.199L105.589 30.6647ZM104.889 28.6624L103.703 25.2989L102.517 28.6624H104.889Z" fill="white"/>
<path d="M79.6126 37.8978H76.4389V39.5851H79.3302V41.8124H76.4389V45.7721H73.8074V35.6705H79.6126V37.8978Z" fill="white"/>
<path d="M86.4117 37.8978H83.2832V39.5851H86.2423V41.8124H83.2832V43.556H86.4117V45.7833H80.6404V35.6817H86.4117V37.8978Z" fill="white"/>
<path d="M93.335 38.2578C93.0526 38.0215 92.759 37.8528 92.4766 37.7403C92.1943 37.6278 91.9119 37.5716 91.6409 37.5716C91.302 37.5716 91.0197 37.6503 90.8051 37.8078C90.5905 37.9653 90.4889 38.179 90.4889 38.4377C90.4889 38.6177 90.5453 38.764 90.647 38.8765C90.7599 38.9889 90.8955 39.0902 91.0762 39.1802C91.2456 39.2702 91.4489 39.3377 91.6635 39.4052C91.8893 39.4726 92.1039 39.5289 92.3185 39.6076C93.1769 39.8889 93.8093 40.2713 94.2046 40.755C94.5999 41.2275 94.8032 41.8574 94.8032 42.6224C94.8032 43.1398 94.7129 43.6123 94.5435 44.0285C94.3741 44.4447 94.1143 44.8047 93.7755 45.1084C93.4366 45.4008 93.03 45.6371 92.5331 45.8058C92.0475 45.9745 91.494 46.0533 90.8729 46.0533C89.5966 46.0533 88.3994 45.6708 87.3152 44.9171L88.4446 42.8023C88.8399 43.1511 89.2239 43.4098 89.6192 43.5785C90.0032 43.7473 90.3872 43.8372 90.7599 43.8372C91.1891 43.8372 91.5053 43.736 91.7199 43.5448C91.9345 43.3423 92.0362 43.1286 92.0362 42.8698C92.0362 42.7123 92.0136 42.5886 91.9571 42.4761C91.9006 42.3636 91.8103 42.2624 91.686 42.1724C91.5618 42.0824 91.3924 41.9924 91.2004 41.9137C90.9971 41.8349 90.7486 41.7449 90.4663 41.6437C90.1275 41.5312 89.7886 41.4187 89.4611 41.295C89.1336 41.1712 88.8399 40.9913 88.5914 40.7775C88.3317 40.5638 88.1284 40.2938 87.9703 39.9676C87.8121 39.6414 87.7331 39.2252 87.7331 38.7302C87.7331 38.2353 87.8121 37.7741 87.9816 37.3691C88.151 36.9641 88.3769 36.6154 88.6818 36.3229C88.9867 36.0305 89.3482 35.8055 89.7886 35.648C90.2178 35.4905 90.7148 35.4118 91.2456 35.4118C91.7425 35.4118 92.2733 35.4793 92.8155 35.6255C93.3576 35.7605 93.8884 35.963 94.3854 36.2329L93.335 38.2578Z" fill="white"/>
<path d="M99.8291 37.8978V45.7721H97.1976V37.8978H95.0291V35.6705H101.998V37.8978H99.8291Z" fill="white"/>
<path d="M74.8916 53.7138V51.5653L73.2879 49.0118H73.9316L75.1627 51.0478L76.3938 49.0118H77.0375L75.445 51.5653V53.7138H74.8916Z" fill="white"/>
<path d="M77.4893 53.7138V49.0118H79.974V49.518H78.0427V50.8679H79.974V51.3853H78.0427V53.1851H79.974V53.7026L77.4893 53.7138Z" fill="white"/>
<path d="M80.7985 53.7138V49.0118H81.9053C82.2215 49.0118 82.4474 49.023 82.6055 49.068C82.7524 49.1018 82.8879 49.1693 82.9895 49.248C83.1251 49.3605 83.238 49.5067 83.3171 49.6867C83.3961 49.8667 83.43 50.0692 83.43 50.2942C83.43 50.6766 83.3171 50.9691 83.1025 51.1716C82.8879 51.3741 82.5717 51.4753 82.1538 51.4753H82.0521L83.8592 53.7138H83.1477L81.4309 51.4753H81.3519V53.7138H80.7985ZM81.3519 49.4955V51.0703H81.7811C82.2215 51.0703 82.5152 51.0141 82.662 50.9016C82.8088 50.7891 82.8879 50.5866 82.8879 50.3167C82.8879 50.0129 82.8088 49.7992 82.662 49.6867C82.5039 49.563 82.2215 49.5067 81.7924 49.5067L81.3519 49.4955Z" fill="white"/>
<path d="M84.198 53.7138V49.0118H86.6827V49.518H84.7514V50.8679H86.6827V51.3853H84.7514V53.1851H86.6827V53.7026L84.198 53.7138Z" fill="white"/>
<path d="M88.8512 53.9051L86.8521 49.023H87.462L88.8512 52.6227L90.2291 49.023H90.839L88.8512 53.9051Z" fill="white"/>
<path d="M92.5783 48.8318L94.7242 53.7138H94.1143L93.5044 52.274H91.6635L91.0536 53.7138H90.4437L92.5783 48.8318ZM92.5783 50.0692L91.8329 51.8015H93.335L92.5783 50.0692Z" fill="white"/>
<path d="M95.0856 53.7138V48.8318L98.5416 52.5889V49.023H99.0724V53.9051L95.6164 50.1929V53.7251L95.0856 53.7138Z" fill="white"/>
</g>
<defs>
<linearGradient id="paint0_linear" x1="-1.86764" y1="29.3367" x2="8.08219" y2="49.1344" gradientUnits="userSpaceOnUse">
<stop stop-color="#106EAA"/>
<stop offset="1" stop-color="#129AA9"/>
</linearGradient>
<linearGradient id="paint1_linear" x1="8.13781" y1="49.106" x2="18.1218" y2="68.9717" gradientUnits="userSpaceOnUse">
<stop stop-color="#165670"/>
<stop offset="1" stop-color="#073442"/>
</linearGradient>
<linearGradient id="paint2_linear" x1="6.15772" y1="25.3033" x2="26.0913" y2="64.9664" gradientUnits="userSpaceOnUse">
<stop stop-color="#C94E9B"/>
<stop offset="1" stop-color="#D3ADAA"/>
</linearGradient>
<linearGradient id="paint3_linear" x1="8.68712" y1="18.8743" x2="21.2451" y2="43.8617" gradientUnits="userSpaceOnUse">
<stop stop-color="#106EAA"/>
<stop offset="1" stop-color="#129AA9"/>
</linearGradient>
<linearGradient id="paint4_linear" x1="21.3148" y1="43.8262" x2="33.9158" y2="68.8991" gradientUnits="userSpaceOnUse">
<stop stop-color="#165670"/>
<stop offset="1" stop-color="#073442"/>
</linearGradient>
<linearGradient id="paint5_linear" x1="18.8163" y1="13.7843" x2="43.9748" y2="63.8437" gradientUnits="userSpaceOnUse">
<stop stop-color="#C94E9B"/>
<stop offset="1" stop-color="#D3ADAA"/>
</linearGradient>
<linearGradient id="paint6_linear" x1="21.3706" y1="6.3761" x2="37.1" y2="37.6738" gradientUnits="userSpaceOnUse">
<stop stop-color="#106EAA"/>
<stop offset="1" stop-color="#129AA9"/>
</linearGradient>
<linearGradient id="paint7_linear" x1="37.1878" y1="37.6292" x2="52.9713" y2="69.0346" gradientUnits="userSpaceOnUse">
<stop stop-color="#165670"/>
<stop offset="1" stop-color="#073442"/>
</linearGradient>
<linearGradient id="paint8_linear" x1="34.0575" y1="-2.45903e-06" x2="65.57" y2="62.7023" gradientUnits="userSpaceOnUse">
<stop stop-color="#C94E9B"/>
<stop offset="1" stop-color="#D3ADAA"/>
</linearGradient>
<clipPath id="clip0">
<rect width="109" height="68" fill="white"/>
</clipPath>
</defs>
</svg>
