<svg width="403" height="322" viewBox="0 0 403 322" fill="none" xmlns="http://www.w3.org/2000/svg">
<g clip-path="url(#clip0)">
<path fill-rule="evenodd" clip-rule="evenodd" d="M235.217 303.626C235.102 303.702 234.988 303.759 234.874 303.835C234.988 303.759 235.102 303.683 235.217 303.626Z" fill="#306EA6"/>
<path fill-rule="evenodd" clip-rule="evenodd" d="M237.257 302.694C237.105 302.751 236.952 302.808 236.8 302.865C236.952 302.808 237.086 302.751 237.257 302.694Z" fill="#306EA6"/>
<path fill-rule="evenodd" clip-rule="evenodd" d="M237.963 302.485C237.791 302.523 237.639 302.58 237.486 302.637L237.963 302.485Z" fill="#306EA6"/>
<path fill-rule="evenodd" clip-rule="evenodd" d="M239.546 302.161C239.26 302.2 238.993 302.257 238.726 302.314C238.993 302.238 239.26 302.2 239.546 302.161Z" fill="#306EA6"/>
<path fill-rule="evenodd" clip-rule="evenodd" d="M63.7339 229.674H71.8199H78.0369H82.5376V238.423V252.365V317.036H78.0369V252.365H71.8199L71.9725 317.036L63.7339 321.049V252.365V238.423H44.6824L40.1055 229.674H63.7339Z" fill="#306EA6"/>
<path fill-rule="evenodd" clip-rule="evenodd" d="M309.42 229.712V237.168H320.462V289.151L332.61 250.482H347.562V237.853H374.165V228.533H310.622L309.42 229.712Z" fill="#306EA6"/>
<path fill-rule="evenodd" clip-rule="evenodd" d="M329.693 154.485C328.415 152.564 326.164 150.662 324.315 148.418C321.702 145.222 319.547 141.647 317.621 140.81C315.104 139.859 312.891 138.451 310.355 137.348C308.467 136.397 305.301 136.568 303.261 136.872C302.307 136.872 301.678 136.72 300.896 136.549C297.425 136.226 293.172 137.177 290.636 136.872C287.947 131.927 284.667 127.172 281.959 122.074C279.308 115.189 273.072 106.744 269.124 99.8202C263.861 90.6142 254.573 73.6478 254.192 72.8109C253.41 71.8599 251.675 68.5693 251.045 67.2949C249.787 64.7842 249.157 63.9853 248.051 61.9501L245.992 58.165C245.362 57.5374 245.362 57.3852 244.733 56.4342C244.409 55.6543 244.104 55.4831 243.627 54.7033C242.673 52.8202 241.415 51.3937 240.156 49.6628C239.527 48.7118 238.573 47.6086 237.467 46.6766C235.255 44.7935 233.519 42.8915 231.002 41.484C229.591 40.7041 228.79 40.0764 227.379 39.4297L221.543 36.4435C219.884 35.7778 217.329 34.6746 215.784 34.2181C214.697 33.8757 212.866 33.3812 212.828 33.3812C211.779 32.8866 210.673 32.4301 209.986 32.259C210.139 30.6802 210.768 29.2727 210.94 27.5418C211.092 25.0311 210.616 26.2865 211.264 22.6726C212.37 16.0724 210.94 18.5831 210.482 16.3767C210.33 15.7491 210.482 14.9692 210.005 14.3225C209.681 10.5374 208.194 7.0186 205.39 4.31767C199.555 -1.31243 192.88 -1.21733 186.224 3.25252C184.966 4.20355 183.23 6.23876 182.429 7.81747C181.705 9.11087 181.113 10.5374 180.732 12.04C180.579 12.6487 180.217 15.0833 180.16 17.2517C180.084 20.0287 181.037 21.3982 181.133 23.985C181.247 26.8 182.906 32.0307 182.906 32.0307C177.166 33.4573 162.996 42.3209 159.869 45.7256C158.915 46.9809 155.139 52.4969 154.663 53.7523C152.508 58.7357 151.592 62.1784 149.933 66.8194C149.456 67.9226 148.98 69.178 148.35 70.6045C144.326 81.9598 141.828 89.7583 136.355 100.657C131.797 110.415 129.108 120.02 123.883 130.082C122.776 131.965 121.194 135.598 120.736 137.633C114.233 139.25 106.471 138.147 100.121 138.66C97.4507 138.87 93.1026 139.878 91.31 141.456C90.7951 141.913 90.2039 142.464 89.4983 143.149L79.5625 152.127C78.9904 152.698 78.8188 153.877 77.8652 153.782V154.485H163.893C173.924 155.341 190.401 156.159 191.545 155.018C191.774 154.562 191.679 154.676 191.66 154.485H276.428H329.693ZM128.765 311.9L142.782 230.245L252.113 230.092L262.373 311.139C262.373 311.139 259.379 314.753 258.025 315.552C248.185 321.315 233.958 318.082 230.335 314.772C228.923 313.479 228.103 311.501 228.103 311.501L163.95 311.52H163.893C163.569 311.938 161.375 316.693 157.256 319.508C152.794 322.552 146.062 323.37 135.325 318.843C129.737 316.484 128.727 311.919 128.727 311.919L128.765 311.9Z" fill="url(#paint0_linear)"/>
<path fill-rule="evenodd" clip-rule="evenodd" d="M0 229.408H41.0399V154.485H369.512V229.408H403V317.036H392.416L384.196 321.049H320.462V230.149H82.5376V317.036H71.9725L63.734 321.049H0V229.408Z" fill="url(#paint1_linear)"/>
<path fill-rule="evenodd" clip-rule="evenodd" d="M199.898 48.4835C199.898 48.6357 200.051 48.8069 200.051 48.8069C200.203 48.9591 200.527 49.4346 200.051 49.5867C197.686 50.5378 196.103 49.4346 194.844 48.9591C193.261 48.3314 192.155 46.9048 191.526 45.4973C191.85 45.174 192.003 44.8696 192.632 44.7175C194.215 43.9376 194.52 45.0408 195.321 45.4973C195.645 45.8207 195.95 45.8207 196.427 46.2772C198.639 47.8559 197.533 46.9048 198.792 47.5325C199.421 47.8559 199.574 48.0271 199.898 48.4835ZM309.421 229.712V237.168H320.462V289.17L332.61 250.501H347.562V237.872H374.165V228.552H310.641L309.421 229.712ZM63.7339 229.674H71.8199H78.0369H82.5376V238.442V252.385V317.055H78.0369V252.385H71.8199L71.9724 317.055L63.753 321.068V252.385V238.442H44.6824L40.1055 229.674H63.7339ZM128.746 311.9L142.782 230.226L252.113 230.073L262.373 311.12C262.373 311.12 257.663 306.213 248.643 303.208C239.622 300.183 234.435 303.493 232.814 305.68C231.193 307.868 228.084 311.482 228.084 311.482H163.931C163.931 311.482 167.573 306.441 163.263 303.93C158.953 301.42 145.547 299.346 139.292 302.903C133.037 306.422 131.911 307.468 128.746 311.9ZM195.95 34.8077C198.163 33.7045 197.838 30.3949 199.745 29.9384C200.852 29.6151 201.805 30.7183 202.11 31.6693C203.369 34.3512 204.17 38.1173 201.481 40.1715C200.852 40.7992 201.004 41.1226 199.898 40.6471C199.269 40.1715 198.945 39.5439 197.057 39.0683C195.798 38.745 196.732 38.9162 195.645 39.2205C196.904 39.5439 196.599 39.0683 197.381 40.4759C197.705 41.4269 198.01 41.5791 198.163 42.5301C196.751 42.8534 196.751 42.5301 195.321 42.2067C194.215 41.8834 193.91 42.0546 192.804 41.7312C192.804 39.677 194.062 40.4759 195.493 38.8972C196.122 38.1173 195.817 37.794 196.122 36.3864C196.275 34.8077 195.95 35.4354 195.95 34.8077ZM218.511 47.3994C218.988 44.7175 218.664 37.6418 217.1 36.2343C216.47 35.6066 215.689 35.1311 215.04 34.6556C213.934 33.8757 211.245 32.6013 209.986 32.297C210.139 30.7183 210.768 29.3108 210.94 27.5799C211.092 25.0692 210.616 26.3245 211.264 22.7106C212.37 16.1105 210.94 18.6212 210.482 16.4148C210.33 15.7871 210.482 15.0073 210.005 14.3606C209.224 14.8361 209.224 15.7681 208.594 16.7191C208.117 17.499 208.27 17.3468 208.117 18.1266V18.45C207.965 18.9255 207.965 18.7733 207.793 19.2298C209.376 19.382 209.529 20.4852 208.27 21.1129C207.793 21.4362 207.317 21.4362 206.859 21.7406C204.17 22.9959 205.448 22.6916 203.865 24.2513L201.805 26.3055C200.546 25.9822 200.699 26.1533 199.593 26.4577C197.857 27.0854 198.487 26.1343 196.275 26.3055C195.645 26.3055 195.493 26.4577 194.539 26.1533C193.128 25.5257 194.539 25.5257 192.804 25.6778C191.85 25.83 190.744 25.6778 189.81 25.83C188.704 25.9822 188.551 26.3055 187.75 26.6098V28.3407C188.532 28.4929 188.227 28.6641 189.009 28.9684C189.638 29.1206 189.791 28.9684 190.42 29.2917C190.897 28.3407 190.573 28.3407 191.526 27.5609C192.48 27.5609 193.261 27.8842 193.586 28.6641L192.632 28.9874C192.155 28.9874 192.003 28.9874 191.526 28.9874C190.897 31.4981 192.937 30.8705 190.744 32.4492C191.068 33.4002 191.85 33.5524 191.85 34.5034C190.267 35.1311 188.532 35.1311 187.273 34.5034L186.167 33.8757C185.69 35.6066 186.491 35.6066 183.478 36.7098C183.326 38.2885 184.432 38.5928 185.214 39.696C186.167 40.9514 185.69 41.4269 185.69 42.8344C185.538 45.3451 185.214 48.3504 185.061 50.3856C184.909 53.0675 184.279 55.5782 183.955 58.2601C183.478 60.7709 183.173 63.4528 182.696 65.8113L179.073 83.1201C177.967 88.1605 175.755 93.6575 174.649 98.8501C173.542 102.635 172.131 105.45 172.284 109.711C172.284 113.496 170.224 118.517 168.966 122.15C168.489 123.406 167.859 125.935 167.554 126.563C163.13 132.079 160.441 142.712 158.076 154.523H191.64C191.64 154.447 191.64 154.333 191.679 154.105L192.308 149.863C192.632 143.092 194.043 133.506 193.414 126.887C192.308 116.026 192.308 109.901 191.831 99.5159C191.831 93.8477 191.831 91.1848 190.878 85.6688C189.619 80.7996 188.036 70.4143 187.731 65.3738C187.578 61.5887 186.148 45.0789 186.625 43.6523C189.466 45.7065 190.42 51.3557 193.567 56.0918C193.891 56.5673 194.349 57.4993 194.673 58.146C195.626 60.2002 197.037 62.0833 198.296 63.9663C198.62 64.594 199.078 65.3739 199.402 66.0205C199.879 66.8004 200.032 67.1237 200.661 67.9036L203.178 71.6887C209.967 81.7506 214.697 90.5762 219.751 101.893C220.227 102.844 221.333 104.88 222.115 106.458C224.003 109.292 224.175 106.306 224.175 104.575C223.546 91.2038 219.922 77.9845 216.127 66.8194C215.975 66.1917 214.716 63.2055 214.716 62.73C214.087 60.8469 213.61 58.165 214.563 56.9097C215.345 55.9586 215.669 54.8555 216.451 54.0756C218.034 51.4888 218.206 50.3856 218.511 47.3994Z" fill="#163442"/>
</g>
<defs>
<linearGradient id="paint0_linear" x1="154.608" y1="110.344" x2="264.467" y2="292.657" gradientUnits="userSpaceOnUse">
<stop stop-color="#3C94A4"/>
<stop offset="1" stop-color="#236CA3"/>
</linearGradient>
<linearGradient id="paint1_linear" x1="394.561" y1="331.995" x2="59.87" y2="180.896" gradientUnits="userSpaceOnUse">
<stop stop-color="#C5A4A2"/>
<stop offset="0.4167" stop-color="#BC7E9E"/>
<stop offset="0.7841" stop-color="#B5639C"/>
<stop offset="1" stop-color="#B3599B"/>
</linearGradient>
<clipPath id="clip0">
<rect width="403" height="322" fill="white"/>
</clipPath>
</defs>
</svg>
