<svg width="111" height="152" viewBox="0 0 111 152" fill="none" xmlns="http://www.w3.org/2000/svg">
<path d="M36.1031 3.47712C29.6968 5.61237 23.9579 8.81524 18.8863 12.9523C13.9482 17.0893 9.81084 22.0271 6.47426 27.899C3.27115 33.7709 1.13574 40.4435 0.334961 47.9169L33.8342 52.4543C34.5015 45.7816 36.7704 40.4435 40.3739 36.3065C44.1109 32.1694 48.7821 30.1677 54.6544 30.1677C60.2599 30.1677 64.6642 31.7691 68.0008 35.1054C71.3373 38.3083 72.9389 42.5788 72.9389 47.9169C72.9389 52.3208 71.8712 56.3244 69.6023 59.9276C67.3334 63.5308 64.5307 67.0006 60.7937 70.4704L3.40461 122.383V151.476H110.042V121.049H49.8498L84.0163 90.6217C87.3529 87.5523 90.556 84.4829 93.7591 81.4135C96.8288 78.3441 99.6315 74.8743 102.034 71.2711C104.436 67.6679 106.305 63.7977 107.773 59.5272C109.107 55.2567 109.908 50.5859 109.908 45.2478C109.908 37.641 108.44 30.9684 105.37 25.2299C102.434 19.4915 98.4303 14.8206 93.3587 11.0839C88.4206 7.34727 82.6817 4.54474 76.2755 2.80986C69.8692 0.941524 63.3295 0.140808 56.5229 0.140808C49.3159 0.140808 42.5093 1.34188 36.1031 3.47712Z" fill="url(#paint0_linear)"/>
<defs>
<linearGradient id="paint0_linear" x1="0.340299" y1="75.8751" x2="136.999" y2="75.8751" gradientUnits="userSpaceOnUse">
<stop stop-color="#B93189"/>
<stop offset="0.1905" stop-color="#B93589"/>
<stop offset="0.3612" stop-color="#BB408B"/>
<stop offset="0.5242" stop-color="#BD518E"/>
<stop offset="0.6826" stop-color="#C06593"/>
<stop offset="0.8376" stop-color="#C47C99"/>
<stop offset="0.9882" stop-color="#C9959F"/>
<stop offset="1" stop-color="#CA989F"/>
</linearGradient>
</defs>
</svg>
