<svg width="10" height="5" viewBox="0 0 10 5" fill="none" xmlns="http://www.w3.org/2000/svg">
<path d="M5.00008 4.33333C4.86378 4.3336 4.73169 4.28613 4.62675 4.19916L1.12675 1.2825C1.00762 1.18348 0.932706 1.0412 0.918484 0.886953C0.904262 0.732705 0.951899 0.579124 1.05091 0.459998C1.14993 0.340871 1.29221 0.265957 1.44646 0.251736C1.60071 0.237514 1.75429 0.28515 1.87341 0.384164L5.00008 2.9975L8.12675 0.477498C8.18641 0.429043 8.25507 0.392858 8.32877 0.371023C8.40247 0.349188 8.47975 0.342133 8.55619 0.350264C8.63262 0.358395 8.70669 0.381552 8.77415 0.418403C8.8416 0.455254 8.90111 0.505074 8.94925 0.564998C9.00267 0.624977 9.04313 0.695343 9.06809 0.771685C9.09305 0.848028 9.10198 0.928704 9.09431 1.00866C9.08665 1.08861 9.06255 1.16612 9.02354 1.23633C8.98452 1.30654 8.93143 1.36793 8.86758 1.41666L5.36758 4.23416C5.25961 4.30738 5.13022 4.3423 5.00008 4.33333Z" fill="#C9509C"/>
</svg>
