<?xml version="1.0" encoding="utf-8"?>
<!-- Generator: Adobe Illustrator 24.2.0, SVG Export Plug-In . SVG Version: 6.00 Build 0)  -->
<svg version="1.1" id="Layer_1" xmlns="http://www.w3.org/2000/svg" xmlns:xlink="http://www.w3.org/1999/xlink" x="0px" y="0px"
	 viewBox="0 0 143.4 140.9" style="enable-background:new 0 0 143.4 140.9;" xml:space="preserve">
<style type="text/css">
	.st0{fill:url(#SVGID_1_);}
	.st1{fill:url(#SVGID_2_);}
	.st2{fill:url(#SVGID_3_);}
	.st3{fill:#F0AD42;}
	.st4{clip-path:url(#SVGID_5_);}
	.st5{fill:url(#SVGID_6_);}
	.st6{fill:url(#SVGID_7_);}
	.st7{fill:url(#SVGID_8_);}
	.st8{fill:url(#SVGID_9_);}
	.st9{fill:url(#SVGID_10_);}
	.st10{fill:url(#SVGID_11_);}
	.st11{fill:url(#SVGID_12_);}
	.st12{fill:#214B7F;}
	.st13{fill:#F2B443;}
	.st14{fill:url(#SVGID_13_);}
	.st15{fill:url(#SVGID_14_);}
	.st16{fill:url(#SVGID_15_);}
	.st17{fill:url(#SVGID_16_);}
	.st18{fill:#FFFFFF;}
	.st19{fill:url(#SVGID_17_);}
	.st20{fill:none;}
	.st21{clip-path:url(#SVGID_19_);}
	.st22{fill:url(#SVGID_20_);}
</style>
<g id="Layer_2_2_">
	<g id="Layer_1-2_1_">
		
			<linearGradient id="SVGID_1_" gradientUnits="userSpaceOnUse" x1="4.5964" y1="62.3721" x2="28.9531" y2="62.3721" gradientTransform="matrix(1 0 0 -1 0 142)">
			<stop  offset="0" style="stop-color:#2A566E"/>
			<stop  offset="1" style="stop-color:#163441"/>
		</linearGradient>
		<path class="st0" d="M15.9,63.5c0-2.8,0-5.6,0-8.4c0-0.5,0-0.9,0-1.4c0-0.1,0-0.2-0.1-0.2c-0.1,0-0.2,0-0.3,0.1
			c-0.2,0.2-0.4,0.4-0.7,0.5C14,54.5,13,54.5,12,54.1c-1-0.4-2.1-0.7-3.1-1c-0.8-0.2-1.7-0.1-2.5,0.1c-0.1,0-0.2,0.1-0.2,0.2
			c-0.1,0.1-0.2,0.2-0.3,0.3c-0.3,0.3-0.5,0.2-0.7,0c-0.2-0.1-0.2-0.4-0.1-0.6c0,0,0,0,0,0c0.2-0.3,0.4-0.4,0.6-0.3
			c0.2,0.1,0.4,0.1,0.6,0c0.2-0.1,0.5-0.1,0.8-0.1c0.1,0,0.2-0.1,0.2-0.1c0-0.1,0-0.2-0.1-0.2c-0.1-0.2-0.4-0.2-0.6-0.2
			c-0.4,0.1-0.5-0.1-0.4-0.5c0-0.4,0-0.8-0.1-1.1c-0.1-0.7-0.2-1.5-0.3-2.2c0-0.5-0.1-1-0.3-1.5c-0.1-0.3-0.2-0.8-0.7-0.9
			c-0.1,0-0.2-0.1-0.2-0.2c0-0.1,0.1-0.1,0.2-0.2c0.7-0.2,1-0.8,1.4-1.2c0.2-0.2,0.4-0.3,0.6-0.4c0.3-0.1,0.7-0.2,0.9-0.4
			c0.4-0.2,0.5,0.3,0.9,0.2c0.4,0,0.8,0.2,1.1,0.5c0.3,0.3,0.5,0.6,0.8,0.9c0.2,0.1,0.3,0.2,0.5,0.3c0.1,0.1,0.2,0.2,0.3,0.3
			c-0.1,0.1-0.2,0.2-0.3,0.3c-0.1,0.1-0.3,0.2-0.3,0.4c-0.1,0.4-0.2,0.9-0.3,1.4c-0.2,1-0.3,2-0.5,2.9c-0.1,0.4-0.2,0.8-0.1,1.2
			c0.1,0.2-0.1,0.4-0.4,0.3c-0.2-0.1-0.5,0-0.6,0.2c-0.1,0.1-0.1,0.2-0.1,0.2c0,0.1,0.1,0.1,0.2,0.1c0.5,0.1,1,0.2,1.6,0.4
			s1.1,0.3,1.6,0.4c1.1,0.4,2.4,0,3.1-1c0.3-0.3,0.6-0.7,0.9-1c0.2-0.2,0.1-0.4-0.1-0.5c-0.2-0.1-0.3-0.2-0.5-0.3
			c-0.2-0.2-0.5-0.3-0.7-0.2c-0.3,0.1-0.5-0.1-0.4-0.4c0.1-0.6,0-1.3-0.1-1.9c-0.1-0.9-0.3-1.8-0.5-2.7c-0.1-0.6-0.2-1.3-0.3-1.9
			c-0.1-0.3-0.2-0.6-0.4-0.9c-0.1-0.1-0.3-0.1-0.4-0.2c-0.1-0.1-0.2-0.1-0.2-0.2c0-0.1,0.1-0.2,0.2-0.2c0.6-0.1,0.9-0.5,1.2-0.9
			c0.2-0.2,0.4-0.5,0.6-0.7c0.4-0.4,1-0.6,1.6-0.6c0.4,0,0.6-0.3,0.5-0.7c0-0.1,0-0.2,0-0.3c0-0.1,0.1-0.2,0.1-0.2
			c0.1,0,0.2,0,0.3,0.1c0.1,0,0.1,0.2,0.1,0.2c0,0.1,0,0.1-0.1,0.1c-0.3,0.3,0,0.7,0.3,0.8c0.1,0,0.2,0,0.2,0c0.8,0,1.4,0.4,1.8,1
			c0.2,0.3,0.4,0.6,0.7,0.8c0.2,0.2,0.5,0.3,0.7,0.5c0.1,0.1,0.2,0.2,0.3,0.3c-0.1,0.1-0.2,0.2-0.3,0.2c-0.2,0.1-0.3,0.2-0.4,0.4
			c-0.4,0.5-0.4,1-0.5,1.6c-0.1,0.9-0.3,1.7-0.5,2.6s-0.3,1.7-0.4,2.5c0,0.2,0,0.3,0.1,0.5c0.1,0.3,0,0.4-0.3,0.4
			c-0.1,0-0.2,0-0.3,0c-0.1,0-0.2,0-0.3,0.1c-0.3,0.2-0.5,0.4-0.8,0.6c-0.1,0.1-0.1,0.2,0,0.3c0.5,0.7,1,1.4,1.7,1.8
			c0.6,0.4,1.3,0.5,1.9,0.3c0.7-0.2,1.5-0.4,2.2-0.6c0.4-0.1,0.9-0.2,1.3-0.3c0.1,0,0.2-0.1,0.3-0.1c0-0.1-0.1-0.2-0.1-0.3
			c-0.2-0.1-0.4-0.2-0.6-0.2c-0.4,0-0.4-0.1-0.4-0.5c0-0.4,0-0.7,0-1.1c-0.1-0.8-0.2-1.6-0.4-2.4c0-0.5-0.1-1-0.2-1.5
			c-0.1-0.4-0.2-0.8-0.7-0.9c-0.1,0-0.1-0.1-0.1-0.1c0-0.1,0.1-0.2,0.1-0.2c0.6-0.1,0.9-0.6,1.3-1.1c0.3-0.4,0.8-0.7,1.3-0.8
			c0.4-0.1,0.8-0.3,1.2,0c0.7,0,1.2,0.4,1.6,0.9c0.3,0.3,0.5,0.7,1,0.8c0.2,0.1,0.2,0.3,0,0.4c-0.4,0.3-0.7,0.8-0.7,1.3
			c0,0.5-0.1,1-0.2,1.6c-0.1,0.6-0.2,1.3-0.3,1.9c0,0.1,0,0.2-0.1,0.3c-0.1,0.2-0.1,0.5,0,0.7c0.1,0.3,0,0.5-0.4,0.4
			c-0.3-0.1-0.5,0-0.7,0.2c-0.1,0.2-0.1,0.3,0.1,0.3c0.3,0.1,0.7,0.2,1,0.2c0.1,0,0.3,0,0.4-0.1c0.3-0.1,0.6,0,0.7,0.3
			c0.1,0.3,0,0.6-0.3,0.7c0,0-0.1,0-0.1,0c-0.2,0.1-0.4,0-0.5-0.1c-0.3-0.4-0.7-0.6-1.2-0.6c-1.4-0.2-2.7,0.1-4,0.7
			c-0.9,0.4-1.8,0.7-2.8,0.6c-0.6-0.1-1.1-0.3-1.6-0.7c-0.1-0.1-0.2-0.1-0.3-0.2c-0.2-0.1-0.3,0-0.3,0.2c0,0.5,0.1,1,0.1,1.4
			c0,4.8,0,9.6,0,14.4c0,1.2,0,2.4,0,3.6c0,0.2,0.1,0.4,0.3,0.4c0.2,0,0.4,0,0.6,0c0.2,0,0.4,0.1,0.4,0.3c0,0,0,0.1,0,0.1
			c0,0.2-0.2,0.4-0.4,0.4c0,0,0,0-0.1,0c-0.6,0-0.6,0-0.3,0.5c0.2,0.3,0.2,0.7,0,1c0,0.1-0.1,0.2-0.1,0.3c0,0.2,0,0.3,0.2,0.3
			c0,0,0.1,0,0.1,0c0.2,0,0.4,0,0.5,0.2c0,0.2-0.1,0.4-0.3,0.5c-0.1,0-0.3,0-0.4,0c-0.2,0-0.4,0.1-0.5,0.3c0,0,0,0.1,0,0.1
			c0,1.2-0.1,2.3-0.1,3.5c0,0.9,0.1,1.7,0.1,2.6c0,4.6,0,9.3,0,13.9c0,0.5,0,1,0,1.5c0,0.2,0.1,0.4,0.3,0.4c0,0,0.1,0,0.1,0
			c0.1,0,0.2,0,0.3,0c0.4,0,0.6,0.1,0.6,0.6c0,0.3-0.1,0.4-0.5,0.5c-0.3,0-0.3,0.1-0.3,0.4c0.1,1.2,0.2,2.5,0.3,3.7
			c0.1,0.6,0.2,1.2,0.3,1.8c0.1,0.8,0.2,1.7,0.3,2.5c0.3,2,0.6,4,0.9,6c0.1,0.6,0.1,1.1,0.1,1.7c0,0.7,0,1.5,0.1,2.2
			c0,0.2,0.1,0.3,0.3,0.3c0.1,0,0.3,0,0.4,0c0.3,0,0.5,0.2,0.5,0.4c0,0,0,0,0,0c0,0.3,0,0.6,0,1c0,0.2-0.1,0.3-0.3,0.3c0,0,0,0,0,0
			h-3.8l-4.3,0c-0.4,0-0.5-0.1-0.5-0.5c0-0.2,0-0.5,0-0.7c0-0.4,0.2-0.5,0.6-0.5c0.5,0,0.6,0,0.6-0.5c0.1-1.2,0.1-2.4,0.2-3.6
			c0.2-1.7,0.4-3.3,0.7-5c0.2-1.2,0.4-2.4,0.6-3.7c0.1-1.1,0.2-2.3,0.3-3.5c0.1-0.6,0.1-1.3,0.1-1.9c0-0.4-0.1-0.5-0.4-0.5
			c-0.3,0-0.4-0.2-0.4-0.6c0-0.3,0.2-0.4,0.5-0.4c0.1,0,0.1,0,0.2,0c0.2,0.1,0.5-0.1,0.5-0.3c0-0.1,0-0.1,0-0.2c0-0.7,0-1.5,0-2.2
			c0-4.7,0-9.4,0-14.1c0-1.4,0-2.8,0-4.2c0-0.3,0-0.7,0-1c0-0.1-0.1-0.2-0.2-0.3C15.6,77,15.5,77,15.3,77c-0.4,0.1-0.5,0-0.6-0.3
			c-0.1-0.3,0-0.4,0.3-0.4c0.1,0,0.1,0,0.2,0c0.2,0,0.3-0.1,0.2-0.3c0,0,0-0.1,0-0.1c-0.2-0.4-0.2-0.9,0-1.4c0.1-0.1,0.1-0.2,0-0.3
			c0-0.1-0.2-0.1-0.3,0c-0.2,0-0.4,0.1-0.5-0.1c-0.1-0.1-0.1-0.3-0.1-0.4c0.1-0.2,0.3-0.2,0.5-0.2c0.2,0,0.4,0,0.5,0
			c0.2,0,0.3-0.1,0.3-0.3C15.9,69.9,15.9,66.7,15.9,63.5L15.9,63.5z M17,46.8L17,46.8c0,0.9,0,1.7,0,2.6c0,0.3,0.1,0.4,0.4,0.4
			c0.3,0,0.6,0,0.9,0c0.4,0,0.5-0.1,0.5-0.5c0-0.2,0.1-0.5,0.1-0.7c0.1-0.5,0.2-0.9,0.2-1.4c0.2-1.1,0.4-2.2,0.5-3.4
			c0-0.1,0-0.2,0-0.3c0-0.2-0.1-0.3-0.3-0.3c-0.2,0-0.3,0-0.5,0.1c-0.5,0-1,0-1.4-0.1c-0.3,0-0.4,0.1-0.4,0.4c0,0.2,0,0.3,0,0.5
			C17,45,17,45.9,17,46.8L17,46.8z M16.6,46.3L16.6,46.3c0-0.8,0-1.6,0-2.3c0-0.7,0-0.7-0.7-0.7c-0.5,0-1.1,0-1.6,0
			c-0.3,0-0.4,0.1-0.3,0.3c0.1,0.5,0.2,0.9,0.2,1.4c0.1,0.8,0.3,1.5,0.4,2.3c0.1,0.6,0.2,1.2,0.2,1.9c0,0.4,0.2,0.5,0.6,0.5
			c0.2,0,0.5,0,0.7,0c0.4,0,0.5,0,0.5-0.4L16.6,46.3z M24.8,51.6L24.8,51.6l0.1,0c0.5,0,0.6-0.1,0.6-0.6c0-1.1,0-2.3,0-3.4
			c0-0.2,0-0.4,0-0.6c0-0.4,0-0.5-0.4-0.5c-0.4,0-0.8,0-1.1,0s-0.5,0.1-0.4,0.4c0.1,0.6,0.2,1.2,0.3,1.8c0,0.2,0.1,0.4,0.1,0.6
			c0.1,0.6,0.2,1.2,0.2,1.8c0,0.2,0.1,0.4,0.3,0.4C24.5,51.6,24.7,51.6,24.8,51.6z M7.2,51.6h0.1c0.4,0,0.6-0.2,0.5-0.6
			c0-0.2,0-0.3,0-0.5c0-0.8,0-1.6,0-2.4c0-0.4,0-0.8,0-1.2c0-0.3,0-0.4-0.3-0.4c-0.5,0-0.9,0-1.4,0c-0.2,0-0.3,0.1-0.3,0.4
			c0.1,0.7,0.2,1.3,0.3,2c0,0.3,0.1,0.5,0.1,0.8c0.1,0.5,0.2,0.9,0.2,1.4c0,0.3,0.1,0.4,0.4,0.5C6.9,51.6,7,51.6,7.2,51.6z
			 M26.4,51.6L26.4,51.6h0.2c0.4,0,0.5-0.1,0.6-0.5c0.1-0.8,0.3-1.6,0.4-2.4c0.1-0.6,0.2-1.2,0.3-1.8c0-0.2-0.1-0.3-0.3-0.3
			c-0.5,0-0.9,0-1.4,0c-0.2,0-0.4,0.1-0.3,0.4c0,0.1,0,0.2,0,0.3c0,1,0,2,0,3c0,0.3,0,0.7,0,1c0,0.2,0.1,0.3,0.3,0.4c0,0,0,0,0,0
			C26.2,51.6,26.3,51.6,26.4,51.6L26.4,51.6z M8.2,49L8.2,49c0,0.2,0,0.5,0,0.7c0,0.5,0,0.9,0,1.3c0,0.4,0.1,0.5,0.4,0.5
			c0.2,0,0.4,0,0.6,0c0.1,0,0.3-0.1,0.3-0.3c0.1-0.4,0.2-0.9,0.2-1.3c0.2-1,0.3-2.1,0.4-3.1c0-0.3-0.1-0.4-0.4-0.3
			c-0.2,0-0.4,0-0.6,0c-0.2,0-0.5,0-0.7,0c-0.3,0-0.4,0.1-0.3,0.4c0,0.1,0,0.2,0,0.3C8.2,47.9,8.2,48.4,8.2,49L8.2,49z"/>
		
			<linearGradient id="SVGID_2_" gradientUnits="userSpaceOnUse" x1="25.439" y1="99.0561" x2="25.8355" y2="99.0561" gradientTransform="matrix(1 0 0 -1 0 142)">
			<stop  offset="0" style="stop-color:#2A566E"/>
			<stop  offset="1" style="stop-color:#163441"/>
		</linearGradient>
		<path class="st1" d="M25.6,42.6c0.1,0.2,0.2,0.3,0.2,0.3c0,0.1-0.1,0.2-0.2,0.3c-0.1-0.1-0.2-0.2-0.2-0.3
			C25.4,42.9,25.5,42.8,25.6,42.6z"/>
		
			<linearGradient id="SVGID_3_" gradientUnits="userSpaceOnUse" x1="7.7694" y1="99.02" x2="8.2274" y2="99.02" gradientTransform="matrix(1 0 0 -1 0 142)">
			<stop  offset="0" style="stop-color:#2A566E"/>
			<stop  offset="1" style="stop-color:#163441"/>
		</linearGradient>
		<path class="st2" d="M8.2,43L8,43.2c-0.1-0.1-0.1-0.2-0.2-0.3c0,0,0.1-0.2,0.2-0.2C8,42.8,8.1,42.9,8.2,43z"/>
		<path class="st3" d="M17,46.8c0-0.9,0-1.7,0-2.6c0-0.2,0-0.3,0-0.5c0-0.3,0.1-0.4,0.4-0.4c0.5,0,1,0,1.4,0.1c0.2,0,0.3,0,0.5-0.1
			c0.2,0,0.3,0,0.3,0.3c0,0.1,0,0.2,0,0.3c-0.2,1.1-0.4,2.2-0.5,3.4c-0.1,0.5-0.2,0.9-0.2,1.4c0,0.2-0.1,0.5-0.1,0.7
			c0,0.4-0.1,0.5-0.5,0.5c-0.3,0-0.6,0-0.9,0S17,49.6,17,49.4C17,48.5,17,47.6,17,46.8L17,46.8z"/>
		<path class="st3" d="M16.6,46.3v2.9c0,0.4-0.1,0.5-0.5,0.4c-0.2,0-0.5,0-0.7,0c-0.4,0-0.5-0.1-0.6-0.5c-0.1-0.6-0.1-1.2-0.2-1.9
			c-0.1-0.8-0.3-1.5-0.4-2.3c-0.1-0.5-0.2-0.9-0.2-1.4c0-0.2,0-0.3,0.3-0.3c0.5,0,1.1,0,1.6,0c0.7,0,0.7,0,0.7,0.7
			C16.6,44.8,16.6,45.6,16.6,46.3L16.6,46.3z"/>
		<path class="st3" d="M24.8,51.6c-0.1,0-0.3,0-0.4,0c-0.2,0-0.3-0.2-0.3-0.4c-0.1-0.6-0.1-1.2-0.2-1.8c0-0.2-0.1-0.4-0.1-0.6
			c-0.1-0.6-0.2-1.2-0.3-1.8c-0.1-0.4,0-0.5,0.4-0.4c0.4,0,0.8,0,1.1,0c0.4,0,0.5,0.1,0.4,0.5c0,0.2,0,0.4,0,0.6c0,1.1,0,2.3,0,3.4
			C25.5,51.5,25.4,51.6,24.8,51.6L24.8,51.6L24.8,51.6z"/>
		<path class="st3" d="M7.2,51.6c-0.2,0-0.3,0-0.4,0c-0.3,0-0.4-0.2-0.4-0.5c0-0.5-0.1-0.9-0.2-1.4c0-0.3-0.1-0.5-0.1-0.8
			c-0.1-0.7-0.2-1.3-0.3-2c0-0.2,0-0.4,0.3-0.4c0.5,0,0.9,0,1.4,0c0.3,0,0.4,0.1,0.3,0.4c0,0.4,0,0.8,0,1.2c0,0.8,0,1.6,0,2.4
			c0,0.2,0,0.3,0,0.5c0.1,0.4-0.1,0.6-0.5,0.6L7.2,51.6z"/>
		<path class="st3" d="M26.4,51.6c-0.1,0-0.2,0-0.3,0c-0.2,0-0.3-0.1-0.3-0.3c0,0,0,0,0,0c0-0.3,0-0.7,0-1c0-1,0-2,0-3
			c0-0.1,0-0.2,0-0.3c0-0.2,0.1-0.4,0.3-0.4c0.5,0,0.9,0,1.4,0c0.2,0,0.3,0.1,0.3,0.3c-0.1,0.6-0.2,1.2-0.3,1.8
			c-0.1,0.8-0.3,1.6-0.4,2.5c-0.1,0.4-0.2,0.5-0.6,0.5L26.4,51.6L26.4,51.6z"/>
		<path class="st3" d="M8.2,49c0-0.6,0-1.1,0-1.7c0-0.1,0-0.2,0-0.3c-0.1-0.3,0-0.4,0.3-0.4c0.2,0,0.5,0,0.7,0c0.2,0,0.4,0,0.6,0
			c0.3,0,0.4,0.1,0.4,0.3c-0.1,1-0.3,2.1-0.4,3.1c-0.1,0.5-0.1,0.9-0.2,1.3c-0.1,0.1-0.2,0.2-0.3,0.3c-0.2,0-0.4,0-0.6,0
			c-0.4,0-0.5-0.2-0.4-0.5c0-0.4,0-0.9,0-1.3C8.2,49.5,8.2,49.2,8.2,49L8.2,49z"/>
	</g>
</g>
<g>
	<g id="Layer_2_1_">
		<g id="Layer_1-2">
			<g>
				<defs>
					<rect id="SVGID_4_" width="143.4" height="141"/>
				</defs>
				<clipPath id="SVGID_5_">
					<use xlink:href="#SVGID_4_"  style="overflow:visible;"/>
				</clipPath>
				<g class="st4">
					
						<linearGradient id="SVGID_6_" gradientUnits="userSpaceOnUse" x1="63.59" y1="137.69" x2="78.88" y2="137.69" gradientTransform="matrix(1 0 0 -1 0 142)">
						<stop  offset="0" style="stop-color:#008FC0"/>
						<stop  offset="1" style="stop-color:#9BD5EF"/>
					</linearGradient>
					<path class="st5" d="M78.9,4.3c0,2.4-3.4,4.3-7.7,4.3s-7.6-1.9-7.6-4.3S67,0,71.2,0S78.9,1.9,78.9,4.3"/>
					
						<linearGradient id="SVGID_7_" gradientUnits="userSpaceOnUse" x1="57.77" y1="131.9764" x2="84.96" y2="131.9764" gradientTransform="matrix(1 0 0 -1 0 142)">
						<stop  offset="0" style="stop-color:#316EA6"/>
						<stop  offset="1" style="stop-color:#4699A8"/>
					</linearGradient>
					<path class="st6" d="M85,7c-2.3-4.7-21.4-6.4-27.2-0.5l0.4,10.8h26.3L85,7z"/>
					
						<linearGradient id="SVGID_8_" gradientUnits="userSpaceOnUse" x1="58.1126" y1="124.67" x2="84.61" y2="124.67" gradientTransform="matrix(1 0 0 -1 0 142)">
						<stop  offset="0" style="stop-color:#2A566E"/>
						<stop  offset="1" style="stop-color:#163441"/>
					</linearGradient>
					<path class="st7" d="M84.6,17.3c0,2.4-5.9,4.4-13.2,4.4c-7.1,0-12.8-1.8-13.2-4.1c0-0.1,0-0.2,0-0.2c0-0.1,0-0.1,0-0.2
						c0.3-2.3,6.1-4.2,13.2-4.2C78.7,12.9,84.6,14.9,84.6,17.3"/>
					
						<linearGradient id="SVGID_9_" gradientUnits="userSpaceOnUse" x1="59.5" y1="121.525" x2="82.69" y2="121.525" gradientTransform="matrix(1 0 0 -1 0 142)">
						<stop  offset="0" style="stop-color:#316EA6"/>
						<stop  offset="1" style="stop-color:#4699A8"/>
					</linearGradient>
					<path class="st8" d="M82.7,20.5c0,3.2-5.2,5.9-11.6,5.9s-11.6-2.6-11.6-5.9s5.2-5.9,11.6-5.9S82.7,17.2,82.7,20.5"/>
					
						<linearGradient id="SVGID_10_" gradientUnits="userSpaceOnUse" x1="45.59" y1="120.0241" x2="97.11" y2="120.0241" gradientTransform="matrix(1 0 0 -1 0 142)">
						<stop  offset="0" style="stop-color:#008FC0"/>
						<stop  offset="1" style="stop-color:#9BD5EF"/>
					</linearGradient>
					<path class="st9" d="M96.8,27.1c0-1.4,0.1-0.2,0.1-1.5l0.3-2.6c-2.2-1.4-4.5-2.5-6.9-3.4c-13.4-5.8-41.2-1.5-44.5,3
						c-0.3,0.4,0.2,2.5,0.2,2.8"/>
					
						<linearGradient id="SVGID_11_" gradientUnits="userSpaceOnUse" x1="40.7251" y1="112.0823" x2="101.8087" y2="112.0823" gradientTransform="matrix(1 0 0 -1 0 142)">
						<stop  offset="0" style="stop-color:#316EA6"/>
						<stop  offset="1" style="stop-color:#4699A8"/>
					</linearGradient>
					<path class="st10" d="M50.9,31.8c-1.1,0-6.7,2.8-8,0.2c0,0-2-0.6-2.1-1.2c-0.1-0.4-0.2-0.8-0.1-1.2c0.6-5.5,18-8.9,31.6-8.7
						c10.7,0.1,28.4,2.5,29.4,8.9c0.4,2.4-5.2,2.9-6.1,3.8C84,45.5,56.5,33.7,50.9,31.8"/>
					
						<linearGradient id="SVGID_12_" gradientUnits="userSpaceOnUse" x1="40.9133" y1="110.5068" x2="101.4114" y2="110.5068" gradientTransform="matrix(1 0 0 -1 0 142)">
						<stop  offset="0" style="stop-color:#2A566E"/>
						<stop  offset="1" style="stop-color:#163441"/>
					</linearGradient>
					<path class="st11" d="M48.2,35.1c-1.1,0-3.6,0.4-4.9-2.2c0,0-3.3-2.1-2-3.6C48,21,94.4,19,101.1,29.7c1.4,2.3-3.1,2.3-4.2,3.6
						C84,48.3,49.8,35.8,48.2,35.1"/>
					<path class="st12" d="M70.7,24.7c15.9,0,25.3,2.3,29.4,5.5l-2,5.1l-53.7,1c-0.8-3.4-1.5-5.8-1.5-5.8S48.8,24.7,70.7,24.7"/>
					<polygon class="st13" points="46.7,33.9 44.9,34.4 43.7,30.6 45.4,29.7 					"/>
					<polygon class="st13" points="48.7,32.9 46.9,33.5 45.7,29.5 47.6,28.7 					"/>
					<polygon class="st13" points="51.5,32 49.7,32.5 48.3,28.5 50.3,27.8 					"/>
					<polygon class="st13" points="53.5,31.1 51.7,31.7 50.5,27.8 52.6,27.2 					"/>
					<polygon class="st13" points="56.2,30.7 54.3,31.1 53.3,27 55.3,26.6 					"/>
					<polygon class="st13" points="58.2,30.2 56.4,30.5 55.6,26.5 57.7,26.2 					"/>
					<polygon class="st13" points="61,30.1 59.2,30.3 58.5,26.1 60.5,25.9 					"/>
					<polygon class="st13" points="63.1,29.7 61.2,29.9 60.8,25.8 62.9,25.7 					"/>
					<polygon class="st13" points="66,29.7 64.1,29.8 63.7,25.6 65.7,25.5 					"/>
					<polygon class="st13" points="68.1,29.5 66.2,29.5 66.1,25.5 68.1,25.5 					"/>
					<polygon class="st13" points="96,33.7 97.9,34.2 99,30.4 97.3,29.5 					"/>
					<polygon class="st13" points="93.9,32.8 95.8,33.3 96.9,29.4 95,28.6 					"/>
					<polygon class="st13" points="91.1,31.9 92.9,32.4 94.2,28.4 92.2,27.7 					"/>
					<polygon class="st13" points="88.9,31 90.8,31.6 92,27.6 89.9,27.1 					"/>
					<polygon class="st13" points="86.2,30.7 88.1,31 89.1,26.9 87.1,26.5 					"/>
					<polygon class="st13" points="84.1,30.2 86,30.5 86.7,26.5 84.6,26.2 					"/>
					<polygon class="st13" points="81.2,30.1 83.1,30.2 83.7,26.1 81.7,25.9 					"/>
					<polygon class="st13" points="79.1,29.8 81,29.9 81.4,25.9 79.2,25.7 					"/>
					<polygon class="st13" points="76.1,29.8 78,29.8 78.4,25.6 76.3,25.5 					"/>
					<polygon class="st13" points="73.9,29.6 75.9,29.6 76,25.5 73.8,25.5 					"/>
					<polygon class="st13" points="71.1,29.6 69.2,29.6 69,25.4 70.9,25.4 					"/>
					<polygon class="st13" points="73.1,29.4 71.3,29.5 71.2,25.4 73.3,25.4 					"/>
					
						<linearGradient id="SVGID_13_" gradientUnits="userSpaceOnUse" x1="42.23" y1="103.4786" x2="99.9062" y2="103.4786" gradientTransform="matrix(1 0 0 -1 0 142)">
						<stop  offset="0" style="stop-color:#316EA6"/>
						<stop  offset="1" style="stop-color:#4699A8"/>
					</linearGradient>
					<path class="st14" d="M52.3,48l-10.1-9.6c0.1-0.8,0.3-1.7,0.8-2.4c7.6-10.4,53.2-8.1,56.8,0.2c0.2,0.7,0.2,1.3,0,2l-8.6,9.6
						L52.3,48z"/>
					
						<linearGradient id="SVGID_14_" gradientUnits="userSpaceOnUse" x1="51.5479" y1="94.6134" x2="91.2404" y2="94.6134" gradientTransform="matrix(1 0 0 -1 0 142)">
						<stop  offset="0" style="stop-color:#2A566E"/>
						<stop  offset="1" style="stop-color:#163441"/>
					</linearGradient>
					<path class="st15" d="M59.7,51.3c-3-0.5-8.1-1.6-8.2-3.4c-0.1-1.4,2.1-2.6,3.3-3.1c12.2-5.1,36.5-1.2,36.4,2.5
						c0,1.5-4,2.5-9.5,3.8C74.6,52.8,67,52.9,59.7,51.3"/>
					
						<linearGradient id="SVGID_15_" gradientUnits="userSpaceOnUse" x1="61.46" y1="70.655" x2="80.84" y2="70.655" gradientTransform="matrix(1 0 0 -1 0 142)">
						<stop  offset="0" style="stop-color:#316EA6"/>
						<stop  offset="1" style="stop-color:#4699A8"/>
					</linearGradient>
					<path class="st16" d="M61.5,95.2V49.6c0.4-1,5.2-2.1,9-2.1c5,0,7.9,0.7,9.7,1.4l0.7,0.5v45.8H61.5z"/>
					
						<linearGradient id="SVGID_16_" gradientUnits="userSpaceOnUse" x1="-1.505495e-04" y1="25.1979" x2="143.35" y2="25.1979" gradientTransform="matrix(1 0 0 -1 0 142)">
						<stop  offset="0" style="stop-color:#316EA6"/>
						<stop  offset="1" style="stop-color:#4699A8"/>
					</linearGradient>
					<path class="st17" d="M138.2,134.5c2.1-0.3,3.9-0.6,5.1-0.8c-7.3-11.7-16.8-26.5-24-38.2c-14.9-1.1-30.8-1.7-47.6-1.8
						c-17.5,0-34,0.6-49.4,1.6L1.9,130.4c-0.3,0.5-2.3,2.5-1.8,3.2c0.1,0.1,0.2,0.2,0.4,0.2c32.2,7.1,70.5,6,70.5,6
						C111.6,138.1,116.8,137.8,138.2,134.5"/>
					<g>
						<path class="st18" d="M47.7,40.4c0,0.5-0.4,0.9-0.9,0.9c-0.5,0-0.9-0.4-0.9-0.9c0-0.5,0.4-0.9,0.9-0.9c0,0,0,0,0,0
							C47.4,39.5,47.7,39.9,47.7,40.4"/>
						<path class="st18" d="M50,39.3c0,0.6-0.4,1-1,1s-1-0.4-1-1s0.4-1,1-1S50,38.7,50,39.3"/>
						<path class="st18" d="M53.2,38.2c0,0.6-0.5,1.1-1.2,1.1c-0.6,0-1.1-0.5-1.1-1.2c0-0.6,0.5-1.1,1.1-1.1
							C52.6,37,53.2,37.6,53.2,38.2L53.2,38.2"/>
						<path class="st18" d="M56.5,37.2c0,0.6-0.5,1.2-1.2,1.2c-0.6,0-1.2-0.5-1.2-1.2c0-0.6,0.5-1.2,1.2-1.2c0,0,0,0,0,0
							C55.9,36.1,56.5,36.6,56.5,37.2"/>
						<path class="st18" d="M60.1,36.3c0,0.7-0.5,1.2-1.2,1.2c-0.7,0-1.2-0.5-1.2-1.2c0-0.7,0.5-1.2,1.2-1.2c0,0,0,0,0,0
							C59.6,35.1,60.1,35.6,60.1,36.3"/>
						<path class="st18" d="M64.1,35.7c0,0.7-0.6,1.3-1.3,1.3s-1.3-0.6-1.3-1.3s0.6-1.3,1.3-1.3l0,0C63.5,34.3,64.1,34.9,64.1,35.7"
							/>
						<path class="st18" d="M68.2,35.2c0,0.8-0.6,1.4-1.4,1.4c-0.8,0-1.4-0.6-1.4-1.4s0.6-1.4,1.4-1.4c0,0,0,0,0,0
							C67.6,33.8,68.2,34.5,68.2,35.2"/>
						<path class="st18" d="M72.5,35.1c0,0.8-0.7,1.5-1.5,1.5c-0.8,0-1.5-0.7-1.5-1.5c0-0.8,0.7-1.5,1.5-1.5c0,0,0,0,0,0
							C71.8,33.6,72.5,34.2,72.5,35.1C72.5,35.1,72.5,35.1,72.5,35.1"/>
						<path class="st18" d="M94.4,40.6c0,0.5,0.4,0.9,0.9,0.9c0.5,0,0.9-0.4,0.9-0.9c0-0.5-0.4-0.9-0.9-0.9
							C94.8,39.7,94.4,40.1,94.4,40.6"/>
						<path class="st18" d="M92.1,39.4c0,0.6,0.4,1,1,1s1-0.4,1-1s-0.4-1-1-1S92.1,38.9,92.1,39.4"/>
						<path class="st18" d="M88.9,38.3c0,0.6,0.5,1.2,1.2,1.2s1.2-0.5,1.2-1.2c0-0.6-0.5-1.2-1.2-1.2C89.4,37.1,88.9,37.6,88.9,38.3
							C88.9,38.3,88.9,38.3,88.9,38.3"/>
						<path class="st18" d="M85.6,37.3c0,0.7,0.6,1.2,1.2,1.1c0.7,0,1.2-0.6,1.1-1.2c0-0.6-0.5-1.1-1.2-1.2
							C86.1,36.1,85.6,36.6,85.6,37.3C85.6,37.3,85.6,37.3,85.6,37.3"/>
						<path class="st18" d="M81.9,36.3c0,0.7,0.6,1.2,1.2,1.2c0.7,0,1.2-0.6,1.2-1.2c0-0.7-0.6-1.2-1.2-1.2
							C82.4,35.1,81.9,35.6,81.9,36.3C81.9,36.3,81.9,36.3,81.9,36.3"/>
						<path class="st18" d="M77.8,35.7c0,0.7,0.6,1.3,1.4,1.3c0.7,0,1.3-0.6,1.3-1.4c0-0.7-0.6-1.3-1.3-1.3
							C78.4,34.3,77.8,34.9,77.8,35.7C77.8,35.7,77.8,35.7,77.8,35.7"/>
						<path class="st18" d="M73.6,35.2c0,0.8,0.7,1.4,1.4,1.4s1.4-0.7,1.4-1.4c0-0.8-0.6-1.4-1.4-1.4C74.3,33.8,73.6,34.5,73.6,35.2
							C73.6,35.2,73.6,35.2,73.6,35.2"/>
					</g>
					
						<linearGradient id="SVGID_17_" gradientUnits="userSpaceOnUse" x1="7.49" y1="26.5263" x2="136.38" y2="26.5263" gradientTransform="matrix(1 0 0 -1 0 142)">
						<stop  offset="0" style="stop-color:#2A566E"/>
						<stop  offset="1" style="stop-color:#163441"/>
					</linearGradient>
					<path class="st19" d="M136.4,122.1c-2.8-4.4-8.5-13.2-8.5-13.2c-17.3,0.2-36.3-0.1-55.8-0.2c-20.3,0-40.7-0.6-56.7-1.4
						l-7.9,13.6c16.1,1.5,41.4,2.6,62.1,2.8C91.3,123.8,115.3,122.9,136.4,122.1"/>
					<line class="st20" x1="26.4" y1="94.2" x2="4" y2="135.8"/>
					<line class="st20" x1="34.1" y1="93.7" x2="12.3" y2="136.9"/>
					<line class="st20" x1="41.5" y1="93" x2="23.7" y2="138.6"/>
					<line class="st20" x1="48.2" y1="93" x2="35.9" y2="140"/>
					<line class="st20" x1="55.8" y1="92.6" x2="49.8" y2="140.4"/>
					<line class="st20" x1="64.4" y1="92.6" x2="63.2" y2="140.9"/>
					<line class="st20" x1="73.3" y1="92.3" x2="77.5" y2="140.4"/>
					<line class="st20" x1="81.9" y1="92.6" x2="90.7" y2="140"/>
					<line class="st20" x1="89.5" y1="92.9" x2="103.6" y2="139.5"/>
					<line class="st20" x1="96.9" y1="93" x2="116.5" y2="138.6"/>
					<line class="st20" x1="104.2" y1="93.4" x2="129.9" y2="136.9"/>
					<line class="st20" x1="111.9" y1="93.7" x2="139.4" y2="135.8"/>
					<g>
						<defs>
							<path id="SVGID_18_" d="M57.8,6.5l0.4,10.8h26.3L85,7c-1.3-2.6-7.6-4.3-14-4.3C65.7,2.7,60.4,3.8,57.8,6.5"/>
						</defs>
						<clipPath id="SVGID_19_">
							<use xlink:href="#SVGID_18_"  style="overflow:visible;"/>
						</clipPath>
						<g class="st21">
							
								<linearGradient id="SVGID_20_" gradientUnits="userSpaceOnUse" x1="55.0469" y1="132.2765" x2="86.4469" y2="132.2765" gradientTransform="matrix(1 0 0 -1 0 142)">
								<stop  offset="0" style="stop-color:#B93189"/>
								<stop  offset="1" style="stop-color:#CA989F"/>
							</linearGradient>
							<path class="st22" d="M57,9.9c-0.1-0.8,16-9.2,29.3,0.7c0.6,0.4-0.1,3.2-0.6,2.8C79.3,8.6,69,6.2,58,12.5
								C52,15.9,57,10.2,57,9.9"/>
						</g>
					</g>
				</g>
			</g>
		</g>
	</g>
</g>
</svg>
