<svg width="68" height="74" viewBox="0 0 68 74" fill="none" xmlns="http://www.w3.org/2000/svg">
<path d="M57.0971 67.5219C63.5906 67.5219 67.9844 63.1312 67.9844 56.6347V10.8872C67.9844 4.39375 63.5937 0 57.0971 0H10.9026C4.40913 0 0.0153809 4.39067 0.0153809 10.8872V74L5.59313 67.5219V10.8872C5.59476 9.48204 6.1537 8.13485 7.14734 7.14121C8.14098 6.14757 9.48817 5.58863 10.8934 5.587H57.0879C60.014 5.59317 62.385 7.96117 62.3881 10.8872V56.6347C62.3865 58.0399 61.8276 59.3871 60.8339 60.3807C59.8403 61.3743 58.4931 61.9333 57.0879 61.9349H18.3365L12.7557 67.5219L12.7218 67.4788L57.0971 67.5219ZM24.0931 35.3535H18.8607V52.9223H24.0931C35.7882 52.9223 35.7882 35.3535 24.0931 35.3535ZM24.0931 49.4104H22.3942V38.8685H24.0931C30.9227 38.8685 30.9227 49.4073 24.0931 49.4073V49.4104ZM23.0725 32.0327H26.5845V17.9758H30.9566V14.4886H18.6973V17.9758H23.0725V32.0327ZM40.3608 22.2031L34.2835 14.4886H33.155V32.3257H36.7194V22.5207L40.3639 27.2412L44.0115 22.5207L43.9868 32.3257H47.5511V14.4886H46.4411L40.3639 22.2031H40.3608ZM46.2808 44.1379C47.3846 43.3763 47.8533 42.0135 47.9026 40.6722C47.9735 37.5766 46.0341 35.3412 42.9169 35.3412H35.964V52.9347H42.9169C44.2949 52.9233 45.6127 52.3681 46.5834 51.3899C47.5541 50.4116 48.0992 49.0896 48.1 47.7115V47.6252C48.1 46.1883 47.3877 44.918 46.2962 44.1502L46.2839 44.141L46.2808 44.1379ZM39.4851 38.8531H42.6085C43.6168 38.8531 44.2304 39.6393 44.2304 40.6198C44.2477 40.8442 44.2188 41.0698 44.1453 41.2826C44.0719 41.4953 43.9555 41.6907 43.8035 41.8566C43.6514 42.0226 43.4669 42.1555 43.2613 42.2472C43.0558 42.3389 42.8336 42.3874 42.6085 42.3897H39.4851V38.85V38.8531ZM42.6085 49.4197H39.4851V45.9077H42.6517C43.6045 45.9077 44.3753 46.6786 44.3753 47.6313V47.6745C44.3753 48.1373 44.1914 48.5812 43.8642 48.9085C43.5369 49.2358 43.093 49.4197 42.6301 49.4197H42.627H42.6085Z" fill="url(#paint0_linear)"/>
<defs>
<linearGradient id="paint0_linear" x1="0.409023" y1="12" x2="64.1019" y2="84.0827" gradientUnits="userSpaceOnUse">
<stop stop-color="#16C1DD"/>
<stop offset="1" stop-color="#16C6E0"/>
</linearGradient>
</defs>
</svg>
